<svg width="63" height="64" viewBox="0 0 63 64" fill="none" xmlns="http://www.w3.org/2000/svg">
<path fill-rule="evenodd" clip-rule="evenodd" d="M51.2024 60.4613H2.72363V11.9825H26.963V9.25897H0.000110006V63.1848H53.9259V32.9536H51.2024L51.2024 60.4613Z" fill="#FF5100"/>
<path fill-rule="evenodd" clip-rule="evenodd" d="M47.4774 9.35021L53.5596 15.4324L25.7812 43.1201L19.7897 37.0379L47.4774 9.35021ZM59.0064 9.89488L55.466 13.526L49.4746 7.44384L53.1057 3.90345L59.0064 9.89488ZM18.0649 39.1258L23.6025 44.7541L16.8848 45.8435L18.0649 39.1258ZM15.6139 37.2195L13.7075 49.1115L25.5996 47.2052L26.7797 45.9343L62.9099 9.89489L52.9242 -6.10352e-05L16.8848 36.0393L15.6139 37.2195Z" fill="black"/>
</svg>
