<svg width="199" height="219" viewBox="0 0 199 219" fill="none" xmlns="http://www.w3.org/2000/svg">
<path d="M74.722 114.333L67.44 113.057C67.2009 110.827 66.716 108.661 65.9966 106.584L72.0451 102.352C72.4533 102.068 72.5525 101.501 72.2661 101.096L63.8677 89.1576C63.5836 88.7481 63.0175 88.6491 62.6116 88.9371L56.5631 93.1716C54.8514 91.7856 52.9728 90.5976 50.9544 89.6121L52.2331 82.3446C52.3188 81.8609 51.9873 81.3906 51.4979 81.3051L37.0939 78.7829C36.6045 78.6974 36.1354 79.0281 36.0497 79.5096L34.771 86.7771C32.5361 87.0179 30.3621 87.5016 28.2783 88.2194L24.0362 82.1826C23.7566 81.7731 23.1905 81.6741 22.7823 81.9621L10.8117 90.3366C10.4012 90.6201 10.302 91.1871 10.5907 91.5921L14.835 97.6266C13.4525 99.3366 12.255 101.209 11.2695 103.225L3.98516 101.949C3.49804 101.863 3.0267 102.19 2.941 102.68L0.412914 117.051C0.327216 117.537 0.658732 118.012 1.14586 118.097L8.43018 119.373C8.66698 121.598 9.1541 123.765 9.87351 125.844L3.82279 130.074C3.41234 130.364 3.31311 130.922 3.60178 131.332L12.0002 143.272C12.2866 143.677 12.8526 143.776 13.2541 143.493L19.3025 139.263C21.0188 140.638 22.8973 141.832 24.9157 142.818L23.6393 150.079C23.5536 150.565 23.8829 151.033 24.3722 151.118L38.7763 153.64C39.2656 153.726 39.737 153.397 39.8204 152.911L41.0969 145.651C43.3295 145.41 45.5036 144.924 47.5851 144.213L51.8294 150.243C52.1136 150.646 52.6796 150.745 53.0856 150.463L65.0562 142.089C65.4644 141.805 65.5636 141.243 65.2772 140.833L61.0352 134.797C62.4221 133.087 63.6151 131.215 64.6007 129.203L71.8827 130.479C72.3699 130.564 72.8412 130.229 72.9269 129.743L75.455 115.372C75.5384 114.882 75.2092 114.418 74.722 114.333ZM35.3213 131.066C27.0988 129.626 21.6006 121.81 23.0439 113.604C24.4873 105.4 32.3219 99.9149 40.5466 101.355C48.7691 102.795 54.2673 110.611 52.824 118.817C51.3806 127.021 43.5438 132.506 35.3213 131.066Z" fill="#F4E8D8"/>
<path d="M173.852 40.9761L161.617 42.8188C160.048 39.4101 158.124 36.2263 155.873 33.3126L163.212 23.3833C163.708 22.7173 163.564 21.7656 162.892 21.2728L143.197 6.78734C142.527 6.28785 141.578 6.43184 141.088 7.10459L133.748 17.0338C130.293 15.7423 126.675 14.8536 122.95 14.3631L121.1 2.15009C120.979 1.34009 120.203 0.768595 119.382 0.892345L95.179 4.54184C94.3581 4.66559 93.7875 5.4396 93.9116 6.2496L95.7609 18.4626C92.3442 20.0308 89.1531 21.9546 86.2281 24.1978L76.2759 16.8741C75.6128 16.3746 74.6634 16.5186 74.1695 17.1913L59.6414 36.8338C59.143 37.5021 59.2874 38.4538 59.9617 38.9443L69.9162 46.2658C68.633 49.7128 67.7331 53.3218 67.246 57.0411L55.0092 58.8861C54.1883 59.0098 53.6155 59.7748 53.7395 60.6006L57.3952 84.7453C57.5193 85.5598 58.2951 86.1403 59.116 86.0166L71.3527 84.1716C72.9156 87.5759 74.8438 90.7573 77.0922 93.6733L69.7493 103.598C69.2531 104.275 69.3952 105.214 70.0695 105.713L89.7643 120.199C90.4341 120.687 91.3857 120.545 91.8706 119.881L99.2113 109.959C102.669 111.23 106.286 112.128 110.016 112.621L111.863 124.822C111.987 125.637 112.761 126.208 113.579 126.085L137.78 122.437C138.601 122.314 139.174 121.542 139.05 120.725L137.203 108.523C140.617 106.955 143.808 105.029 146.731 102.797L156.681 110.114C157.346 110.605 158.298 110.461 158.789 109.797L173.317 90.1521C173.814 89.4861 173.672 88.5388 172.997 88.0416L163.047 80.7156C164.335 77.2663 165.23 73.6596 165.722 69.9471L177.956 68.1043C178.775 67.9806 179.343 67.1998 179.219 66.3853L175.564 42.2406C175.442 41.4148 174.668 40.8523 173.852 40.9761ZM120.645 90.9958C105.418 93.2908 91.2098 82.8351 88.9095 67.6453C86.6092 52.4533 97.0892 38.2783 112.314 35.9833C127.541 33.6883 141.749 44.1441 144.049 59.3338C146.35 74.5258 135.872 88.7008 120.645 90.9958Z" fill="#F4E8D8"/>
<path d="M20.1419 102.617C20.5771 102.617 20.5771 101.942 20.1419 101.942C19.7066 101.942 19.7066 102.617 20.1419 102.617Z" fill="#F4E8D8"/>
<path d="M74.7822 99.7189L81.5523 99.7459L91.6872 93.5112L112.492 78.4834L91.3061 78.3147L74.7822 99.7189Z" fill="#702022"/>
<path d="M89.3785 76.1255L72.584 96.5442L74.7963 99.746L91.8119 79.01L89.3785 76.1255Z" fill="#972D29"/>
<path d="M89.3784 76.1255L110.28 75.8442L112.492 78.4835L91.8118 79.01L89.3784 76.1255Z" fill="#C83F37"/>
<path d="M104.096 92.1321L103.342 101.852L101.953 120.172L120.374 118.482L124.765 97.3588L104.096 92.1321Z" fill="#CE6D3E"/>
<path d="M91.519 82.6415L80.146 95.867L83.4431 119.224L102.696 119.548L105.24 98.1462L91.519 82.6415Z" fill="#F2864F"/>
<path d="M91.519 82.6415L80.146 95.867L83.4431 119.224L94.6425 119.436L95.6009 88.9325L91.519 82.6415Z" fill="#CE6D3E"/>
<path opacity="0.5" d="M100.082 94.4472L91.5187 82.6415L88.3276 86.3517L89.9717 119.316L98.5347 119.726L100.082 94.4472Z" fill="#C16840"/>
<path d="M102.478 117.199C102.496 116.891 102.335 116.631 102.117 116.619C101.899 116.606 101.708 116.845 101.69 117.153C101.672 117.46 101.834 117.72 102.051 117.733C102.269 117.746 102.46 117.507 102.478 117.199Z" fill="#3E424B"/>
<path d="M102.983 110.3C103.001 109.992 102.839 109.733 102.622 109.72C102.404 109.707 102.213 109.946 102.195 110.254C102.177 110.561 102.339 110.821 102.556 110.834C102.774 110.847 102.965 110.608 102.983 110.3Z" fill="#3E424B"/>
<path d="M103.743 101.871C103.761 101.564 103.599 101.304 103.382 101.291C103.164 101.278 102.973 101.517 102.955 101.825C102.937 102.133 103.098 102.392 103.316 102.405C103.533 102.418 103.725 102.179 103.743 101.871Z" fill="#3E424B"/>
<path d="M122.333 104.805C122.417 104.571 122.344 104.331 122.171 104.269C121.997 104.207 121.788 104.347 121.704 104.581C121.62 104.815 121.693 105.055 121.866 105.117C122.04 105.179 122.249 105.039 122.333 104.805Z" fill="#3E424B"/>
<path d="M120.917 111.082C121.001 110.848 120.929 110.609 120.755 110.547C120.582 110.485 120.373 110.624 120.289 110.858C120.205 111.092 120.277 111.332 120.451 111.394C120.624 111.456 120.833 111.316 120.917 111.082Z" fill="#3E424B"/>
<path d="M119.504 118.034C119.588 117.8 119.516 117.56 119.342 117.498C119.168 117.436 118.96 117.576 118.876 117.81C118.792 118.043 118.864 118.283 119.038 118.345C119.211 118.407 119.42 118.268 119.504 118.034Z" fill="#3E424B"/>
<path d="M83.5699 111.533C83.586 111.26 83.4428 111.029 83.2501 111.018C83.0573 111.007 82.8881 111.219 82.8719 111.492C82.8558 111.765 82.999 111.995 83.1917 112.006C83.3845 112.018 83.5537 111.806 83.5699 111.533Z" fill="#3E424B"/>
<path d="M82.6977 103.621C82.7136 103.352 82.5722 103.125 82.382 103.114C82.1917 103.102 82.0246 103.312 82.0088 103.581C81.9929 103.85 82.1342 104.077 82.3244 104.088C82.5147 104.1 82.6818 103.89 82.6977 103.621Z" fill="#3E424B"/>
<path d="M81.5927 96.8138C81.6082 96.5508 81.4696 96.3287 81.2831 96.3177C81.0966 96.3068 80.9328 96.5111 80.9173 96.7741C80.9017 97.0371 81.0404 97.2591 81.2269 97.2701C81.4134 97.281 81.5771 97.0767 81.5927 96.8138Z" fill="#3E424B"/>
<path d="M86.1773 90.7508C86.1955 90.4432 86.0338 90.1834 85.8162 90.1706C85.5986 90.1579 85.4075 90.3969 85.3893 90.7045C85.3712 91.0122 85.5328 91.272 85.7504 91.2847C85.968 91.2975 86.1592 91.0585 86.1773 90.7508Z" fill="#3E424B"/>
<path d="M90.9898 85.6097C91.008 85.3021 90.8463 85.0423 90.6287 85.0295C90.4111 85.0167 90.22 85.2558 90.2018 85.5634C90.1837 85.8711 90.3453 86.1308 90.5629 86.1436C90.7805 86.1564 90.9716 85.9174 90.9898 85.6097Z" fill="#3E424B"/>
<path d="M84.3708 117.935C84.3848 117.697 84.2591 117.496 84.09 117.486C83.9209 117.476 83.7724 117.661 83.7584 117.899C83.7443 118.137 83.87 118.339 84.0391 118.349C84.2082 118.358 84.3567 118.173 84.3708 117.935Z" fill="#3E424B"/>
<path d="M92.2685 117.696C92.2835 117.442 92.1495 117.227 91.9692 117.217C91.7889 117.206 91.6306 117.404 91.6156 117.658C91.6005 117.912 91.7345 118.127 91.9148 118.138C92.0951 118.148 92.2534 117.951 92.2685 117.696Z" fill="#3E424B"/>
<path d="M107.929 97.0595L105.552 100.977L125.229 100.428L127.398 96.6005L107.929 97.0595Z" fill="#972D29"/>
<path d="M91.8696 79.1157L112.153 78.7085L127.398 96.6005L107.929 97.0595L91.8696 79.1157Z" fill="#C83F37"/>
<path d="M89.4727 82.0565L105.552 100.977L107.932 97.0572L91.8699 79.1157L89.4727 82.0565Z" fill="#972D29"/>
<path d="M91.5385 105.286C94.113 105.286 96.2 102.582 96.2 99.2465C96.2 95.9113 94.113 93.2075 91.5385 93.2075C88.964 93.2075 86.877 95.9113 86.877 99.2465C86.877 102.582 88.964 105.286 91.5385 105.286Z" fill="#F6BE4A"/>
<path d="M92.3725 104.869C94.4862 104.869 96.1996 102.352 96.1996 99.2465C96.1996 96.1412 94.4862 93.6238 92.3725 93.6238C90.2589 93.6238 88.5454 96.1412 88.5454 99.2465C88.5454 102.352 90.2589 104.869 92.3725 104.869Z" fill="#102441"/>
<path d="M94.9498 80.6389C95.0478 80.4475 94.8817 80.1672 94.5789 80.013C94.2761 79.8587 93.9512 79.8889 93.8532 80.0803C93.7552 80.2718 93.9213 80.552 94.2241 80.7063C94.5269 80.8606 94.8518 80.8304 94.9498 80.6389Z" fill="#4D525B"/>
<path d="M108.968 96.5613C109.066 96.3698 108.9 96.0896 108.597 95.9353C108.295 95.7811 107.97 95.8112 107.872 96.0027C107.774 96.1941 107.94 96.4744 108.243 96.6287C108.545 96.7829 108.87 96.7527 108.968 96.5613Z" fill="#4D525B"/>
<path d="M125.197 95.9658C125.295 95.7744 125.129 95.4941 124.826 95.3399C124.524 95.1856 124.199 95.2158 124.101 95.4072C124.003 95.5987 124.169 95.879 124.472 96.0332C124.774 96.1875 125.099 96.1573 125.197 95.9658Z" fill="#4D525B"/>
<path d="M113.383 77.8538C113.481 77.6623 113.315 77.3821 113.012 77.2278C112.71 77.0736 112.385 77.1037 112.287 77.2952C112.189 77.4866 112.355 77.7669 112.658 77.9211C112.961 78.0754 113.285 78.0452 113.383 77.8538Z" fill="#4D525B"/>
<path d="M111.711 80.3826L112.553 77.6578L113.06 77.8648L111.775 80.4073C111.757 80.4456 111.7 80.4231 111.711 80.3826Z" fill="#4D525B"/>
<path opacity="0.5" d="M126.018 94.9917C124.769 96.5847 121.803 96.7445 117.769 95.093C111.138 92.3795 104.131 85.8072 102.118 80.4117C101.4 78.4925 101.414 76.9805 102.025 75.9522L110.279 75.8442L112.467 78.5037L112.153 78.7085L126.018 94.9917Z" fill="#C83F37"/>
<path d="M85.6187 116.007L69.5664 116.722L69.6859 119.393L85.7382 118.678L85.6187 116.007Z" fill="#F6CF4C"/>
<path d="M69.7008 119.398C70.2035 119.375 70.5842 118.758 70.5512 118.02C70.5181 117.281 70.0838 116.7 69.5811 116.723C69.0784 116.745 68.6977 117.362 68.7307 118.101C68.7638 118.839 69.1981 119.42 69.7008 119.398Z" fill="#F5864E"/>
<path d="M85.6861 118.686C86.1888 118.664 86.5695 118.047 86.5365 117.308C86.5034 116.569 86.0691 115.989 85.5664 116.011C85.0638 116.034 84.683 116.651 84.7161 117.389C84.7491 118.128 85.1834 118.708 85.6861 118.686Z" fill="#F6CF4C"/>
<path d="M118.824 203.802L115.013 204.465L111.632 203.727L106.867 127.808H119.345L118.824 203.802Z" fill="#102441"/>
<path d="M118.815 203.784L114.9 204.465L114.187 158.883L119.2 145.718L118.815 203.784Z" fill="#634874"/>
<path d="M156.283 205.262C156.517 203.359 155.225 201.635 153.398 201.411C151.571 201.188 149.9 202.55 149.666 204.453C149.433 206.356 150.724 208.08 152.552 208.303C154.379 208.527 156.05 207.165 156.283 205.262Z" fill="#131620"/>
<path d="M185.311 207.279C187.138 207.056 188.43 205.332 188.196 203.429C187.963 201.526 186.292 200.164 184.465 200.387C182.638 200.611 181.346 202.334 181.579 204.238C181.813 206.141 183.484 207.503 185.311 207.279Z" fill="#131620"/>
<path d="M186.289 199.239C183.503 199.128 166.727 197.796 166.727 197.796C166.727 197.796 154.483 199.005 152.136 198.915C148.71 198.78 148.636 202.213 148.89 203.066C149.145 203.919 151.54 203.831 152.145 203.599L154.278 203.178L166.943 201.637L182.775 203.104L184.908 203.525C185.513 203.757 186.913 204.002 187.518 203.77L188.623 203.649C188.975 203.514 188.993 201.786 189.002 201.41C189.031 200.229 189.358 199.362 186.289 199.239Z" fill="#102441"/>
<path d="M153.339 121.2C153.339 121.2 160.544 116.554 164.482 126.211C168.437 135.91 166.153 135.523 157.755 139.119C153.037 141.139 145.148 144.494 138.031 146.445C132.571 147.941 119.811 153.895 116.349 146.004C114.281 141.29 116.423 137.137 120.302 135.253C124.193 133.366 153.339 121.2 153.339 121.2Z" fill="#D8A344"/>
<path d="M152.807 186.754C156.336 188.176 159.354 193.641 159.354 193.641C159.354 193.641 151.598 200.569 147.987 202.866C147.236 203.343 144.562 204.398 141.991 205.339C139.221 206.351 132.909 206.956 132.066 206.617C131.152 206.25 130.167 200.638 132.39 197.524C134.456 194.631 139.855 194.462 140.243 193.821C143.77 187.953 151.226 186.117 152.807 186.754Z" fill="#131620"/>
<path d="M140.406 193.513C140.406 193.513 141.454 193.47 142.307 195.436" stroke="#29ABE3" stroke-width="3" stroke-miterlimit="10" stroke-linecap="round" stroke-linejoin="round"/>
<path d="M135.965 195.009C135.965 195.009 136.928 194.701 137.966 196.647" stroke="#29ABE3" stroke-width="3" stroke-miterlimit="10" stroke-linecap="round" stroke-linejoin="round"/>
<path d="M138.646 194.278C138.646 194.278 139.812 194.629 140.227 195.889" stroke="#29ABE3" stroke-width="3" stroke-miterlimit="10" stroke-linecap="round" stroke-linejoin="round"/>
<path d="M131.868 206.434L132.068 207.451C132.134 207.78 132.371 208.054 132.65 208.12C134.617 208.574 140.726 207.411 143.072 206.52C145.381 205.642 146.768 205.087 148.786 203.566C151.777 201.309 160.13 195.542 160.13 195.542C160.13 195.542 160.276 194.163 159.341 193.652C159.007 193.47 149.65 200.479 145.568 203.433C144.583 204.146 142.781 204.828 141.651 205.087C137.163 206.115 131.868 206.434 131.868 206.434Z" fill="#29ABE3"/>
<path d="M140.974 193.22C141.163 193.434 141.445 193.578 141.757 193.616C143.026 193.774 146.743 193.753 149.643 192.448C153.274 190.813 157.029 188.126 157.029 188.126L152.487 180.217C152.487 180.217 138.008 154.259 134.014 146.353C131.107 140.597 126.944 136.072 120.855 138.003C115.143 139.814 114.525 143.34 117.312 149.476C119.261 153.762 131.058 174.997 131.058 174.997L138.421 189.784L140.974 193.22Z" fill="#D8A344"/>
<path d="M156.129 186.781L152.108 180.33C152.108 180.33 148.164 173.53 143.103 164.143C141.664 161.475 140.392 161.749 139.817 163.648C139.761 163.651 139.729 163.653 139.729 163.653C139.729 163.653 138.387 166.101 138.36 168.891C138.36 168.891 138.696 167.278 139.495 165.916C139.423 168.49 140.081 172.088 141.885 175.706C142.645 177.229 146.121 179.943 149.451 182.305C147.196 181.617 144.377 180.604 143.263 179.578C143.263 179.578 148.482 184.823 153.245 185.179C153.407 185.19 153.547 185.192 153.675 185.19C155.139 186.157 156.129 186.781 156.129 186.781Z" fill="#D8A344"/>
<path d="M175.112 150.614L185.817 157.823L187.96 156.489L176.183 149.01L175.112 150.614Z" fill="#102441"/>
<path d="M185.141 156.896L186.325 155.571C186.699 155.15 187.331 155.071 187.849 155.379L189.791 156.531C190.499 156.952 190.709 157.899 190.226 158.498L189.155 159.828C188.794 160.275 188.156 160.379 187.621 160.077L185.569 158.921C184.816 158.5 184.604 157.497 185.141 156.896Z" fill="#102441"/>
<path d="M176.987 143.758H169.493V197.283H176.987V143.758Z" fill="#102441"/>
<path d="M177.521 194.862C177.521 196.149 176.66 197.166 175.67 197.029C175.085 196.948 174.361 196.914 173.5 196.986C172.384 197.079 171.409 197.196 170.654 197.301C169.747 197.427 168.958 196.512 168.958 195.335V162.096H177.523V194.862H177.521Z" fill="#273150"/>
<path d="M175.56 157.823V160.671" stroke="#273150" stroke-width="3" stroke-miterlimit="10" stroke-linecap="round" stroke-linejoin="round"/>
<path d="M175.38 167.703V191.884" stroke="#273150" stroke-width="5" stroke-miterlimit="10"/>
<path d="M33.6343 208.288L29.6787 205.145L40.1992 172.439L44.5044 174.851L33.6343 208.288Z" fill="#C83F37"/>
<path d="M40.1992 172.439L62.8731 171.962L67.5031 174.127L44.5044 174.851L40.1992 172.439Z" fill="#EB5E4D"/>
<path d="M67.5035 174.127L58.0812 205.843L33.6348 208.288L44.5049 174.851L67.5035 174.127Z" fill="#972D29"/>
<path d="M151.71 147.842L164.29 149.134C167.344 149.446 170.027 147.394 170.027 144.746V142.091C170.027 139.432 167.738 135.062 164.673 135.393L151.677 139.071C149.11 139.35 147.187 141.229 147.187 143.455C147.189 145.691 149.131 147.577 151.71 147.842Z" fill="#273150"/>
<path d="M192.381 147.739L166.55 149.293C163.065 149.502 160.125 146.74 160.125 143.257V141.274C160.125 137.895 162.901 135.172 166.286 135.229L192.117 135.658C195.446 135.715 198.107 138.437 198.077 141.758C198.05 144.933 195.561 147.547 192.381 147.739Z" fill="#634874"/>
<path d="M193.691 145.336C193.691 145.336 181.833 144.026 179.377 140.822C176.921 137.618 189.796 138.507 189.796 138.507C193.15 138.563 195.394 136.03 196.801 139.351C198.145 142.53 196.788 145.144 193.691 145.336Z" fill="#634874"/>
<path d="M160.255 210.511C162.542 210.511 164.395 208.662 164.395 206.38C164.395 204.099 162.542 202.249 160.255 202.249C157.968 202.249 156.114 204.099 156.114 206.38C156.114 208.662 157.968 210.511 160.255 210.511Z" fill="#131620"/>
<path d="M189.766 209.879C192.381 209.879 194.502 207.764 194.502 205.154C194.502 202.545 192.381 200.429 189.766 200.429C187.15 200.429 185.03 202.545 185.03 205.154C185.03 207.764 187.15 209.879 189.766 209.879Z" fill="#131620"/>
<path d="M161.342 206.065C161.342 206.065 161.315 206.279 163.081 205.8C164.939 205.296 165.535 205.042 165.593 204.686C165.668 204.243 165.365 203.188 166.01 202.951L171.675 201.037C172.638 200.755 173.633 200.355 174.618 200.546C174.618 200.546 186.012 203.595 187.309 203.822C188.605 204.049 188.157 205.498 188.817 205.676C189.974 205.991 191.485 205.894 191.485 205.894L192.026 201.424L171.434 196.681L161.198 202.42L161.342 206.065Z" fill="#102441"/>
<path d="M177.613 197.104C177.613 197.104 165.36 201.77 163.168 202.353C162.115 202.632 162.032 203.541 161.964 204.211L161.912 204.724C161.831 205.532 161.797 206.241 160.992 206.133L156.06 205.426C155.347 205.33 154.817 204.722 154.817 204.007C154.817 202.324 155.94 200.845 157.564 200.393C161.933 199.176 169.754 195.562 169.754 195.562L177.613 197.104Z" fill="#273150"/>
<path d="M169.334 197.594C169.334 197.594 186.33 201.662 188.576 201.984C189.699 202.144 190.54 203.125 190.892 203.894C191.244 204.664 190.685 206.009 191.49 205.899L195.452 205.732C196.165 205.636 196.645 204.621 196.645 203.903C196.645 202.22 195.838 200.742 194.214 200.29C189.846 199.072 176.452 195.533 176.452 195.533L169.334 197.594Z" fill="#273150"/>
<path d="M43.3725 209.631L38.4629 205.797L51.0763 165.356L56.4099 168.283L43.3725 209.631Z" fill="#AA4928"/>
<path d="M51.0762 165.356L79.0272 164.523L84.7577 167.142L56.4097 168.283L51.0762 165.356Z" fill="#F6CF4C"/>
<path d="M84.7584 167.142L73.4869 206.346L43.373 209.631L56.4104 168.283L84.7584 167.142Z" fill="#EE844E"/>
<path d="M47.8914 215.432L60.8791 213.36L60.7934 210.687L47.8057 212.759L47.8914 215.432Z" fill="#F6CF4C"/>
<path d="M47.9042 215.44C48.4071 215.424 48.7957 214.812 48.7722 214.073C48.7486 213.334 48.3218 212.748 47.8188 212.764C47.3159 212.78 46.9273 213.392 46.9509 214.131C46.9744 214.87 47.4012 215.456 47.9042 215.44Z" fill="#F5864E"/>
<path d="M60.8222 213.37C61.3251 213.354 61.7137 212.742 61.6901 212.003C61.6666 211.264 61.2398 210.678 60.7368 210.694C60.2339 210.71 59.8453 211.322 59.8688 212.061C59.8924 212.8 60.3192 213.386 60.8222 213.37Z" fill="#F6CF4C"/>
<path d="M37.0781 212.428L44.4121 214.314L44.8563 211.319L37.3036 210.234L37.0781 212.428Z" fill="#F6CF4C"/>
<path d="M37.9892 211.254C37.9328 211.868 37.5269 212.401 37.0894 212.433C36.6564 212.464 36.3609 211.992 36.4286 211.384C36.494 210.786 36.8886 210.275 37.3126 210.234C37.7434 210.194 38.0456 210.646 37.9892 211.254Z" fill="#F6CF4C"/>
<path d="M45.6211 212.723C45.6481 213.567 45.2241 214.282 44.6784 214.307C44.1394 214.332 43.7041 213.668 43.6973 212.844C43.6906 212.037 44.101 211.359 44.6197 211.319C45.1452 211.276 45.594 211.899 45.6211 212.723Z" fill="#F5864E"/>
<path d="M167.698 71.0225L163.283 73.565C161.618 74.5235 159.433 73.8575 158.402 72.0777L153.942 64.367C152.911 62.5872 153.425 60.3665 155.089 59.4057L160.879 53.963C162.543 53.0045 163.355 56.5685 164.385 58.3505L168.846 66.0612C169.877 67.8432 169.363 70.064 167.698 71.0225Z" fill="#A76343"/>
<path d="M167.754 67.8095L165.131 69.3215C164.141 69.8907 162.556 68.9975 161.588 67.3257L157.398 60.0852C156.431 58.4135 155.211 55.9115 156.199 55.3422L161.194 52.4937C162.184 51.9245 162.903 55.331 163.871 57.0027L167.79 63.7505C168.76 65.4222 168.742 67.2402 167.754 67.8095Z" fill="#AA6345"/>
<path d="M158.404 72.0777L153.943 64.3669C152.912 62.5872 153.524 60.3102 155.31 59.2819L160.043 56.5549C161.827 55.5267 159.435 73.8574 158.404 72.0777Z" fill="#7C4631"/>
<path d="M156.539 96.1077C156.539 96.1077 150.086 90.5479 145.689 88.5004C142.489 87.0109 139.53 89.6704 140.116 92.5954C140.608 95.0457 152.725 106.93 154.777 108.98C156.83 111.027 157.709 115.417 163.868 111.027C170.027 106.64 162.695 99.9102 156.539 96.1077Z" fill="#7C4631"/>
<path d="M145.358 91.6077C145.358 91.6077 145.358 86.1987 144.543 84.3042C143.729 82.412 140.207 79.5027 138.851 78.6927C137.496 77.8805 135.892 80.8505 136.393 82.448C136.731 83.5302 137.688 85.193 138.908 88.0325C140.125 90.872 142.782 93.095 145.358 91.6077Z" fill="#7C4631"/>
<path d="M145.917 97.9212L140.98 100.718L132.604 85.4292L129.325 78.749L126.161 73.7157L130.597 71.459L133.166 76.4697L137.442 83.4402L145.917 97.9212Z" fill="#F5864E"/>
<path d="M143.852 100.015C145.235 99.2209 146.172 98.2586 145.946 97.8655C145.719 97.4724 144.414 97.7974 143.031 98.5914C141.648 99.3854 140.711 100.348 140.938 100.741C141.165 101.134 142.47 100.809 143.852 100.015Z" fill="#EB5E4D"/>
<path d="M130.076 82.4164C128.736 82.5311 128.45 83.9351 128.901 84.9274C129.352 85.9196 130.101 85.8679 131.603 86.0569C133.513 86.2976 136.625 86.4574 136.848 85.5304C137.071 84.6011 136.713 84.1016 134.444 83.1634C133.666 82.8416 131.415 82.3016 130.076 82.4164Z" fill="#7C4631"/>
<path d="M131.939 85.4966C131.136 85.2851 130.401 86.1626 130.735 86.9344C131.06 87.6859 131.398 88.4239 131.578 88.6894C131.88 89.1326 134.911 89.2249 136.553 89.2429C137.119 89.2496 137.604 88.7591 137.609 88.1764L137.613 87.7354C137.618 87.2944 137.343 86.9231 136.934 86.8151L131.939 85.4966Z" fill="#7C4631"/>
<path d="M133.041 90.6064L133.321 90.9979C133.544 91.3107 133.878 91.4727 134.201 91.4254L137.265 90.9799C137.838 90.8967 138.168 90.2014 137.956 89.5219C137.802 89.0337 137.408 88.7029 136.988 88.7074L133.644 88.7592C132.866 88.7749 132.511 89.8639 133.041 90.6064Z" fill="#7C4631"/>
<path d="M134.476 91.9001L134.762 92.6539C134.864 92.9577 135.132 93.1782 135.453 93.2142C135.453 93.2142 136.977 93.3559 137.737 93.2614C138.497 93.1669 138.829 92.7394 138.542 91.8394C138.256 90.9371 137.448 90.7954 136.449 90.8899C135.453 90.9844 134.55 91.1261 134.476 91.9001Z" fill="#7C4631"/>
<path d="M137.721 78.2045C135.845 77.7747 134.445 78.4273 131.607 79.5658C129.842 80.2745 132.192 82.637 133.838 82.4728C135.417 82.3153 136.93 82.07 137.572 82.106C139.117 82.1848 140.258 78.785 137.721 78.2045Z" fill="#7C4631"/>
<path d="M125.399 64.4435C127.544 63.5097 133.279 65.3502 135.816 66.2502C136.233 66.3987 136.461 66.8375 136.346 67.2672L136.134 68.0457C136.134 68.0457 132.564 67.391 130.749 67.175C129.513 67.0265 128.539 67.9175 128.043 68.5025L125.399 64.4435Z" fill="#102441"/>
<path d="M117.468 69.9357L120.46 68.0682C120.695 67.922 120.855 67.6835 120.9 67.4135L121.166 65.8092C121.211 65.5415 121.369 65.303 121.602 65.1567C122.497 64.5897 124.883 63.125 126.953 62.225C129.296 61.2057 135.561 63.215 138.331 64.1982C138.786 64.3602 139.037 64.8395 138.908 65.3075L138.678 66.158C138.678 66.158 134.779 65.4425 132.796 65.2062C131.445 65.0442 130.381 66.0185 129.84 66.6552C129.589 66.95 129.247 67.5912 129.423 67.9265L130.931 70.7727C131.175 71.234 131.285 71.5805 130.812 71.8235L125.974 74.2895C125.562 74.4987 125.629 74.4605 125.356 74.0982L123.742 71.936C123.471 71.5715 122.404 71.387 121.992 71.5985L119.225 73.0092C118.778 73.2365 118.234 73.0835 117.984 72.6605L117.136 71.216C116.886 70.775 117.03 70.2102 117.468 69.9357Z" fill="#634874"/>
<path d="M129.047 73.637C127.854 74.3052 126.688 74.5347 126.445 74.15C126.201 73.7652 127.083 73.1352 128.278 72.467C129.474 71.7987 130.527 71.3487 130.768 71.7312C131.012 72.116 130.24 72.9687 129.047 73.637Z" fill="#F5864E"/>
<path d="M113.221 72.3724C113.264 73.3084 113.6 74.7844 115.163 75.6101C115.578 75.8284 115.819 75.9904 116.223 75.7361L118.475 74.3119C118.99 73.9901 119.157 73.3151 118.85 72.8044L117.314 70.2506C117.007 69.7399 116.344 69.5869 115.83 69.9086L113.6 71.3194C113.182 71.5849 113.198 71.8774 113.221 72.3724Z" fill="#634874"/>
<path d="M138.68 200.881C139.629 205.084 139.618 209.067 139.573 210.541C139.561 210.887 139.306 211.168 138.959 211.213C136.454 211.546 126.653 212.822 123.191 212.923C120.288 213.009 112.86 212.631 110.584 211.958C109.538 211.65 109.033 208.716 108.757 206.891C108.394 204.488 109.402 202.315 113.529 200.944C117.645 199.579 123.434 200.411 123.434 200.411C123.434 200.411 138.348 199.412 138.68 200.881Z" fill="#131620"/>
<path d="M118.597 199.88C118.597 199.88 120.288 199.693 121.204 202.384" stroke="#29ABE3" stroke-width="3" stroke-miterlimit="10" stroke-linecap="round" stroke-linejoin="round"/>
<path d="M121.213 199.977C121.213 199.977 123.532 199.601 124.222 202.472" stroke="#29ABE3" stroke-width="3" stroke-miterlimit="10" stroke-linecap="round" stroke-linejoin="round"/>
<path d="M123.928 200.024C123.928 200.024 126.256 199.79 126.758 202.722" stroke="#29ABE3" stroke-width="3" stroke-miterlimit="10" stroke-linecap="round" stroke-linejoin="round"/>
<path d="M110.582 211.958C110.582 211.958 110.424 213.135 110.877 213.256C111.8 213.502 116.696 213.877 123.211 213.639C127.978 213.463 128.409 213.223 130.976 213.297C135.473 213.427 138.869 212.824 139.083 212.788C139.297 212.752 139.442 211.96 139.232 211.189C139.155 210.91 133.759 212.302 122.604 212.593C114.1 212.818 110.582 211.958 110.582 211.958Z" fill="#29ABE3"/>
<path d="M121.984 198.872C121.984 198.872 124.379 201.799 128.727 203.035C133.134 204.286 139.834 203.928 139.834 203.928L143.239 198.19L147.851 162.78C147.851 162.78 153.21 136.097 144.922 133.525C139.333 131.793 133.459 131.167 131.918 137.56C130.813 142.141 124.986 168.124 124.986 168.124L124.438 185.273C124.438 185.273 121.019 194.791 120.978 195.128C120.841 196.215 121.984 198.872 121.984 198.872Z" fill="#F6CF4C"/>
<path d="M183.996 119.384C183.996 119.384 193.147 114.972 195.772 125.497C198.397 136.023 188.815 136.475 188.815 136.475C188.815 136.475 172.936 139.697 163.329 140.66C155.923 141.403 137.038 147.388 134.417 138.649C132.848 133.413 136.668 129.401 142.2 128.038C147.732 126.674 183.996 119.384 183.996 119.384Z" fill="#FEED7F"/>
<path d="M188.172 129.732C189.992 127.331 191.9 124.843 191.9 124.843C192.18 116.79 181.199 120.082 181.199 120.082C181.199 120.082 152.274 125.068 140.475 128.479C132.604 130.753 128.989 144.395 141.16 144.332C147.38 144.301 174.537 139.213 174.537 139.213C174.537 139.213 188.017 133.865 190.881 129.086C191.231 128.501 189.553 129.678 188.172 129.732Z" fill="#F6CF4C"/>
<path d="M162.73 64.9856C164.563 63.8224 170.233 62.6569 172.4 63.4894C174.567 64.3219 186.08 80.0426 190.331 90.5209C192.598 96.1076 196.535 120.169 196.535 122.664C196.535 125.16 180.521 127.299 180.521 127.299C180.521 127.299 161.647 123.868 159.146 116.884C158.136 114.063 160.017 112.434 159.647 109.398C159.099 104.921 156.474 98.8684 155.479 93.5134C153.813 84.5314 150.964 77.3269 153.7 72.6109C155.534 69.4496 160.896 66.1489 162.73 64.9856Z" fill="#29ABE3"/>
<path opacity="0.5" d="M162.73 64.9857C163.391 64.5672 172.484 68.8939 172.484 68.8939L176.818 74.0509C176.818 74.0509 186.297 88.3249 187.763 95.2774C189.596 104.79 192.348 125.004 192.348 125.004C192.348 125.004 189.7 125.697 187.513 126.136C185.034 126.633 180.521 127.299 180.521 127.299C178.158 126.852 172.222 125.589 167.304 123.245C163.668 121.51 160.68 119.17 159.618 116.202C158.608 113.381 160.017 112.434 159.645 109.398C159.097 104.921 156.472 98.8684 155.477 93.5134C153.811 84.5314 150.963 77.3269 153.698 72.6109C155.534 69.4497 160.897 66.1489 162.73 64.9857Z" fill="#209BC7"/>
<path d="M187.228 97.0076L189.715 109.068C189.715 109.068 187.528 105.823 187.251 102.831C186.971 99.8403 187.228 97.0076 187.228 97.0076Z" fill="#29ABE3"/>
<path d="M159.812 68.7273C159.812 68.7273 164.48 67.3976 166.814 68.0613C169.149 68.7273 173.984 76.2108 175.817 81.8673C177.651 87.5238 176.652 90.1833 172.815 91.0158C168.982 91.8483 167.313 93.1781 161.645 87.6881C155.978 82.2004 152.144 72.3881 159.812 68.7273Z" fill="#A96443"/>
<path d="M169.773 83.24C171.273 84.0725 174.816 91.8486 168.147 91.6821C165.107 91.6056 159.32 85.8208 158.644 83.366C158.26 81.9778 156.887 80.567 157.478 80.3713C159.728 79.622 168.273 82.4098 169.773 83.24Z" fill="#7C4631"/>
<path d="M151.477 76.7127L153.894 73.9407C153.894 73.9407 155.06 83.1994 157.812 86.9434C160.563 90.6874 167.816 95.3427 167.816 95.3427L175.817 112.143L175.508 122.178C174.762 124.415 170.829 125.025 168.84 126.298L150.333 132.769C150.14 132.891 147.332 145.576 147.332 145.576L146.61 154.668C146.61 154.668 142.808 154.558 132.804 153.559C122.8 152.56 111.821 149.235 111.821 149.235L118.824 121.623L159.147 116.882C159.147 116.882 158.509 116.776 158.152 115.224C157.37 111.806 156.283 104.25 154.562 95.6734C152.061 83.1994 151.477 76.7127 151.477 76.7127Z" fill="#273150"/>
<path d="M153.139 74.6135C154.729 68.2708 162.796 64.3693 169.983 62.3533" stroke="#F6CF4C" stroke-width="3" stroke-miterlimit="10" stroke-linecap="round" stroke-linejoin="round"/>
<path d="M171.053 62.2969C171.053 62.2969 171.556 59.4147 172.888 59.5812C174.221 59.7499 174.041 62.1102 171.053 62.2969Z" stroke="#F6CF4C" stroke-width="3" stroke-miterlimit="10" stroke-linecap="round" stroke-linejoin="round"/>
<path d="M170.416 62.6478C170.416 62.6478 171.879 61.0481 170.626 60.1008C169.374 59.1536 168.887 60.5081 170.416 62.6478Z" stroke="#F6CF4C" stroke-width="3" stroke-miterlimit="10" stroke-linecap="round" stroke-linejoin="round"/>
<path d="M170.796 62.4521C170.796 62.4521 173.229 63.6514 173.439 65.6809" stroke="#F6CF4C" stroke-width="3" stroke-miterlimit="10" stroke-linecap="round" stroke-linejoin="round"/>
<path d="M170.529 62.5287C170.529 62.5287 171.582 66.0229 170.369 67.8184" stroke="#F6CF4C" stroke-width="3" stroke-miterlimit="10" stroke-linecap="round" stroke-linejoin="round"/>
<path d="M174.818 112.085C174.818 112.085 184.656 112.141 194.159 110.643" stroke="#F6CF4C" stroke-width="3" stroke-miterlimit="10" stroke-linecap="round" stroke-linejoin="round"/>
<path d="M193.655 110.645C193.655 110.645 192.821 112.641 194.49 113.473C196.159 114.306 195.658 112.308 193.655 110.645Z" stroke="#F6CF4C" stroke-width="3" stroke-miterlimit="10" stroke-linecap="round" stroke-linejoin="round"/>
<path d="M197.325 111.588C197.381 110.755 194.991 109.702 193.825 110.424C192.657 111.144 197.269 112.418 197.325 111.588Z" stroke="#F6CF4C" stroke-width="3" stroke-miterlimit="10" stroke-linecap="round" stroke-linejoin="round"/>
<path d="M193.435 110.922C193.435 110.922 197.102 112.807 196.991 116.578" stroke="#F6CF4C" stroke-width="3" stroke-miterlimit="10" stroke-linecap="round" stroke-linejoin="round"/>
<path d="M193.935 110.978C193.935 110.978 194.88 109.536 196.88 109.648" stroke="#F6CF4C" stroke-width="3" stroke-miterlimit="10" stroke-linecap="round" stroke-linejoin="round"/>
<path d="M161.314 69.3936C161.314 69.3936 154.645 69.3936 153.313 74.3841C151.98 79.3746 150.034 89.0271 149.813 91.3513C149.479 94.8433 144.644 100.833 143.811 106.654C142.977 112.474 145.183 114.904 148.814 116.551C157.065 120.293 159.483 106.156 160.484 102.496C161.486 98.837 165.82 91.3513 168.819 84.8646C171.819 78.3778 168.815 68.5611 161.314 69.3936Z" fill="#A96443"/>
<path d="M148.809 116.549C157.06 120.291 159.478 106.154 160.479 102.493C161.481 98.8349 165.815 91.3491 168.815 84.8624C170.535 81.1409 164.218 92.5304 158.377 102.77C157.047 105.103 147.735 116.063 148.809 116.549Z" fill="#D77D5B"/>
<path d="M151.31 109.873C150.135 106.615 145.047 104.953 140.562 104.651C136.211 104.356 128.012 107.029 116.391 107.241C112.769 107.306 110.637 114.954 116.246 115.8C122.793 116.788 141.868 118.871 143.809 118.954C145.749 119.038 153.43 115.757 151.31 109.873Z" fill="#A76241"/>
<path d="M155.41 109.644C155.207 109.158 154.682 108.53 154.33 108.233C154.064 108.584 151.245 113.111 148.372 114.371C144.204 116.2 138.225 116.81 138.225 116.81C138.225 116.81 116.668 116.493 122.335 116.689C128.952 116.918 147.07 119.67 149.007 119.528C150.942 119.386 158.195 115.244 155.41 109.644Z" fill="#D77D5B"/>
<path d="M118.546 111.322C119.789 109.927 117.802 105.574 118.016 103.697C118.231 101.821 116.129 99.9778 114.764 97.8088C113.4 95.6398 113.343 95.7883 111.35 95.0098C109.356 94.2313 107.638 93.8151 108.278 96.0763C108.919 98.3376 110.845 99.0036 110.845 99.0036C110.845 99.0036 111.823 101.809 112.703 102.797C113.77 103.994 109.737 109.563 111.386 111.86C113.037 114.16 116.589 113.518 118.546 111.322Z" fill="#A76241"/>
<path d="M113.287 102.608C113.287 102.608 108.822 102.313 107.965 102.014C107.11 101.715 105.746 100.815 104.895 100.383C104.469 100.167 102.994 97.2126 102.085 96.9269C101.177 96.6411 100.008 97.7908 99.9115 98.4568C99.7175 99.7911 100.98 102.163 102.099 103.141C103.22 104.12 103.391 104.665 105.944 105.963C108.497 107.263 109.742 108.782 112.929 108.496C116.115 108.211 115.567 103.495 113.287 102.608Z" fill="#A76241"/>
<path d="M100.99 100.597C99.5014 100.498 99.9367 104.845 100.699 105.317C101.121 105.578 103.157 107.205 103.157 107.205L102.499 108.076C102.334 108.463 102.573 109.246 102.891 109.54L104.37 110.915L105.164 114.252C105.164 114.252 106.596 115.622 109.927 115.631C113.971 115.642 115.985 115.849 116.808 113.064C117.631 110.278 102.478 100.696 100.99 100.597Z" fill="#A76241"/>
<path d="M147.829 36.9754C144.521 36.1902 137.232 37.0654 135.811 43.2214C134.846 47.4087 139.663 61.7816 141.923 65.1634C145.134 69.9694 148.436 68.6351 154.27 66.2726C160.341 63.8156 162.923 59.0907 161.981 54.1047C161.038 49.1187 158.158 39.4279 147.829 36.9754Z" fill="#7A462F"/>
<path d="M146.903 45.1948C145.554 51.1528 145.538 54.3523 146.772 57.4798C148.003 60.6073 152.92 66.5203 155.691 64.4323C157.051 63.4085 158.704 62.27 159.559 60.0313C160.032 58.7938 159.099 55.4323 158.012 53.3848C156.181 49.9265 148.247 39.2503 146.903 45.1948Z" fill="#A96443"/>
<path d="M135.708 43.6512C135.708 43.6512 137.591 45.404 147.187 41.2189C147.392 41.129 148.615 49.0512 151.876 51.434C153.066 52.3047 152.444 47.7462 153.939 48.8757C156.422 50.7522 158.249 53.6795 158.249 53.6795L160.211 60.0875C160.211 60.0875 170.025 57.5945 166.913 47.546C163.826 37.5717 159.8 27.0552 144.783 34.8109C136.874 38.8947 135.649 40.5957 135.708 43.6512Z" fill="#273150"/>
<path d="M149.945 37.4726C150.418 39.2096 156.374 42.3259 156.374 42.3259L163.289 47.8451C163.289 47.8451 165.857 58.8702 166.699 50.7926C167.156 46.3871 163.214 35.1281 156.94 33.0784C153.609 31.9894 148.591 32.5091 149.945 37.4726Z" fill="#48598B"/>
<path d="M155.688 55.1282C157.455 54.9363 158.625 52.3814 158.302 49.4216C157.98 46.4618 156.285 44.2179 154.519 44.4098C152.752 44.6017 151.581 47.1566 151.904 50.1164C152.227 53.0762 153.921 55.3201 155.688 55.1282Z" fill="#A96443"/>
<path d="M141.001 53.631C141.513 53.4235 141.646 52.5667 141.3 51.7173C140.953 50.8678 140.258 50.3473 139.747 50.5547C139.236 50.7621 139.103 51.6189 139.449 52.4684C139.795 53.3179 140.49 53.8384 141.001 53.631Z" fill="#102441"/>
<path d="M138.268 48.2231C138.268 48.2231 139.941 47.5166 141.549 48.6214" stroke="#102441" stroke-width="2" stroke-miterlimit="10" stroke-linecap="round" stroke-linejoin="round"/>
<path d="M150.101 38.8497C150.101 38.8497 154.431 42.056 156.124 42.47C156.124 42.47 153.199 43.154 150.101 38.8497Z" fill="#48598B"/>
<path d="M155.657 55.5987C156.45 55.5987 157.093 54.957 157.093 54.1654C157.093 53.3739 156.45 52.7322 155.657 52.7322C154.863 52.7322 154.22 53.3739 154.22 54.1654C154.22 54.957 154.863 55.5987 155.657 55.5987Z" fill="#F3E7D7"/>
<path d="M60.8096 209.717L57.411 208.524L55.1152 126.364H60.8096V209.717Z" fill="#273150"/>
<path d="M60.8096 175.269L56.5225 174.291L55.1152 126.364H60.8096V175.269Z" fill="#102441"/>
<path d="M65.8454 209.152L60.8096 209.717V125.956H67.3271L65.8454 209.152Z" fill="#634874"/>
<path d="M65.8454 209.152L60.8096 209.717V175.269L66.5964 166.101L65.8454 209.152Z" fill="#634874"/>
<path d="M61.1816 127.916L63.0129 139.308L94.5475 141.09L122.431 139.866L123.694 126.492L61.1816 127.916Z" fill="#C83F37"/>
<path d="M61.1816 127.916L62.9881 139.308L94.0716 141.09L93.4559 127.173L61.1816 127.916Z" fill="#972D29"/>
<path d="M93.5073 128.094L93.7306 133.197L123.179 131.808L123.635 126.492L93.5073 128.094Z" fill="#972D29"/>
<path d="M85.9845 218.886L80.475 217.34L75.8135 126.418H84.6472L85.9845 218.886Z" fill="#273150"/>
<path d="M84.9133 174.023L78.3123 173.222L75.8135 126.418H84.6471L84.9133 174.023Z" fill="#102441"/>
<path d="M90.5038 218.4L85.9844 218.883L83.8442 126.795H90.9797L90.5038 218.4Z" fill="#634874"/>
<path d="M90.8009 161.74L84.9126 174.023L85.9838 218.883L90.5032 218.4L90.8009 161.74Z" fill="#634874"/>
<path d="M132.543 216.154L128.452 214.852L124.851 126.604L131.56 126.42L132.543 216.154Z" fill="#273150"/>
<path d="M131.916 159.981L126.132 159.128L124.851 126.604L131.56 126.42L131.916 159.981Z" fill="#102441"/>
<path d="M137.551 215.736L132.542 216.109L131.559 126.42L138.165 126.118L137.551 215.736Z" fill="#634874"/>
<path d="M137.552 215.736L132.543 216.109L131.916 159.981L137.998 152.481L137.552 215.736Z" fill="#634874"/>
<path d="M93.4784 129.34L45.1357 127.929V119.368L93.4784 117.856V129.34Z" fill="#273150"/>
<path d="M93.4785 129.34L152.152 127.633V117.661L93.4785 117.861V129.34Z" fill="#634874"/>
<path d="M120.17 127.817L151.985 126.609L152.183 119.251L128.792 119.58L120.17 127.817Z" fill="#634874"/>
</svg>
