<svg width="75" height="68" viewBox="0 0 75 68" fill="none" xmlns="http://www.w3.org/2000/svg">
<path fill-rule="evenodd" clip-rule="evenodd" d="M60.9333 65.3644V19.6862H70.8V65.3644H60.9333ZM42.4333 65.3644V29.5625H52.3V65.3644H42.4333ZM23.9333 65.3644V39.4389H33.8V65.3644H23.9333ZM5.43333 65.3644V50.5499H15.3V65.3644H5.43333ZM73.2666 65.3644V17.2171H58.4667V65.3644H54.7667V27.0935H39.9667V65.3644H36.2667V36.9698H21.4667V65.3644H17.7667V48.0808H2.96666V65.3644H1.73333C1.05253 65.3644 0.5 65.9163 0.5 66.599C0.5 67.2817 1.05253 67.8335 1.73333 67.8335H2.96666H17.7667H21.4667H36.2667H39.9667H54.7667H58.4667H73.2666C73.9475 67.8335 74.5 67.2817 74.5 66.599C74.5 65.9163 73.9475 65.3644 73.2666 65.3644Z" fill="#FF5100"/>
<path fill-rule="evenodd" clip-rule="evenodd" d="M10.3792 31.1509C10.587 31.1509 10.7998 31.098 10.9928 30.9861L55.5962 5.23417L52.8046 11.3708C52.523 11.9894 52.796 12.7187 53.4146 12.9991C53.5794 13.0753 53.7528 13.1098 53.9237 13.1098C54.3911 13.1098 54.8375 12.8417 55.0441 12.3891L59.4246 2.75982C59.4381 2.72908 59.4357 2.69587 59.4467 2.6639C59.4701 2.59872 59.4886 2.536 59.5009 2.46714C59.507 2.43271 59.5267 2.40441 59.5291 2.36875C59.5304 2.35399 59.5242 2.3417 59.5255 2.32694C59.5279 2.28021 59.523 2.23717 59.5205 2.19043C59.5168 2.12279 59.5058 2.05884 59.491 1.99121C59.4812 1.94448 59.4787 1.89652 59.4627 1.85102C59.448 1.80675 59.4222 1.76985 59.4025 1.7268C59.3865 1.69852 59.3865 1.66531 59.3693 1.6358C59.3521 1.60629 59.3226 1.58907 59.3029 1.56078C59.277 1.52266 59.2574 1.48207 59.2266 1.44764C59.1947 1.41075 59.1541 1.38492 59.1172 1.35172C59.0668 1.30622 59.0163 1.26441 58.9598 1.22751C58.9216 1.20291 58.8872 1.17586 58.8454 1.15495C58.8319 1.1488 58.8245 1.1365 58.811 1.13035C58.7802 1.11682 58.747 1.11928 58.7163 1.10821C58.6486 1.08361 58.5822 1.0664 58.5121 1.0541C58.4801 1.04795 58.4543 1.02949 58.4211 1.02703L47.8916 0.00631009C47.2091 -0.0625609 46.6139 0.436736 46.5487 1.11067C46.4823 1.78706 46.9779 2.38842 47.653 2.45361L54.3628 3.10416L9.76307 28.8561C9.174 29.1955 8.97354 29.9481 9.31297 30.536C9.54048 30.9307 9.95368 31.1509 10.3792 31.1509H10.3792Z" fill="black"/>
</svg>
