<svg width="261" height="201" viewBox="0 0 261 201" fill="none" xmlns="http://www.w3.org/2000/svg">
<path d="M255.865 185.176C249.218 175.643 203.933 141.143 132.732 143.99C72.3427 146.404 30.1061 174.354 23.6606 177.496C17.2152 180.639 19.9017 182.736 38.1634 180.115C56.4251 177.494 65.5548 178.018 65.5548 178.018L64.4802 180.637C64.4802 180.637 49.9347 192.907 48.8622 197.098C47.7876 201.289 53.6958 201.813 60.1412 199.195C66.5866 196.576 113.894 187.449 119.803 186.925C125.711 186.401 136.125 189.752 140.421 190.274C144.717 190.798 173.076 199.667 179.038 200.185C185 200.705 182.011 191.045 174.466 177.387C171.122 171.333 202.035 186.718 209.017 188.291C216 189.863 205.725 180.641 204.651 179.071C203.576 177.501 244.41 187.971 253.005 192.686C261.598 197.406 262.512 194.71 255.865 185.176Z" fill="#F4E8D8"/>
<path d="M95.9642 139.489C95.9642 139.489 43.7715 149.102 22.6585 118.106C1.54548 87.1107 20.9417 42.3562 60.8216 33.725C60.8216 33.725 18.9445 51.213 33.8026 94.3693C48.6607 137.526 95.9642 139.489 95.9642 139.489Z" fill="#F4E8D8"/>
<path d="M218.473 123.96C229.823 112.947 231.375 103.564 237.773 92.5908C244.172 81.6181 250.962 75.6075 250.962 75.6075C250.962 75.6075 246.822 75.6011 236.615 84.8274C227.53 93.0398 218.473 112.064 218.473 112.064C220.52 102.59 219.92 90.6403 219.92 90.6403C208.021 116.749 166.512 135.223 154.781 129.204C154.783 129.204 185.722 155.742 218.473 123.96Z" fill="#F4E8D8"/>
<path d="M192.924 80.6388C194.878 80.6388 229.681 64.4804 231.239 48.8591C232.412 37.0894 230.066 19.4338 201.525 10.4094C169.146 0.171339 155.782 5.30971 143.272 8.83912C143.272 8.83912 178.068 3.73941 199.57 19.0407C235.518 44.623 192.924 80.6388 192.924 80.6388Z" fill="#F4E8D8"/>
<path d="M176.893 39.4437C176.893 39.4437 153.826 17.8655 131.15 21.3971C115.305 23.8653 74.0683 34.0196 67.8134 59.0605C63.53 76.2157 82.6693 82.9931 82.6693 82.9931C82.6693 82.9931 70.5491 76.3231 76.4144 59.8446C82.2797 43.3662 118.638 25.7105 141.706 27.2808C164.773 28.8511 176.893 39.4437 176.893 39.4437Z" fill="#F4E8D8"/>
<path d="M60.3854 61.0219C60.3854 61.0219 41.2289 78.2843 52.9574 88.4859C64.6859 98.6874 88.9263 90.0562 88.9263 90.0562C88.9263 90.0562 71.7243 91.6265 63.9046 81.8181C56.0849 72.0075 60.3854 61.0219 60.3854 61.0219Z" fill="#F4E8D8"/>
<path d="M22.6583 118.106C22.6583 118.106 -5.49089 105.748 0.960942 81.6202C7.41278 57.4922 18.5547 68.6733 18.5547 68.6733C18.5547 68.6733 16.2086 46.3111 28.5236 39.248C40.8386 32.1849 45.5308 36.6982 45.5308 36.6982C45.5308 36.6982 51.3962 30.4213 54.3267 31.5985C55.6303 32.1226 55.8122 33.1086 55.6153 34.0452C55.3499 35.2997 47.6971 39.3705 46.507 39.8366C43.0648 41.1878 40.1129 42.3671 33.0189 49.6451C22.624 60.3085 19.0899 75.5947 19.7256 88.6833C20.8987 112.809 22.6583 118.106 22.6583 118.106Z" fill="#F4E8D8"/>
<path d="M58.0411 66.1216C58.0411 66.1216 63.5147 56.7063 56.4763 55.136C49.4379 53.5657 49.0483 68.476 49.0483 68.476C49.0483 68.476 46.7021 64.9444 43.1829 71.2213C39.6637 77.4982 47.4835 86.9157 52.9571 88.4839C58.4328 90.0542 55.6949 71.2235 58.0411 66.1216Z" fill="#F4E8D8"/>
<path d="M222.34 58.6673C222.34 58.6673 233.923 57.3183 239.641 44.249C244.92 32.185 239.641 24.239 233.482 22.4753C227.324 20.7096 222.34 23.3582 222.34 23.3582C222.34 23.3582 227.619 8.05697 214.424 6.2912C201.23 4.52542 201.523 10.4113 201.523 10.4113C201.523 10.4113 197.124 3.93683 190.967 1.29031C184.809 -1.35836 185.102 7.17623 185.102 7.17623C185.102 7.17623 179.237 0.701714 171.027 2.46749C162.818 4.23327 163.032 6.23964 166.845 6.53394C170.657 6.82823 193.555 6.86905 208.51 22.1703C223.464 37.4716 222.34 58.6673 222.34 58.6673Z" fill="#F4E8D8"/>
<path d="M97.917 32.7736C97.917 32.7736 110.917 16.2952 128.802 13.9408C143.11 12.0569 135.926 22.1123 137.99 21.0039C143.463 18.0609 150.322 15.4681 153.042 17.0814C157.343 19.6312 153.629 22.7697 153.629 22.7697C153.629 22.7697 165.944 29.6352 167.704 33.3622C167.898 34.3439 157.512 25.5601 144.05 24.5355C128.607 23.3583 97.917 32.7736 97.917 32.7736Z" fill="#F4E8D8"/>
<path d="M63.0305 107.828C63.0305 107.828 62.3434 105.321 61.5578 103.525C60.8064 101.807 60.2306 102.999 59.8646 104.694C59.4814 106.47 59.6612 109.17 59.6548 109.815C59.6484 110.462 62.9192 110.094 63.0305 107.828Z" fill="#1D2538"/>
<path d="M69.9747 129.082C71.8542 128.349 75.8807 123.425 75.0779 120.019C74.2752 116.612 73.4746 111.561 72.4236 109.673C72.4236 109.673 72.2587 106.094 71.9184 104.172C71.5802 102.251 71.075 102.165 70.4028 103.093C69.7307 104.021 68.8402 107.183 68.8402 107.183C68.8402 107.183 64.3598 105.383 60.7507 106.949C57.1416 108.515 56.0392 110.971 55.7417 113.065L55.6325 113.217C55.6325 113.217 51.6788 114.197 49.8186 114.966C47.9584 115.735 47.3954 116.693 48.2388 118.7C49.0822 120.706 49.2235 121.709 50.3666 122.446C51.5097 123.183 56.5573 124.79 59.1474 125.172C59.1474 125.172 60.2477 129.857 61.1296 131.107C62.0116 132.36 68.0974 129.816 69.9747 129.082Z" fill="#273150"/>
<path d="M70.5475 123.297C70.5475 123.297 75.8797 123.425 75.0792 120.018C74.2786 116.612 73.4758 111.561 72.4248 109.673C72.4248 109.673 72.2599 106.094 71.9196 104.172C71.5814 102.251 71.0762 102.165 70.404 103.093C69.7319 104.021 68.8414 107.183 68.8414 107.183C68.8414 107.183 64.361 105.383 60.752 106.949C60.752 106.949 64.9369 107.057 66.5638 108.623C68.1906 110.189 70.2135 116.601 70.2135 116.601C70.2135 116.601 65.6283 122.203 65.9044 122.596C66.7842 123.849 70.5475 123.297 70.5475 123.297Z" fill="#1D2538"/>
<path d="M62.133 107.884C62.133 107.884 61.6107 105.435 61.2339 103.809C60.8101 101.981 59.926 103.031 59.5599 104.726C59.1768 106.502 58.9713 108.326 58.9648 108.973C58.9606 109.619 62.2593 109.465 62.133 107.884Z" fill="#273150"/>
<path d="M61.4097 112.019C61.6896 111.217 61.4842 110.415 60.9509 110.228C60.4177 110.04 59.7584 110.538 59.4785 111.34C59.1986 112.141 59.404 112.943 59.9373 113.131C60.4705 113.318 61.1298 112.821 61.4097 112.019Z" fill="#121721"/>
<path d="M47.8526 116.901C47.7178 118.01 48.2786 118.519 48.559 119.144C48.9422 119.997 51.2776 118.401 51.4146 117.292C51.5495 116.184 51.5623 114.624 50.2437 114.869C49.3254 115.041 47.9875 115.793 47.8526 116.901Z" fill="#121721"/>
<path d="M64.6836 123.698C64.6836 123.698 59.6039 126.317 59.2849 125.118C56.7419 124.772 52.6426 123.44 52.6426 123.44L59.5161 123.436L64.6836 123.698Z" fill="#1D2538"/>
<path d="M88.7841 126.978C88.5893 126.343 88.0007 122.875 87.2472 121.642C86.4958 120.409 84.5992 117.576 82.3301 117.658C82.3301 117.658 83.6337 116.014 87.7138 118.014C91.7939 120.012 92.3654 126.001 92.4104 126.508C92.6073 128.772 89.3386 128.791 88.7841 126.978Z" fill="#1D2538"/>
<path d="M60.4928 157.628C60.8567 156.56 62.2866 155.426 62.2866 155.426C62.4236 155.186 62.8988 154.702 62.9352 154.472C63.2199 152.715 63.9969 147.921 64.0419 147.154C64.1382 145.56 63.434 140.812 63.5645 137.163C63.6951 133.513 69.2244 136.383 69.4791 139.908C69.661 142.421 67.9186 152.707 67.7366 153.712L66.3859 156.999C65.8871 157.699 64.5021 158.197 63.0786 158.266C61.6572 158.33 60.1374 158.672 60.4928 157.628Z" fill="#1D2538"/>
<path d="M84.833 137.433C83.4544 136.976 81.3117 138.168 81.2881 140.129C81.2689 141.798 88.8317 148.395 88.8317 148.395L89.2555 149.74C89.2555 149.74 88.1895 150.975 88.6454 151.639C88.7525 151.796 90.2102 151.538 91.3854 151.302C92.246 151.128 92.8582 150.715 92.856 150.301L92.8518 149.779L93.297 147.798L88.091 142.361C88.0932 142.363 86.7167 138.061 84.833 137.433Z" fill="#1D2538"/>
<path d="M65.5212 123.756C65.5212 123.756 71.2281 119.662 76.2393 121.913C80.7196 123.926 82.7618 124.265 87.758 124.34C90.8961 124.388 93.0517 135.468 92.401 137.625C91.2236 141.655 77.3631 142.011 75.5864 142.071C70.3504 142.25 65.9729 139.56 63.813 138.533C61.8757 137.612 59.0223 132.271 61.4455 128.205C62.3702 126.654 63.4362 124.974 65.5212 123.756Z" fill="#273150"/>
<path d="M66.9436 124.171C70.2037 121.561 71.2248 119.664 76.2382 121.913C80.7185 123.926 84.1092 124.332 89.1033 124.484C94.7567 124.658 93.9968 134.192 92.3357 138.278C91.0748 141.38 77.362 142.011 75.5874 142.071C75.5874 142.071 80.3824 138.957 80.1469 136.742C79.9136 134.527 74.4122 131.273 74.4122 131.273C71.7621 128.572 65.7876 125.097 66.9436 124.171Z" fill="#1D2538"/>
<path d="M69.9512 157.274C69.9448 156.309 72.3123 153.978 72.2974 153.742C72.0555 149.755 71.0579 145.981 70.8995 145.072C70.5763 143.208 68.4742 140.048 67.7507 136.018C67.0528 132.134 73.9499 134.039 74.8533 138.516C75.3734 141.098 76.6578 149.972 76.9875 152.395C77.0346 152.737 77.0132 153.083 76.9254 153.418L75.549 156.361C75.3884 157.205 74.057 157.931 72.4279 158.028C70.7989 158.124 69.9619 158.586 69.9512 157.274Z" fill="#273150"/>
<path d="M92.4703 133.436C90.7492 131.861 86.9218 133.93 86.224 134.57C85.4919 135.242 88.69 139.468 88.8505 140.058C89.0175 140.675 96.1029 144.595 97.5414 145.742C99.0977 146.984 97.7962 148.69 98.7252 149.222C99.1961 149.493 103.124 148.666 102.874 147.119C102.638 145.659 101.093 143.358 101.054 143.242C100.979 143.016 94.8956 138.28 94.7501 137.985C94.6109 137.698 92.9798 133.904 92.4703 133.436Z" fill="#1D2538"/>
<path d="M75.2744 120.184C75.2744 120.184 76.3083 121.286 76.5695 122.257C76.5695 122.257 73.4206 124.54 67.7437 127.255C64.7018 128.71 60.0032 130.046 60.0032 130.046L59.3203 127.487C59.3225 127.485 68.921 124.957 75.2744 120.184Z" fill="#992C29"/>
<path d="M59.3572 127.513C59.3572 127.513 57.7068 130.909 57.9723 132.617L62.2299 133.985C62.2299 133.985 60.5774 129.015 59.3572 127.513Z" fill="#C93F37"/>
<path d="M59.3564 127.513C60.6151 128.77 62.2292 133.985 62.2292 133.985C62.2292 133.985 60.0093 132.211 59.7824 131.528C59.5555 130.845 59.3564 127.513 59.3564 127.513Z" fill="#992C29"/>
<path d="M60.0234 129.204C60.0234 129.204 63.0695 131.887 64.431 132.222L64.7842 129.954C64.7863 129.954 62.5793 128.835 60.0234 129.204Z" fill="#992C29"/>
<path d="M131.151 88.6768L111.211 87.4996C105.555 86.7413 105.613 78.9779 105.74 73.1993L105.999 53.0991C106.114 47.4882 109.295 43.6559 114.946 43.6559H131.344C137.684 43.6559 141.509 47.4624 141.509 53.6555L143.074 79.1282C143.074 85.5834 137.673 89.5661 131.151 88.6768Z" fill="#634874"/>
<path d="M110.388 49.701C112.231 45.4326 107.138 41.5445 102.285 39.8668C95.3967 37.4866 94.5811 36.2171 91.7577 34.7434C88.2898 32.9325 85.3486 32.2666 83.2465 33.8541C81.1466 35.4416 80.6906 38.1912 81.9343 39.3899C84.8691 42.2233 86.2691 42.8548 90.0045 45.5336C96.8459 50.4378 100.5 51.5033 102.711 52.9876C106.417 55.4773 108.183 54.8071 110.388 49.701Z" fill="#A86243"/>
<path d="M111.829 50.3561C113.672 46.0877 86.2673 42.8547 90.0027 45.5313C96.8442 50.4356 100.498 51.501 102.709 52.9854C106.417 55.4772 109.626 55.4622 111.829 50.3561Z" fill="#D77E5B"/>
<path d="M87.3584 28.5545C85.8686 30.7134 83.4946 34.4254 85.5047 36.4446C86.9539 37.8989 86.3309 39.3575 88.4737 38.3135C90.8819 37.1385 92.3718 31.6457 92.436 31.5146C93.5684 29.214 88.8654 26.3741 87.3584 28.5545Z" fill="#7A4630"/>
<path d="M96.0303 16.3637C96.0303 16.3637 86.2904 23.6975 83.7324 26.5696C81.2021 29.4116 78.9995 32.8787 80.4658 36.784C81.3563 39.1556 82.3795 40.7602 85.5476 39.7291C89.1845 38.5455 91.9845 33.3835 93.4508 30.0968C95.418 25.6953 97.944 23.4741 99.436 21.9381C101.35 19.9683 101.202 13.7472 96.0303 16.3637Z" fill="#A86243"/>
<path d="M109.764 14.8451L109.937 17.8052L108.03 18.3272L106.525 15.7881L109.764 14.8451Z" fill="#273150"/>
<path d="M94.2598 20.0906L96.4903 16.5161C96.4903 16.5161 101.187 14.7525 103.895 14.5527C106.603 14.3529 108.14 15.6311 108.14 15.6311L108.369 20.8704C108.394 21.4611 108.005 21.9982 107.472 22.1099L106.639 22.2839L105.357 22.2216L105.308 22.924C105.284 23.2763 105.059 23.5835 104.749 23.6909L103.068 24.2688L100.568 24.8165C100.568 24.8165 98.6823 24.3375 98.8814 23.0744C99.0804 21.8113 95.4007 24.2258 94.2598 20.0906Z" fill="#A86243"/>
<path d="M91.4336 19.8955L93.2724 23.0296L97.8962 21.5324C98.2965 21.4035 98.5148 20.8514 98.3586 20.3616C98.1809 19.8031 97.695 19.5174 97.2455 19.7043L94.0901 20.5893L93.4779 19.1952L91.4336 19.8955Z" fill="#273150"/>
<path d="M88.0439 8.70359C83.3516 10.4694 63.2169 16.5508 63.2169 16.5508C63.0863 17.5325 63.3475 21.6505 64.0646 22.108C64.0646 22.108 66.9973 26.0306 84.7195 22.2391C105.411 17.8117 126.629 9.07092 126.629 9.07092L126.29 3.40625C126.293 3.4084 92.734 6.93781 88.0439 8.70359Z" fill="#B44C29"/>
<path d="M86.6756 5.50056C81.9405 7.14604 65.8238 12.2694 63.4777 15.8654C61.6453 18.6752 67.9088 21.2594 90.5844 15.9642C113.26 10.669 122.253 5.92589 125.575 4.35774C128.897 2.78745 121.176 0.761743 106.875 0.00989146C103.599 -0.164109 96.8414 1.969 86.6756 5.50056Z" fill="#F08650"/>
<path d="M64.1299 18.1853L71.6884 15.5688L65.1724 19.1004L64.1299 18.1853Z" fill="#B44C29"/>
<path d="M107.053 0.220337L94.3955 4.38989C94.3976 4.38774 107.027 0.772411 107.053 0.220337Z" fill="#B44C29"/>
<path d="M81.1043 14.2951C83.1572 13.3134 74.5134 15.9836 70.1572 17.8267C70.1572 17.8267 79.0515 15.2747 81.1043 14.2951Z" fill="#B44C29"/>
<path d="M117.366 8.11467L116.388 6.9375L119.71 7.42942L117.366 8.11467Z" fill="#B44C29"/>
<path d="M82.5723 18.2174L84.0386 16.6493L85.7961 17.9231L82.5723 18.2174Z" fill="#B44C29"/>
<path d="M99.2737 6.86682C99.8324 7.68741 98.5266 8.99134 95.6325 10.0053C91.4775 11.4596 85.9204 11.7603 85.2504 10.0762C84.6189 8.48652 89.0864 6.62408 93.3548 6.0763C96.4031 5.68319 98.73 6.06985 99.2737 6.86682Z" fill="#B44C29"/>
<path d="M99.0076 6.1792C99.4764 6.77638 98.1342 7.89342 95.3021 8.9052C91.2371 10.3573 85.9262 11.0211 85.4188 9.76016C84.9393 8.57009 89.3319 6.77424 93.4355 6.01809C96.366 5.4789 98.5516 5.5992 99.0076 6.1792Z" fill="#F08650"/>
<path d="M131.854 44.1288C132.687 41.2009 137.185 42.9581 139.43 44.3737C143.003 46.6228 142.628 48.294 145.049 49.5615C149.422 51.8514 161.523 60.2377 158.22 64.055C154.92 67.8722 149.377 64.4782 145.053 61.7737C141.958 59.8382 136.465 55.6923 133.374 52.6569C132.088 51.3938 131.022 47.0567 131.854 44.1288Z" fill="#A86243"/>
<path d="M157.463 69.6553C159.056 67.0367 160.691 64.678 158.529 62.0551C155.143 57.95 152.486 60.197 150.211 63.0089C147.974 65.7757 147.985 66.6994 145.942 69.4834C143.885 72.2868 139.927 76.3145 139.927 76.3145C139.927 76.3145 136.577 79.3219 138.174 81.5797C139.859 83.9641 141.049 83.9899 142.913 82.9695C145.634 81.483 156.265 71.6273 157.463 69.6553Z" fill="#A86243"/>
<path d="M104.62 141.59C104.57 141.607 104.521 141.631 104.474 141.657C103.765 142.048 97.9793 145.188 97.3071 146.03C96.757 146.72 97.108 149.261 97.3007 150.404C97.3606 150.758 97.6068 151.048 97.945 151.167C99.315 151.641 102.924 152.904 106.424 152.55C110.812 152.105 110.677 150.447 113.944 148.879C116.08 147.854 117.382 147.193 118.028 146.86C118.339 146.698 118.474 146.387 118.491 146.037L118.671 142.196C118.692 141.715 118.427 141.287 117.956 141.193C115.779 140.746 109.646 139.771 104.62 141.59Z" fill="#29ACE4"/>
<path d="M104.545 141.619C104.545 141.619 97.896 145.262 97.181 146.158C96.466 147.054 97.1446 150.143 97.1446 150.143C97.1446 150.143 101.903 152.042 106.291 151.597C110.68 151.152 110.678 149.685 113.944 148.117C116.474 146.903 117.834 146.201 118.318 145.945C118.448 145.876 118.532 145.745 118.538 145.599L118.737 141.947C118.756 141.612 118.529 141.314 118.204 141.245C116.28 140.83 109.794 139.685 104.545 141.619Z" fill="#13161F"/>
<path d="M101.305 143.347C101.305 143.347 104.627 142.17 107.885 143.674" stroke="#29ACE4" stroke-width="2" stroke-miterlimit="10" stroke-linecap="round" stroke-linejoin="round"/>
<path d="M103.713 141.908C103.713 141.908 107.035 140.731 110.293 142.235" stroke="#29ACE4" stroke-width="2" stroke-miterlimit="10" stroke-linecap="round" stroke-linejoin="round"/>
<path d="M140.033 141.734C143.718 143.027 149.061 144.284 149.311 145.938C149.561 147.579 149.735 149.31 149.591 149.925C149.482 150.389 149.285 150.666 148.93 150.818C148.024 151.207 146.218 152.14 142.564 152.505C140.986 152.664 137.523 151.813 135.41 150.243C133.731 148.995 131.717 147.543 130.961 146.999C130.765 146.857 130.634 146.642 130.6 146.402L130.324 144.542C130.268 144.161 130.458 143.785 130.801 143.611C132.404 142.795 137.028 140.679 140.033 141.734Z" fill="#29ACE4"/>
<path d="M141.521 140.971C144.738 142.189 149.141 144.03 149.392 145.856C149.616 147.502 149.717 148.406 149.672 149.036C149.651 149.343 148.91 149.489 148.548 149.641C147.628 150.03 145.789 150.965 142.075 151.334C140.47 151.493 137.319 151.018 135.174 149.45C133.386 148.144 131.226 146.615 130.554 146.14C130.419 146.045 130.329 145.899 130.302 145.736L130.032 144.131C129.916 143.44 130.308 142.765 130.965 142.529C133.354 141.663 138.659 139.889 141.521 140.971Z" fill="#13161F"/>
<path d="M139.488 144.458C139.488 144.458 142.485 141.713 145.873 142.759" stroke="#29ACE4" stroke-width="2" stroke-miterlimit="10" stroke-linecap="round" stroke-linejoin="round"/>
<path d="M137.402 143.15C137.402 143.15 140.53 140.664 143.918 141.71" stroke="#29ACE4" stroke-width="2" stroke-miterlimit="10" stroke-linecap="round" stroke-linejoin="round"/>
<path d="M138.967 86.9155C138.967 86.9155 139.932 99.7464 141.703 110.064C142.657 115.628 143.552 125.589 144.117 132.843C144.498 137.732 144.811 141.42 144.584 141.588C144.025 142.005 141.326 141.195 136.394 142.434C131.526 143.659 129.523 144.366 129.523 144.366L128.758 142.007C128.758 142.007 128.3 140.909 128.9 136.383C129.077 135.045 127.551 132.967 127.333 131.262C125.941 120.332 123.929 103.635 122.934 92.4083C121.416 75.2575 135.782 72.5487 138.967 86.9155Z" fill="#F6BE4A"/>
<path opacity="0.5" d="M138.966 86.9155C138.966 86.9155 139.931 99.7464 141.701 110.064C142.791 116.414 143.647 127.256 144.381 134.802C144.536 136.385 145.111 136.518 145.218 137.743C145.347 139.219 145.131 141.339 144.495 141.674C143.806 142.037 141.327 141.195 136.395 142.434C131.527 143.659 129.523 144.366 129.523 144.366L128.759 142.007C128.519 140.888 128.483 140.331 128.9 136.383C129.042 135.06 127.539 132.873 127.333 131.262C125.942 120.291 123.902 103.327 122.934 92.4083C121.415 75.2575 135.78 72.5487 138.966 86.9155Z" fill="#F6BE4A"/>
<path d="M106.436 86.1849C106.436 86.1849 105.738 100.818 105.368 109.537C105.1 115.808 104.263 141.566 104.263 141.566C104.263 141.566 105.363 141.141 110.032 141.287L116.732 144.275C116.732 144.275 118.235 144.683 118.631 144.456C119.027 144.23 120.102 143.171 120.207 140.597C120.541 132.415 120.603 114.583 120.481 113.262C120.369 112.07 120.483 98.294 121.378 88.0817C121.769 83.6071 119.714 79.8608 113.819 78.3334C108.159 76.8684 106.584 81.6803 106.436 86.1849Z" fill="#F6BE4A"/>
<path d="M141.703 110.064C142.782 116.354 143.634 127.045 144.362 134.583C144.415 135.126 145.111 136.499 145.162 137.006C145.453 139.887 144.937 141.704 144.372 141.822C143.805 141.938 141.328 141.195 136.396 142.434C131.529 143.659 129.525 144.366 129.525 144.366L128.761 142.007C128.761 142.007 133.641 135.01 136.229 130.465C137.011 129.092 140.023 125.015 140.823 119.578C141.572 114.491 141.268 107.538 141.703 110.064Z" fill="#F6BE4A"/>
<path d="M122.482 93.9785C131.155 93.9785 138.185 88.8187 138.185 82.4537C138.185 76.0887 131.155 70.9289 122.482 70.9289C113.809 70.9289 106.778 76.0887 106.778 82.4537C106.778 88.8187 113.809 93.9785 122.482 93.9785Z" fill="#F6BE4A"/>
<path opacity="0.5" d="M122.482 93.9785C131.155 93.9785 138.185 88.8187 138.185 82.4537C138.185 76.0887 131.155 70.9289 122.482 70.9289C113.809 70.9289 106.778 76.0887 106.778 82.4537C106.778 88.8187 113.809 93.9785 122.482 93.9785Z" fill="#F6BE4A"/>
<path d="M120.135 82.3054C120.543 79.8845 118.782 81.4032 117.414 82.2066C116.403 82.8016 115.603 83.2485 116.545 83.9316C118.06 85.0314 119.869 83.88 120.135 82.3054Z" stroke="#FEED7F" stroke-width="3" stroke-miterlimit="10"/>
<path d="M120.395 82.0112C120.395 82.0112 122.349 84.2667 124.109 84.561C125.869 84.8553 125.575 82.2066 124.402 81.7169C123.229 81.2271 121.08 81.2271 120.395 82.0112Z" stroke="#FEED7F" stroke-width="3" stroke-miterlimit="10"/>
<path d="M120.495 81.8154C120.495 81.8154 122.937 84.2192 123.036 87.5531" stroke="#FEED7F" stroke-width="3" stroke-miterlimit="10"/>
<path d="M120.103 86.6702C120.103 86.6702 120.347 82.9926 120.495 81.8154" stroke="#FEED7F" stroke-width="3" stroke-miterlimit="10"/>
<path d="M137.239 127.997C139.453 125.7 141.469 120.223 141.311 117.518C141.311 117.518 132.992 129.558 132.71 130.072C131.922 131.509 137.154 128.087 137.239 127.997Z" fill="#F6BE4A"/>
<path d="M110.993 42.5134C110.993 42.5134 109.548 42.8507 109.112 47.4177C108.917 49.452 107.247 58.8544 107.367 65.3525C107.508 72.9699 106.86 83.2681 106.86 83.2681C106.86 83.2681 112.151 81.7021 119.958 81.1006C127.767 80.4991 137.235 83.7557 137.235 83.7557C140.258 84.2562 137.064 75.0751 136.371 71.5779C135.559 67.4857 136.704 60.0831 136.032 54.5645C135.02 46.2662 133.605 44.5993 133.436 43.9183C133.065 42.4232 128.277 42.3781 125.049 41.9141C120.327 41.2396 114.466 42.0108 110.993 42.5134Z" fill="#29ACE4"/>
<path d="M107.106 53.5911C107.106 53.5911 121.767 49.529 133.202 52.8801L133.788 55.9262C133.788 55.9262 120.399 51.052 106.714 56.5362L107.106 53.5911Z" fill="#3D4C6D"/>
<path d="M106.615 57.2474C106.615 57.2474 121.764 53.0843 133.2 56.4354L133.786 59.4815C133.786 59.4815 120.493 54.9124 106.81 60.3945L106.615 57.2474Z" fill="#3D4C6D"/>
<path opacity="0.5" d="M110.991 42.5131C110.991 42.5131 109.546 42.8504 109.11 47.4173C108.915 49.4516 107.245 58.8541 107.365 65.3522C114.654 54.1303 132.179 80.8511 138.186 81.3753C139.847 81.5192 136.281 75.1241 136.101 68.9203C135.891 61.6703 136.981 55.3161 136.981 55.3161C135.968 47.0178 133.605 44.6033 133.436 43.9202C133.065 42.425 128.277 42.3799 125.049 41.9159C120.324 41.2393 114.463 42.0105 110.991 42.5131Z" fill="#29ACE4"/>
<path d="M128.215 42.2705C128.436 42.2576 128.215 42.7796 128.215 42.7796C126.668 44.1888 123.042 46.3821 119.816 46.3821C116.633 46.3821 113.952 46.1801 113.261 44.1308C112.964 43.2479 114.37 42.0857 114.37 42.0857C114.37 42.0857 116.898 41.6518 119.811 41.5616C122.654 41.4713 127.995 42.2834 128.215 42.2705Z" fill="#7A4630"/>
<path d="M119.704 43.5121C117.146 43.4305 117.225 41.4477 117.244 40.204L117.497 36.144C117.512 35.1558 118.541 34.3374 120.134 34.3846L122.885 34.4276C124.43 34.4749 125.188 35.3277 125.329 36.2858C125.329 36.2858 125.783 40.5649 125.625 41.8989C125.462 43.2522 122.264 43.5916 119.704 43.5121Z" fill="#7A4630"/>
<path d="M137.819 51.83C137.819 51.83 138.532 60.8329 137.301 59.6858C132.814 55.5012 133.505 47.6819 133.85 45.5917C134.195 43.5016 135.177 42.7003 136.524 43.609C138.596 45.001 137.819 51.83 137.819 51.83Z" fill="#A86243"/>
<path d="M109.409 41.304C110.595 41.3405 112.164 41.6992 111.884 42.32C111.036 44.1997 109.703 48.8697 109.005 52.7686C108.187 57.3356 107.453 61.4923 107.1 64.6393C106.937 66.0914 105.672 67.2407 104.546 66.4287C104.227 66.1988 103.987 65.8766 103.912 65.4277C103.619 63.6297 102.6 55.7975 106.802 42.9602C107.322 41.3749 108.161 41.2653 109.409 41.304Z" fill="#634874"/>
<path d="M135.552 42.3221C134.771 41.712 131.51 41.044 130.301 41.4177C129.092 41.7915 129.445 47.1404 130.952 53.1853C132.41 59.0283 134.664 66.6026 135.867 67.9388C136.104 68.2008 136.438 68.3362 136.783 68.3125C137.506 68.261 138.658 68.0075 138.598 66.9098C138.512 65.318 137.243 58.2893 136.261 50.6483C135.426 44.1351 136.31 42.9128 135.552 42.3221Z" fill="#634874"/>
<path d="M139.608 84.9605C140.271 85.171 141.005 85.0013 141.493 84.503C142.652 83.3236 143.129 81.5557 142.971 79.661C142.776 77.3067 139.942 76.4238 138.116 76.0328C136.671 75.7213 135.472 75.412 135.035 75.296C134.924 75.2659 134.804 75.2917 134.714 75.3648L129.527 79.5794C129.437 79.6524 129.388 79.7641 129.395 79.8801L129.497 81.8371C129.508 82.0304 129.666 82.1808 129.859 82.1808C130.176 82.1808 130.339 82.5589 130.125 82.7909L130.007 82.9176C129.906 83.025 129.883 83.184 129.943 83.3172L130.459 84.4364C130.548 84.6297 130.782 84.7049 130.966 84.5996L131.295 84.4106C131.437 84.3289 131.614 84.3526 131.73 84.4686L132.659 85.4009C132.766 85.5083 132.929 85.5384 133.066 85.4739L134.179 84.9584C134.361 84.8746 134.573 84.9541 134.658 85.1367C134.776 85.3858 134.982 85.7081 135.313 85.8735C135.823 86.1291 137.981 85.0271 138.537 84.735C138.623 84.6898 138.721 84.6812 138.813 84.7113L139.608 84.9605Z" fill="#A86243"/>
<path d="M134.559 75.4938L129.53 79.5774C129.44 79.6504 129.391 79.7621 129.398 79.8781L129.5 81.8351C129.511 82.0284 129.669 82.1788 129.862 82.1788C130.179 82.1788 130.342 82.5569 130.127 82.7889L130.01 82.9156C129.909 83.023 129.886 83.182 129.946 83.3152L130.461 84.4344C130.551 84.6277 130.785 84.7029 130.969 84.5976L131.298 84.4086C131.44 84.3269 131.617 84.3506 131.733 84.4666L132.662 85.3989C132.769 85.5063 132.932 85.5364 133.069 85.4719L134.182 84.9564C134.364 84.8726 134.576 84.9521 134.661 85.1347C134.779 85.3838 134.985 85.7061 135.316 85.8715C135.802 86.1164 137.791 85.1218 138.454 84.7759C138.585 84.7072 138.662 84.5654 138.647 84.4172L138.474 82.6643C138.42 82.1208 138.174 81.6117 137.78 81.2336L137.117 80.5956C136.684 80.181 136.432 79.6139 136.412 79.0146L136.38 78.078C136.365 77.6355 136.224 77.2058 135.971 76.8428L135.081 75.5625C134.961 75.3949 134.721 75.3606 134.559 75.4938Z" fill="#D77E5B"/>
<path d="M130.007 28.4989C129.725 36.099 128.145 38.4835 123.106 38.5694C119.296 38.6338 116.205 34.0604 116.205 28.4989C116.205 22.9373 119.296 18.4283 123.106 18.4283C126.916 18.4283 130.26 21.657 130.007 28.4989Z" fill="#273150"/>
<path d="M127.882 26.7761C127.845 21.7902 127.304 18.9375 121.809 18.5315C118.94 18.321 116.117 18.5831 114.454 19.4466C112.951 20.2285 112.043 21.4444 111.519 24.716C111.123 27.1799 110.566 31.4419 111.388 35.5685C111.915 38.2128 115.295 39.2139 118.275 39.4201C125.968 39.9528 127.15 37.9014 127.629 34.2624C128.276 29.3367 127.895 28.8233 127.882 26.7761Z" fill="#7A4630"/>
<path d="M126.886 29.7942C126.839 25.4721 125.068 23.5947 120.121 23.2273C117.54 23.0361 112.454 24.3701 112.216 27.2315C111.961 30.3291 111.591 33.0272 112.139 35.7081C112.61 38.013 115.074 38.8207 117.758 39.0098C124.685 39.4953 126.263 37.1409 126.672 33.9874C127.021 31.3022 126.905 31.5686 126.886 29.7942Z" fill="#A96344"/>
<path d="M113.273 19.3734C112.812 19.6526 112.635 19.9297 112.309 21.7127C112.241 22.0886 112.93 20.6365 113.551 20.0694C114.172 19.5023 114.028 20.2627 117.278 20.1832C120.527 20.1037 125.134 19.5431 125.134 19.5431L125.586 24.0499L127.264 27.9638L128.276 25.8028C128.428 21.9662 127.739 19.7321 125.228 18.8858C120.632 17.3348 114.962 18.3466 113.273 19.3734Z" fill="#273150"/>
<path d="M121.421 23.3152C121.363 24.0757 121.006 24.6622 120.62 24.6321C120.235 24.602 119.965 23.9683 120.015 23.2078C120.064 22.4388 120.423 21.8309 120.817 21.8609C121.209 21.891 121.479 22.5462 121.421 23.3152Z" fill="#102342"/>
<path d="M119.854 21.8008L121.791 21.1843" stroke="#273150" stroke-miterlimit="10" stroke-linecap="round" stroke-linejoin="round"/>
<path d="M115.987 23.5063C115.961 24.2238 115.648 24.7759 115.289 24.7479C114.927 24.72 114.649 24.1228 114.666 23.4054C114.683 22.6814 114.995 22.11 115.364 22.1379C115.734 22.1659 116.012 22.7824 115.987 23.5063Z" fill="#102342"/>
<path d="M115.796 21.8007L114.056 21.3024" stroke="#273150" stroke-miterlimit="10" stroke-linecap="round" stroke-linejoin="round"/>
<path d="M130.341 30.0389C129.836 32.0946 128.384 33.5382 127.085 33.3277C127.085 33.3277 127.126 28.6662 127.106 27.7769C127.094 27.2184 127.415 25.4955 128.8 25.7232C130.18 25.9488 130.863 27.9122 130.341 30.0389Z" fill="#7A4630"/>
<path d="M129.609 31.5062C129.536 32.0024 129.067 32.3654 128.562 32.3246C128.057 32.2838 127.697 31.852 127.764 31.3558C127.828 30.8553 128.299 30.4815 128.813 30.5223C129.324 30.5653 129.682 31.0078 129.609 31.5062Z" fill="#E2D6C9"/>
<path d="M150.125 71.7583C150.125 71.7583 144.572 71.8507 141.984 70.8432C139.396 69.8379 140.126 59.1358 145.272 57.7266C151.153 56.1155 158.219 59.5568 162.127 62.3236C166.036 65.0905 164.448 69.2278 158.792 71.1783C153.053 73.1567 150.125 71.7583 150.125 71.7583Z" fill="#1689CB"/>
<path d="M162.225 66.7296C162.225 69.4792 151.832 69.6189 148.662 69.6189C145.494 69.6189 142.925 67.3891 142.925 64.6395C142.925 61.8898 145.494 59.66 148.662 59.66C151.83 59.6579 162.225 63.98 162.225 66.7296Z" fill="#992C29"/>
<path d="M160.112 68.4632C160.112 68.4632 174.219 73.2815 182.43 85.3133C189.46 95.6158 199.371 88.9759 205.237 91.7212C211.102 94.4665 176.126 101.164 170.083 102.806C162.85 104.767 141.446 80.5272 145.453 73.8594C150.295 65.7974 160.112 68.4632 160.112 68.4632Z" fill="#1689CB"/>
<path d="M163.532 71.6146C163.603 71.9475 171.198 75.2234 176.01 82.7312C186.24 98.6855 198.947 88.3551 204.81 91.1004C210.673 93.8457 208.98 100.928 208.98 100.928C208.98 100.928 199.206 98.1828 196.86 106.028C194.514 113.873 174.171 114.984 168.128 116.623C160.895 118.584 144.262 115.647 144.262 115.647C144.262 115.647 137.984 88.978 145.908 71.2214C147.308 68.083 157.181 68.8671 157.181 68.8671L163.532 71.6146Z" fill="#992C29"/>
<path d="M151.903 48.3304C151.903 48.3304 149.305 47.4604 146.706 50.9383C144.664 53.6708 143.626 56.154 145.646 59.5331C146.218 60.489 143.915 60.6931 145.357 64.7488C146.869 68.9957 155.463 69.1912 158.351 67.1633C158.351 67.1633 163.934 71.8957 170.189 68.5145C174.397 66.2396 168.65 60.2076 168.65 60.2076C168.65 60.2076 171.653 53.645 164.724 47.1747C159.79 42.5691 154.502 45.7226 151.903 48.3304Z" fill="#273150"/>
<path d="M149.912 55.6619C151.746 55.6619 153.232 53.1325 153.232 50.0123C153.232 46.8921 151.746 44.3627 149.912 44.3627C148.079 44.3627 146.592 46.8921 146.592 50.0123C146.592 53.1325 148.079 55.6619 149.912 55.6619Z" fill="#273150"/>
<path d="M157.059 47.2671C158.029 44.9854 157.686 42.652 156.293 42.0555C154.9 41.459 152.984 42.8252 152.014 45.107C151.044 47.3888 151.387 49.7221 152.78 50.3186C154.173 50.9151 156.088 49.5489 157.059 47.2671Z" fill="#273150"/>
<path d="M151.199 49.7587C151.199 49.7587 149.037 48.3538 146.62 51.2087C144.204 54.0636 143.816 56.5898 145.559 59.5027C146.051 60.3276 144.004 61.1052 145.248 64.6024C145.942 66.5486 149.121 67.3456 148.917 66.9825C148.714 66.6195 148.889 65.5948 148.889 65.5948C151.075 66.9052 154.648 67.6764 158.417 67.3799C160.534 68.6538 164.439 68.5249 166.963 67.1608C170.591 65.2017 165.636 60.0011 165.636 60.0011C165.636 60.0011 168.226 54.345 162.251 48.7663C157.998 44.79 153.44 47.5096 151.199 49.7587Z" fill="#3D4C6D"/>
<path d="M150.842 50.1262C150.842 52.8157 151.069 56.0787 149.487 56.0787C147.907 56.0787 146.625 53.8983 146.625 51.2088C146.625 48.5194 147.907 46.339 149.487 46.339C151.066 46.339 150.842 47.4367 150.842 50.1262Z" fill="#3D4C6D"/>
<path d="M154.989 47.237C154.152 49.2025 153.155 51.9951 151.954 51.4796C150.753 50.9662 150.458 48.9533 151.292 46.9878C152.129 45.0222 153.78 43.8451 154.981 44.3585C156.182 44.874 155.826 45.2714 154.989 47.237Z" fill="#3D4C6D"/>
<path d="M162.893 68.5099C162.893 68.5099 165.32 67.8311 165.716 66.0739C165.716 66.0739 166.564 68.6237 162.893 68.5099Z" fill="#273150"/>
<path d="M165.568 74.4751C165.568 74.4751 169.592 82.3997 170.737 84.3932C171.883 86.3845 168.811 88.7045 166.807 88.1653C164.804 87.6262 160.982 78.2903 160.023 76.314C159.062 74.3355 163.033 71.2314 165.568 74.4751Z" fill="#F6874E"/>
<path d="M166.124 75.4484C166.124 75.4484 162.438 68.0609 159.957 68.4519C157.469 68.8428 157.519 69.9685 158.047 72.1424C158.831 75.3646 160.976 79.6781 160.976 79.6781C160.976 79.6781 163.11 76.2776 166.124 75.4484Z" fill="#C93F37"/>
<path d="M175.752 83.9402C175.752 83.9402 170.766 83.6136 169.593 83.2205C168.42 82.8274 164.265 84.7414 165.978 87.5362C167.378 89.824 175.035 88.9411 176.338 88.4191C177.642 87.8971 178.194 84.3977 175.752 83.9402Z" fill="#F6874E"/>
<path d="M188.622 31.2676C188.622 31.2676 180.749 72.4347 180.655 73.0749C180.561 73.715 180.477 74.2907 180.477 74.2907C180.347 74.5893 180.028 74.6387 178.861 74.3702L173.863 73.4981L180.839 29.7446C180.873 29.5211 185.054 25.7748 185.054 25.7748C185.193 25.7619 185.369 25.56 185.72 25.9746L188.534 30.4878C188.701 30.8315 188.657 31.0871 188.622 31.2676Z" fill="#F6BE4A"/>
<path d="M188.622 31.2676C188.622 31.2676 180.749 72.4347 180.655 73.0748C180.561 73.715 180.477 74.2907 180.477 74.2907C180.347 74.5893 180.899 74.6559 179.734 74.3852L187.749 30.8122C187.749 30.8122 185.369 25.5578 185.722 25.9724L188.537 30.4857C188.702 30.8315 188.657 31.0871 188.622 31.2676Z" fill="#F6874E"/>
<path d="M184.404 51.6512L184.813 49.9799C184.864 49.8596 184.639 49.7887 184.406 49.8532L182.822 50.2914C182.681 50.3301 182.614 50.4182 182.674 50.4848L184.072 51.7737C184.173 51.8854 184.348 51.7737 184.404 51.6512Z" fill="#F6874E"/>
<path d="M179.176 40.0816L180.304 39.3061L179.463 38.3738L179.176 40.0816Z" fill="#F6874E"/>
<path d="M186.834 37.9826L185.502 36.698L187.166 36.5906L186.834 37.9826Z" fill="#F6874E"/>
<path d="M185.361 25.7811L176.786 73.8588" stroke="#F4E8D8" stroke-miterlimit="10"/>
<path d="M177.942 47.9155L178.974 48.0959L179.869 46.8199L179.235 45.5439L181.442 43.5139L182.286 42.7191" stroke="#F4E8D8" stroke-miterlimit="10"/>
<path d="M175.015 90.0601C174.994 90.1267 174.497 90.3608 173.606 90.1246C172.562 89.8474 172.654 89.1278 172.654 89.1278L174.42 73.8158L179.292 74.5999L175.015 90.0601Z" fill="#1D2538"/>
<path d="M172.821 94.6892C174.246 95.0566 175.582 94.004 175.775 92.4143C175.959 90.9042 175.032 89.4907 173.728 89.1878C172.439 88.8892 171.172 89.7721 170.87 91.2199C170.554 92.743 171.412 94.3262 172.821 94.6892ZM173.583 90.6657C174.071 90.8376 174.43 91.5142 174.383 92.1909C174.336 92.8826 173.882 93.3037 173.375 93.1168C172.872 92.9299 172.521 92.221 172.589 91.5443C172.656 90.8827 173.099 90.4939 173.583 90.6657Z" fill="#1D2538"/>
<path d="M172.686 93.7033C173.493 93.9267 174.255 93.3188 174.377 92.3758C174.4 92.191 174.396 92.0063 174.37 91.8301C174.387 91.9483 174.392 92.0707 174.383 92.1932C174.336 92.8849 173.882 93.3059 173.375 93.119C172.872 92.9321 172.521 92.2232 172.589 91.5466C172.656 90.8849 173.099 90.4983 173.583 90.668C173.884 90.7754 174.137 91.074 174.274 91.4478C174.088 90.9236 173.692 90.5069 173.195 90.3801C172.435 90.1847 171.699 90.7281 171.538 91.6196C171.375 92.5369 171.883 93.4821 172.686 93.7033Z" fill="#F6BE4A"/>
<path d="M174.355 91.7435C174.353 91.7287 174.351 91.7118 174.347 91.697C174.351 91.7139 174.353 91.7287 174.355 91.7435Z" fill="#F6BE4A"/>
<path d="M174.312 91.5622C174.305 91.5384 174.297 91.5146 174.288 91.4886C174.297 91.5124 174.305 91.5362 174.312 91.5622Z" fill="#F6BE4A"/>
<path d="M174.293 90.101C174.321 90.101 174.349 90.1118 174.372 90.1289C174.548 90.2664 174.689 90.4168 174.79 90.58C174.828 90.6402 174.802 90.7218 174.736 90.7605C174.67 90.7991 174.584 90.782 174.548 90.7218C174.462 90.5843 174.34 90.4533 174.188 90.3352C174.13 90.29 174.126 90.2084 174.177 90.1526C174.205 90.116 174.25 90.0989 174.293 90.101Z" fill="#F4E8D8"/>
<path d="M174.769 83.8242C173.872 83.8242 173.243 84.1077 173.243 84.1077L174.125 76.6257C174.185 75.818 174.381 73.4722 174.381 73.4722C174.381 73.4722 178.982 74.1425 179.562 74.3165C179.562 74.3165 178.935 76.8642 178.723 77.5838L176.79 84.0841C176.79 84.0862 175.666 83.8242 174.769 83.8242Z" fill="#C73F37"/>
<path d="M177.402 82.0239L177.13 82.924C177.13 82.924 175.578 82.793 173.711 82.793C173.714 82.793 174.277 82.2559 177.402 82.0239Z" fill="#1D2538"/>
<path d="M173.238 84.1656C173.238 84.1656 175.802 84.1441 176.643 84.5802L176.316 85.65C176.316 85.65 173.7 84.9196 173.15 84.9196L173.238 84.1656Z" fill="#C73F37"/>
<path d="M173.554 81.4827L173.591 81.1884C173.591 81.1884 175.549 81.0767 176.851 81.4913L173.554 81.4827Z" fill="#1D2538"/>
<path d="M177.813 80.5053L178.053 79.7427C178.053 79.7427 175.448 79.1756 173.733 79.8523C173.733 79.8523 176.88 79.7427 177.813 80.5053Z" fill="#1D2538"/>
<path d="M178.723 77.5859L178.331 78.8855C178.331 78.8855 175.773 77.8437 173.919 78.1917L174.189 75.848C174.189 75.848 176.128 76.6342 178.723 77.5859Z" fill="#1D2538"/>
<path d="M179.124 76.0242L179.315 75.3454C179.315 75.3454 176.881 74.1768 174.804 74.6859C174.804 74.6859 178.869 75.4507 179.124 76.0242Z" fill="#1D2538"/>
<path d="M170.154 69.7261C170.3 69.6638 170.465 69.6445 170.623 69.6724L184.848 71.8657C185.03 71.9043 185.209 72.2094 185.719 72.9763C186.061 73.4918 186.222 74.1556 185.642 74.4284C184.882 74.7872 184.039 75.3951 183.726 75.3027L170.077 72.8646C169.868 72.8237 169.213 72.2953 168.945 72.0762C168.641 71.827 168.217 71.348 167.958 70.942C167.766 70.6412 167.885 70.246 168.211 70.1063L170.154 69.7261Z" fill="#C73F37"/>
<path d="M169.798 69.118C169.952 69.0514 170.121 69.0321 170.288 69.0621L184.731 71.6378C184.77 71.6464 185.769 72.7462 185.641 73.1565C185.512 73.5668 183.776 74.2929 183.776 74.2929C183.776 74.2929 169.053 71.9041 168.923 71.7259C168.681 71.395 168.28 71.0599 168.008 70.6367C167.807 70.3231 167.934 69.9107 168.272 69.7646L169.798 69.118Z" fill="#F6874E"/>
<path d="M169.798 69.118C169.952 69.0514 170.121 69.0321 170.288 69.0621L172.095 71.1158L183.776 74.2929C183.776 74.2929 169.053 71.9041 168.923 71.7259C168.565 71.3714 168.28 71.0599 168.008 70.6367C167.807 70.3231 167.934 69.9107 168.272 69.7646L169.798 69.118Z" fill="#F6BE4A"/>
<path d="M177.996 49.7224L177.363 53.4881L181.916 60.1839L182.607 56.5106L177.996 49.7224Z" fill="#F6BE4A"/>
<path d="M177.228 54.5988L177.048 56.0488L181.599 62.7445L181.839 61.3848L177.228 54.5988Z" fill="#F6BE4A"/>
<path d="M172.245 69.4746L172.666 70.0718C172.808 70.2823 172.85 70.3038 173.067 70.1642L173.754 69.741L172.245 69.4746Z" fill="#C73F37"/>
<path d="M174.07 83.2118C173.935 83.5362 174.281 83.6393 174.772 83.693C175.125 83.7316 175.778 83.375 175.778 83.375C175.778 83.375 176.366 83.5684 176.613 83.7166C176.739 83.7918 175.628 83.693 175.234 83.7166C174.84 83.7402 173.947 84.1183 173.947 84.1183C173.922 84.1204 173.896 84.1247 173.873 84.1333C173.573 84.2407 173.385 84.5587 173.44 85.0549C173.449 85.1215 173.481 85.1709 173.53 85.216C173.592 85.274 173.706 85.2976 173.663 85.4759C173.605 85.7101 173.335 85.8798 173.337 86.0495C173.337 86.1461 173.526 86.9624 173.59 87.0355L174.455 87.0698C174.455 87.0698 173.462 87.1837 173.391 87.6391C173.269 88.4296 173.939 88.8442 174.403 88.769C174.979 88.6767 174.975 88.9602 175.472 89.0461C175.472 89.0461 176.696 89.1793 176.859 88.7518C177.03 88.3029 177.576 87.9527 177.745 87.319C177.843 86.9474 177.843 86.2084 178.113 85.7638C178.642 84.8959 177.991 84.6424 178.137 84.0839C178.265 83.6006 178.603 83.5662 178.432 82.997C178.297 82.5545 177.835 82.4299 177.497 82.3053C177.158 82.1828 176.266 82.1076 175.382 82.2065C175.384 82.2107 174.207 82.8874 174.07 83.2118Z" fill="#CE6D3E"/>
<path d="M174.068 83.2113C173.933 83.5356 174.276 83.6881 174.766 83.7418C175.119 83.7805 175.774 83.3745 175.774 83.3745C175.774 83.3745 176.363 83.5678 176.609 83.7161C176.735 83.7913 175.624 83.6924 175.231 83.7161C174.837 83.7397 173.944 84.1178 173.944 84.1178C173.918 84.1199 173.893 84.1242 173.869 84.1328C173.569 84.2402 173.355 84.5861 173.413 85.0801C173.422 85.1467 173.557 85.31 173.606 85.3551C173.668 85.4131 173.619 85.4883 173.606 85.5141C173.499 85.731 173.368 85.7783 173.332 85.9437C173.246 86.3261 173.347 86.6805 173.587 87.035L174.494 87.0693C174.494 87.0693 173.447 87.181 173.388 87.6386C173.33 88.079 173.706 88.6783 174.21 88.5494C174.929 88.3647 175.798 88.6611 175.89 88.6203C176.539 88.3239 175.971 87.6923 176.185 87.2047C176.344 86.8438 176.357 86.4313 176.524 86.0425C176.669 85.7053 176.609 84.7386 176.609 84.7386L177.457 83.9738C177.457 83.9738 177.429 83.237 177.371 82.9535C177.266 82.425 175.903 82.1071 175.38 82.2059C175.286 82.2274 174.205 82.8869 174.068 83.2113Z" fill="#F6874E"/>
<path d="M172.968 85.1667C173.48 85.94 174.131 85.1366 173.979 83.9616C173.906 83.3967 173.728 82.6663 172.876 82.9176C172.024 83.169 172.054 83.7855 172.968 85.1667Z" fill="#F6874E"/>
<path d="M180.704 109.409C180.747 110.582 176.329 111.114 175.199 112.7C173.567 114.99 174.974 115.08 159.955 116.212C147.805 117.129 143.997 111.237 144.149 108.754C144.299 106.305 153.009 103.068 162.173 103.057C171.354 103.048 180.614 106.923 180.704 109.409Z" fill="#EC5E4D"/>
<path d="M145.845 117.039C145.845 117.039 143.498 107.48 143.304 104.572C143.109 101.663 152.883 97.5063 154.643 102.286C156.402 107.066 156.794 114.754 156.794 118.287C156.794 121.821 156.207 124.938 151.907 124.73C145.622 124.425 147.371 123.301 145.845 117.039Z" fill="#273150"/>
<path d="M145.845 117.039C145.845 117.039 143.498 107.48 143.304 104.572C143.109 101.663 152.883 97.5063 154.643 102.286C156.402 107.066 156.794 114.754 156.794 118.287C156.794 121.821 156.207 124.938 151.907 124.73C145.622 124.425 147.371 123.301 145.845 117.039Z" fill="#102441"/>
<path d="M152.716 117.845C150.134 117.226 146.498 119.375 146.754 122.236C146.949 124.418 144.768 125.041 143.302 129.301C141.835 133.561 152.684 136.366 153.662 130.964C154.638 125.561 159.656 119.508 152.716 117.845Z" fill="#273150"/>
<path d="M152.883 117.145C150.302 116.526 146.502 119.374 146.759 122.236C146.954 124.418 148.257 125.684 146.791 129.943C145.325 134.203 152.689 136.369 153.667 130.964C154.641 125.561 159.821 118.807 152.883 117.145Z" fill="#102441"/>
<path d="M153.665 130.963C152.686 136.366 146.823 151.435 146.237 154.135C145.65 156.838 143.696 157.841 143.696 157.841C143.696 157.841 141.02 159.074 141.103 152.984C141.166 148.331 141.84 133.563 143.306 129.303C143.306 129.303 147.02 127.743 149.366 128.368C151.71 128.989 153.665 130.963 153.665 130.963Z" fill="#F6874E"/>
<path d="M153.662 130.964C152.683 136.366 146.82 151.436 146.234 154.136C145.947 155.461 145.615 157.451 144.898 157.504C144.155 157.56 143.855 158.061 143.661 153.408C143.466 149.043 145.322 133.561 146.788 129.301C146.788 129.301 147.017 127.742 149.363 128.367C151.707 128.99 153.662 130.964 153.662 130.964Z" fill="#CE6D3E"/>
<path d="M143.856 151.7C142.784 153.736 140.827 154.937 140.827 154.937C140.827 154.937 139.44 157.401 139.639 158.329C139.768 158.892 140.331 160.327 140.331 160.327C140.331 160.327 140.75 165.321 140.898 165.91C141.116 166.79 149.916 168.2 150.505 168.423C151.094 168.646 150.965 163.678 150.965 163.678C150.965 163.678 147.193 159.003 146.487 157.003C145.791 155.04 145.014 149.504 143.856 151.7Z" fill="#CE6D3E"/>
<path d="M158.747 100.829C156.793 102.492 155.652 106.232 157.118 109.765C158.585 113.299 159.92 119.671 161.288 121.127C162.656 122.583 165.002 124.521 167.74 124.521C170.476 124.521 171.649 120.573 171.161 117.456C170.673 114.339 168.913 105.506 167.545 101.557C166.177 97.6091 160.702 99.1665 158.747 100.829Z" fill="#102441"/>
<path d="M161.658 118.919C160.688 119.958 160.446 123.397 159.9 125.249C159.166 127.741 159.025 129.627 159.166 133.038C159.31 136.505 160.003 140.993 160.341 143.41C161.035 148.374 159.592 150.219 161.938 150.494C164.284 150.771 163.893 149.94 164.804 147.446C165.716 144.952 169.041 131.93 169.692 129.296C170.342 126.665 170.734 123.754 170.865 121.4C170.995 119.045 164.248 116.141 161.658 118.919Z" fill="#273150"/>
<path d="M161.987 118.612C160.504 119.615 160.311 123.381 160.748 127.417C161.095 130.62 169.043 131.932 169.693 129.301C170.344 126.669 170.736 123.759 170.866 121.404C170.997 119.05 164.802 116.33 161.987 118.612Z" fill="#102441"/>
<path d="M159.365 127.63C158.575 130.207 158.969 134.598 160.082 142.759C160.758 147.726 159.756 151.234 162.103 151.511C164.449 151.788 164.853 151.865 165.326 149.253C165.806 146.604 169.04 131.935 169.691 129.303C169.691 129.303 166.758 127.503 164.023 127.363C161.287 127.224 159.365 127.63 159.365 127.63Z" fill="#F6874E"/>
<path d="M160.748 127.417C160.763 130.362 161.934 139.526 162.069 144.426C162.208 149.489 160.864 150.786 163.21 151.063C165.556 151.341 164.867 151.867 165.329 149.253C165.83 146.413 169.043 131.934 169.694 129.303C169.694 129.303 166.883 127.593 164.025 127.363C162.872 127.268 160.748 127.417 160.748 127.417Z" fill="#CE6D3E"/>
<path d="M160.49 148.72C160.49 148.72 160.22 150.37 159.479 152.103C158.843 153.59 162.153 154.271 163.358 155.377C163.358 155.377 172.107 159.97 175.037 158.516C178.293 156.9 169.264 152.307 171.846 153.717C171.846 153.717 166.372 151.014 165.591 148.937C164.807 146.862 160.49 148.72 160.49 148.72Z" fill="#F6874E"/>
<path d="M161.891 148.449C161.777 150.913 160.7 151.47 160.309 152.926C159.553 155.734 165.104 157.459 164.74 157.242C164.74 157.242 172.005 159.774 174.938 158.32C178.253 156.675 169.201 152.34 171.842 153.719C171.842 153.719 166.369 151.016 165.587 148.939C164.806 146.862 161.993 146.226 161.891 148.449Z" fill="#CE6D3E"/>
<path d="M159.69 150.887C159.829 150.61 160.084 150.37 160.127 150.647C160.172 150.924 160.593 151.985 161.171 152.312C161.747 152.638 168.323 156.234 170.629 155.579C172.035 155.179 171.018 153.906 170.012 152.971C169.37 152.374 168.73 151.916 168.73 151.916C168.73 151.916 171.68 153.583 173.035 154.367C174.39 155.151 177.239 157.832 177.508 158.878C177.78 159.925 167.493 160.056 166.018 159.368C164.543 158.681 162.357 156.72 161.544 155.936C160.794 155.214 159.923 155.536 159.645 155.216C159.016 154.496 159.268 151.719 159.69 150.887Z" fill="#992C29"/>
<path d="M156.695 68.2804C156.695 68.2804 159.298 67.6918 160.214 68.869C161.267 70.2244 164.082 73.7066 164.221 76.4777C164.332 78.686 163.954 80.4518 162.845 83.5236C161.935 86.0477 160.708 89.9229 159.163 90.6275C154.453 92.7735 150.431 92.4234 147.8 90.8402C146.822 90.2516 145.784 88.7586 145.863 84.8512C145.897 83.167 145.846 82.6021 145.454 76.6195C144.93 68.5768 148.094 68.2439 151.313 68.0634C154.531 67.8808 156.695 68.2804 156.695 68.2804Z" fill="#F6BE4A"/>
<path d="M156.35 71.4146L155.836 71.3867C154.916 71.3373 154.21 70.5468 154.261 69.6231L154.625 62.8478C154.674 61.9241 155.462 61.2152 156.382 61.2668L156.896 61.2947C157.816 61.3441 158.523 62.1347 158.471 63.0584L158.108 69.8336C158.056 70.7573 157.271 71.464 156.35 71.4146Z" fill="#F6874E"/>
<path d="M156.482 68.6694L155.968 68.6414C155.048 68.592 154.341 67.8015 154.393 66.8778L154.757 60.1025C154.806 59.1788 155.594 58.4699 156.514 58.5214L157.028 58.5494C157.948 58.5988 158.655 59.3893 158.603 60.313L158.239 67.0883C158.188 68.0099 157.402 68.7188 156.482 68.6694Z" fill="#CE6D3E"/>
<path d="M141.172 154.668C140.893 154.758 140.302 155.229 140.198 155.504C139.737 156.709 139.35 157.848 139.463 158.563C139.508 158.842 139.776 159.555 140.052 160.909C140.358 162.399 140.153 165.085 140.979 166.215C141.803 167.344 148.841 169.798 150.404 169.503C151.969 169.209 151.083 164.588 150.963 163.68C150.837 162.722 147.409 158.43 145.984 155.238C145.984 155.238 145.997 155.551 146.223 156.35C146.759 158.219 147.801 162.137 146.343 162.281C144.256 162.485 141.261 159.639 141.137 158.215C141.015 156.808 140.786 155.684 140.827 155.394C140.868 155.1 141.172 154.668 141.172 154.668Z" fill="#992C29"/>
<path d="M163.175 106.582L167.159 110.103C167.576 110.434 168.158 110.174 168.075 109.688C167.788 108.023 166.94 105.211 163.175 106.582Z" fill="#EC5E4D"/>
<path d="M145.974 86.1962C145.324 87.4378 140.306 103.132 145.127 113.594C145.127 113.594 149.374 108.967 155.44 107.714C167.522 105.222 166.48 108.644 166.79 109.549C166.995 110.15 167.646 110.462 168.246 110.255C168.4 110.202 168.573 110.137 168.766 110.06C171.48 108.973 176.2 107.323 180.593 108.883C180.593 108.883 172.071 94.6578 160.674 87.5624C149.765 80.7786 146.625 84.9546 145.974 86.1962Z" fill="#F6BE4A"/>
<path opacity="0.5" d="M167.635 108.623C167.635 108.623 166.507 100.464 163.683 97.9725C163.683 97.9725 164.812 99.8994 164.812 101.371L163.457 100.464C163.457 100.464 164.861 102.544 165.828 104.658C166.676 106.509 167.055 108.41 167.635 108.623Z" fill="#F6BE4A"/>
<path d="M164.408 55.5758C166.063 63.5648 162.818 66.2886 157.201 66.1125C152.98 65.9793 149.523 63.2984 149.246 57.9968C148.968 52.6951 151.192 48.3451 155.36 47.6448C160.861 46.7211 163.332 50.3859 164.408 55.5758Z" fill="#CE6D3E"/>
<path d="M162.473 57.3933C162.556 57.7865 162.623 58.1624 162.676 58.5211C163.455 63.8679 160.925 65.7196 156.74 65.5928C153.384 65.4897 150.633 63.4039 150.412 59.2773C150.192 55.1507 153.655 52.3817 156.971 51.8382C161.349 51.1186 161.616 53.3527 162.473 57.3933Z" fill="#F6874E"/>
<path d="M149.864 61.8416C151.156 61.6421 151.994 60.1366 151.737 58.4791C151.48 56.8215 150.226 55.6395 148.934 55.839C147.643 56.0385 146.805 57.5439 147.062 59.2015C147.319 60.8591 148.573 62.0411 149.864 61.8416Z" fill="#F6874E"/>
<path d="M149.242 55.8016L150.597 57.2946C150.597 57.2946 150.604 51.0499 155.48 49.3292C159.821 47.7955 161.808 49.514 161.808 49.514C161.808 49.514 159.464 45.628 153.562 48.1735C148.626 50.3024 149.242 55.8016 149.242 55.8016Z" fill="#F6BE4A"/>
<path d="M153.277 56.6671C153.657 56.6671 153.965 56.0901 153.965 55.3782C153.965 54.6664 153.657 54.0894 153.277 54.0894C152.898 54.0894 152.59 54.6664 152.59 55.3782C152.59 56.0901 152.898 56.6671 153.277 56.6671Z" fill="#273150"/>
<path d="M160.339 56.1151C160.719 56.1151 161.026 55.5381 161.026 54.8262C161.026 54.1144 160.719 53.5374 160.339 53.5374C159.96 53.5374 159.652 54.1144 159.652 54.8262C159.652 55.5381 159.96 56.1151 160.339 56.1151Z" fill="#273150"/>
<path d="M159.53 53.2625L160.814 52.5558" stroke="#273150" stroke-miterlimit="10" stroke-linecap="round" stroke-linejoin="round"/>
<path d="M154.371 53.6296L152.667 53.1699" stroke="#273150" stroke-miterlimit="10" stroke-linecap="round" stroke-linejoin="round"/>
<path d="M161.162 48.4182C161.162 48.4182 162.399 49.9283 163.669 50.5749C164.628 51.0647 165.398 51.1549 165.398 51.1549L165.206 50.7683L165.683 50.3988C165.683 50.3988 163.889 50.2097 161.535 48.1926L161.162 48.4182Z" fill="#EE5D4F"/>
<path d="M161.039 48.2422C161.039 48.2422 161.687 50.0853 162.659 51.1293C163.393 51.9177 164.087 52.2679 164.087 52.2679L164.038 51.8404L164.613 51.6578C164.613 51.6578 162.993 50.8651 161.469 48.1584L161.039 48.2422Z" fill="#EE5D4F"/>
<path d="M161.823 49.2153C162.281 49.1337 162.715 46.6826 161.626 46.6311C160.6 46.5816 159.438 46.7148 159.63 47.4903C159.825 48.2658 161.367 49.2969 161.823 49.2153Z" fill="#EE5D4F"/>
<path d="M162.218 47.8212C162.218 47.8212 162.049 46.7707 161.724 46.7943C161.398 46.818 161.689 47.2669 161.773 47.9586C161.859 48.6503 162.276 48.2658 162.218 47.8212Z" fill="#F7BC4B"/>
<path d="M161.443 48.7085C161.443 48.7085 161.374 48.2251 162.076 47.7568C162.778 47.2885 163.314 47.0329 163.759 47.3122C164.204 47.5914 164.36 48.8137 164.106 49.4302C163.851 50.0468 162.288 49.5785 161.894 49.3465C161.501 49.1123 161.443 48.7085 161.443 48.7085Z" fill="#EE5D4F"/>
<path d="M163.998 48.2982C163.998 48.2982 164.146 49.2799 163.709 49.4389C163.06 49.6774 163.469 47.8192 163.508 47.527C163.544 47.2327 164.116 47.5958 163.998 48.2982Z" fill="#F7BC4B"/>
<path d="M147.018 81.2016C147.018 81.2016 149.569 86.9114 150.734 88.1637C151.907 89.4268 153.459 90.8296 154.985 90.2367C156.507 89.646 157.179 85.8416 156.107 83.8481C155.047 81.8804 153.103 76.205 152.448 75.3092C151.798 74.4177 149.372 75.0493 148.191 75.7689C147 76.4907 146.161 79.0685 147.018 81.2016Z" fill="#F6874E"/>
<path d="M153.248 76.8662C153.248 76.8662 151.056 68.018 148.124 68.4089C145.324 68.7827 144.808 71.1801 145.161 74.4646C145.521 77.82 147.06 81.3687 147.06 81.3687C147.06 81.3687 147.644 78.1508 153.248 76.8662Z" fill="#EC5E4D"/>
<path d="M152.36 73.9923C152.36 73.9923 151.059 68.0183 148.126 68.4093C145.326 68.783 144.81 71.1804 145.163 74.4649C145.523 77.8203 146.075 78.4712 146.075 78.4712C146.075 78.4712 146.366 76.3531 146.756 75.0793C147.092 73.9859 149.233 73.4767 149.233 73.4767L152.36 73.9923Z" fill="#C93F37"/>
<path d="M169.886 79.1996C169.886 79.1996 165.455 80.1147 162.982 80.9331C160.803 81.6549 157.07 82.8751 154.938 84.3874C152.786 85.9147 152.538 88.0972 153.11 89.5236C153.688 90.9629 156.464 90.1057 158.757 89.3195C161.039 88.5354 169.717 84.3702 171.84 82.9932C173.946 81.6248 173.403 77.8613 169.886 79.1996Z" fill="#CE6D3E"/>
<path d="M160.6 81.7493C158.254 82.4024 157.07 82.875 154.938 84.3873C152.786 85.9146 152.538 88.0971 153.11 89.5235C153.688 90.9627 156.464 90.1056 158.757 89.3194C161.041 88.5353 162.665 81.1736 160.6 81.7493Z" fill="#F6874E"/>
<path d="M171.393 81.979C172.038 82.8641 173.673 82.7287 174.223 82.2604C174.891 81.6955 175.289 81.2143 175.713 81.2164C175.979 81.2164 176.957 81.4012 177.492 81.6439C177.522 81.7019 177.394 81.9296 177.417 81.9941C177.449 82.0843 177.477 82.138 177.573 82.1444C178.181 82.1874 178.682 81.7857 178.65 81.1477L178.588 80.2992L179.211 79.543L179.331 77.1736L177.265 74.9439C177.162 74.8343 177.017 74.7763 176.867 74.787L174.059 74.9954C173.889 75.0083 173.735 75.1007 173.645 75.2424L171.096 79.2466C171.094 79.2487 170.749 81.094 171.393 81.979Z" fill="#CE6D3E"/>
<path d="M177.389 80.4647C177.584 80.6773 177.89 81.0017 178.153 81.2079C178.438 81.4313 178.671 81.5108 178.652 81.1478L178.59 80.2993L179.367 79.6785C179.367 79.6785 179.547 77.8396 179.487 77.309C179.326 75.8999 177.246 74.8537 177.246 74.8537C177.061 74.7613 177.017 74.7785 176.867 74.7893C176.867 74.7893 176.205 75.887 176.165 76.2178C176.124 76.5486 176.734 78.0029 176.734 78.0029C176.734 78.0029 176.068 78.8514 176.032 79.1049C175.944 79.6999 176.713 79.7279 177.389 80.4647Z" fill="#F6874E"/>
<path d="M146.151 76.714C146.151 76.714 146.346 75.3907 147.324 74.9976C147.324 74.9976 146.239 78.1704 146.072 78.4712C145.905 78.7719 145.907 77.4508 146.151 76.714Z" fill="#C93F37"/>
<path d="M145.517 70.1749C144.995 71.6786 143.04 76.7783 141.086 88.026C139.132 99.2738 142.259 113.789 144.083 115.359C145.907 116.929 152.292 105.289 165.977 112.547C165.977 112.547 156.591 99.0396 151.316 95.3491C144.864 90.838 145.386 79.9168 146.168 74.0974C146.951 68.2803 145.517 70.1749 145.517 70.1749Z" fill="#29ACE4"/>
<path d="M141.086 88.0281C139.132 99.2758 142.259 113.791 144.083 115.361C145.907 116.931 152.292 105.291 165.977 112.549C165.977 112.549 161.013 105.606 157.935 102.015C157.935 102.015 153.97 107.873 152.954 107.66C152.35 107.533 147.418 107.961 144.485 104.431C141.553 100.902 141.086 88.0281 141.086 88.0281Z" fill="#1689CB"/>
<path d="M144.317 101.284C144.317 101.284 144.48 102.552 145.927 104.683C147.676 107.258 152.957 108.337 152.957 108.337L155.074 106.934C155.074 106.934 152.167 106.693 149.682 105.447C147.197 104.201 144.412 102.075 144.317 101.284Z" fill="#1689CB"/>
<path d="M153.858 67.741C152.876 67.5133 147.31 67.0536 145.745 69.8011C144.18 72.5464 145.452 77.6311 145.452 77.6311C145.452 77.6311 145.743 73.4401 147.847 72.1061C149.065 71.3327 156.245 73.859 157.279 74.0179C159.184 74.3122 156.791 71.5669 156.791 71.5669C156.791 71.5669 155.13 68.0353 153.858 67.741Z" fill="#29ACE4"/>
<path d="M158.402 68.1169C157.725 68.2909 155.835 74.7246 157.699 73.5775C158.19 73.2746 160.889 72.4497 163.972 72.744C166.024 72.9395 167.641 74.1016 167.784 73.8718C168.274 73.0856 161.281 67.3715 158.402 68.1169Z" fill="#1689CB"/>
<path d="M157.62 73.0211C157.809 73.0211 157.962 72.8672 157.962 72.6774C157.962 72.4876 157.809 72.3337 157.62 72.3337C157.431 72.3337 157.277 72.4876 157.277 72.6774C157.277 72.8672 157.431 73.0211 157.62 73.0211Z" fill="#273150"/>
<path d="M103.454 99.0591C103.454 99.0591 103.685 94.7564 101.433 94.5072C99.1812 94.258 94.382 99.246 93.2967 99.7766C92.2114 100.309 91.3551 102.024 90.8007 102.554C90.2463 103.085 88.7564 103.491 87.9302 104.157C87.1017 104.825 84.2012 106.833 86.2819 109.076C88.3668 111.323 89.1546 111.982 92.0273 110.758C94.8914 109.536 104.203 101.28 103.454 99.0591Z" fill="#1D2436"/>
<path d="M98.9948 122.628C98.9948 122.628 91.3934 120.132 82.6768 119.026C78.7466 118.527 78.5475 124.458 81.1462 129.032C82.574 131.547 90.1882 133.358 97.2309 136.847C103.053 139.729 108.364 144.625 110.781 144.524C116.113 144.298 112.725 125.577 98.9948 122.628Z" fill="#48598B"/>
<path d="M92.0188 125.266C90.8586 125.165 92.9521 127.433 93.4979 128.428C95.0863 131.322 96.3856 134.625 97.7834 136.722C99.0186 138.574 98.1516 136.093 97.1477 132.941C96.6917 131.511 96.3492 130.14 96.0174 129.204C95.8312 128.675 92.0188 125.266 92.0188 125.266Z" fill="#273150"/>
<path d="M92.2617 159.95C92.2617 159.95 87.8027 163.716 86.2422 165.748C84.6753 167.787 88.8602 169.999 92.5742 169.488C96.2796 168.979 99.7924 167.621 101.047 165.598C102.297 163.581 102.305 163.559 104.264 161.394C106.216 159.237 103.53 154.659 102.423 153.697C101.314 152.737 92.8739 156.687 92.2617 159.95Z" fill="#EC6141"/>
<path d="M92.3782 158.968C92.3782 158.968 87.9193 162.734 86.3588 164.766C84.7918 166.805 89.2465 168.167 92.9604 167.655C96.6658 167.146 99.1961 166.506 100.45 164.483C101.701 162.466 102.612 162.169 104.571 160.004C106.523 157.847 103.646 153.68 102.54 152.717C101.431 151.755 92.9904 155.705 92.3782 158.968Z" fill="#13161F"/>
<path d="M89.7895 152.947C89.7895 152.947 91.1467 155.035 90.8834 155.886C90.6201 156.739 89.8174 159.104 92.9983 160.176C95.7084 161.089 102.274 157.17 104.344 155.798C104.712 155.553 104.956 155.158 104.997 154.739C105.108 153.572 105.17 151.171 104.05 149.749C102.531 147.822 102.73 148.376 100.326 142.024C97.941 135.717 90.3268 122.596 89.8495 121.249C89.3721 119.904 83.1793 118.624 81.9313 118.772C80.6812 118.92 75.837 125.343 75.9654 127.113C76.0938 128.888 78.8381 135.027 81.1971 140.243C83.5689 145.489 86.4801 147.92 87.1758 149.424C88.2654 151.781 89.7895 152.947 89.7895 152.947Z" fill="#48598B"/>
<path d="M102.481 147.858C101.361 145.766 101.901 148.904 101.312 151.128C100.974 152.404 103.603 149.95 102.481 147.858Z" fill="#273150"/>
<path d="M89.7021 152.305C89.7021 152.305 91.0465 155.804 91.7978 156.064C92.5492 156.326 94.799 156.032 96.3252 155.248C97.8515 154.462 92.4272 155.705 89.7021 152.305Z" fill="#273150"/>
<path d="M78.3353 129.826C78.3353 129.826 79.1531 128.422 79.8017 127.135C80.4503 125.848 80.7586 130.207 79.3564 131.328C77.9543 132.452 78.3353 129.826 78.3353 129.826Z" fill="#273150"/>
<path d="M95.2568 129.777L90.8707 127.616L85.457 123.27C85.457 123.27 86.7243 123.296 87.7175 123.994C88.1671 124.31 90.5325 126.276 91.8211 127.305C93.3731 128.548 94.7773 129.279 95.2568 129.777Z" fill="#273150"/>
<path d="M121.203 100.451C121.203 100.451 98.7413 95.4865 103.023 92.2127C107.276 88.9582 119.144 83.1002 123.483 89.4007C127.852 95.7464 123.836 102.706 121.203 100.451Z" fill="#1D2436"/>
<path d="M129.84 146.052C129.84 146.052 130.191 145.221 131.234 144.497C132.274 143.775 135.5 144.076 136.076 145.358C136.652 146.645 136.645 155.465 136.645 156.062C136.645 156.662 135.487 159.147 134.436 160.608C133.383 162.073 131.399 162.354 129.65 161.667C127.901 160.979 129.085 157.953 129.558 156.507C130.031 155.068 129.023 147.601 129.84 146.052Z" fill="#EC6141"/>
<path d="M129.157 145.367C129.157 145.367 129.219 144.855 130.261 144.131C131.302 143.41 134.528 143.71 135.103 144.993C135.679 146.28 135.962 154.78 135.962 155.377C135.962 155.976 134.804 158.462 133.753 159.922C132.7 161.387 130.715 161.669 128.966 160.981C127.217 160.294 128.401 157.267 128.874 155.822C129.347 154.38 128.339 146.915 129.157 145.367Z" fill="#13161F"/>
<path d="M123.771 148.686C123.771 148.686 127.676 145.337 129.508 145.255C133.421 145.079 132.515 149.027 132.507 151.749C132.5 154.479 130.39 156.49 129.606 157.012C128.823 157.534 130.189 157.267 127.913 160.38C125.625 163.508 121.562 167.256 118.856 167.639C116.795 167.931 109.88 164.285 113.577 156.849C114.733 154.526 121.695 150.651 123.771 148.686Z" fill="#273150"/>
<path d="M111.135 132.132C111.135 132.132 110.412 149.966 110.709 156.704C111.009 163.503 110.701 166.706 112.341 168.388C113.982 170.074 116.962 170.388 119.051 169.696C121.136 169.005 120.387 168.132 122.048 167.668C123.707 167.207 124.898 162.152 125.321 160.444C125.745 158.741 126.878 142.185 127.319 136.2C127.757 130.265 126.567 127.232 121.727 127.292C116.879 127.356 112.007 128.647 111.135 132.132Z" fill="#273150"/>
<path d="M110.695 135.015C110.695 135.015 110.451 151.594 110.684 157.787C110.922 164.036 110.678 166.977 111.968 168.526C113.261 170.075 115.612 170.365 117.258 169.727C118.902 169.091 122.986 162.865 123.32 161.297C123.654 159.731 124.844 149.059 123.774 138.948C123.198 133.513 123.181 130.706 119.366 130.761C115.545 130.815 111.382 131.812 110.695 135.015Z" fill="#47588A"/>
<path d="M97.6789 126.411C98.8648 127.964 100.153 129.094 101.718 130.334C102.084 130.624 114.489 135.827 114.489 135.827C114.489 135.827 107.528 133.172 108.496 133.865C112.629 136.828 113.708 138.834 118.531 140.011C119.657 140.286 121.999 138.067 122.669 138.802C124.82 141.156 124.056 145.614 124.233 143.412C124.867 135.552 127.596 131.966 121.693 128.895C115.474 125.659 94.3695 122.072 97.6789 126.411Z" fill="#273150"/>
<path d="M100.349 122.478C100.531 120.85 100.139 114.551 100.202 106.575C100.264 98.6851 100.208 95.5531 104.763 93.71C109.297 91.8755 114.978 91.332 119.285 94.1546C121.282 95.4629 122.158 124.113 122.539 126.673C122.92 129.242 118.42 133.455 114.353 133.717C110.28 133.981 99.8291 127.161 100.349 122.478Z" fill="#F6BE4A"/>
<path opacity="0.5" d="M110.453 124.319C110.453 124.319 109.806 125.53 110.074 126.695C107.7 125.659 105.364 124.489 104.718 123.666C104.718 123.666 106.803 127.197 109.93 128.375C113.058 129.552 115.924 129.028 115.924 129.028C115.924 129.028 111.459 125.945 110.453 124.319Z" fill="#F6BE4A"/>
<path d="M97.6421 124.944C97.6421 125.028 97.6721 125.107 97.7299 125.168C98.1965 125.657 99.6093 127.775 101.782 128.514C102.364 128.712 103.366 128.285 103.37 128.035L103.381 127.526C103.383 127.404 102.167 127.522 102.06 127.466C101.418 127.127 98.706 124.994 97.5757 123.653C97.381 123.421 97.6442 124.635 97.6421 124.944Z" fill="#F4E8D8"/>
<path d="M106.637 92.8593C107.187 92.5521 99.9305 96.0773 103.189 110.659C104.055 114.536 103.195 121.305 103.478 122.618C103.762 123.93 104.638 126.86 103.349 127.524C100.962 128.753 98.7018 124.976 97.8691 124.13C96.5762 122.82 99.2348 122.205 99.1256 117.374C99.0101 112.268 97.304 105.142 97.6379 102.242C98.4021 95.624 100.577 95.1127 101.431 94.507C102.362 93.8475 105.971 93.2331 106.637 92.8593Z" fill="#972B28"/>
<path d="M106.636 92.8594C106.844 92.0861 102.424 94.3953 101.818 94.9453C101.227 95.4823 100.602 96.2234 100.035 97.2502C98.2173 100.533 102.826 108.938 102.826 108.938C102.826 108.938 102.811 100.898 102.987 99.0632C103.16 97.233 106.236 94.3545 106.636 92.8594Z" fill="#F4E8D8"/>
<path d="M106.785 92.2255C106.785 92.2255 106.564 92.7346 106.588 93.3575C106.675 95.8623 107.198 102.786 108.129 102.872C109.075 102.958 109.512 102.73 110.698 98.8482C110.95 98.0211 113.463 91.7937 112.674 91.2567" stroke="#913636" stroke-miterlimit="10"/>
<path d="M108.304 105.011C108.58 105.011 108.805 104.496 108.805 103.86C108.805 103.224 108.58 102.708 108.304 102.708C108.027 102.708 107.803 103.224 107.803 103.86C107.803 104.496 108.027 105.011 108.304 105.011Z" fill="#29ACE4"/>
<path d="M106.615 89.8841L106.76 93.7937C106.82 95.4198 108.308 96.6207 110.014 96.4187L110.245 96.3908C111.883 96.1975 113.081 94.7797 112.925 93.2287L112.533 89.3535C112.349 87.5254 110.386 86.4063 108.565 87.0851C107.357 87.5362 106.57 88.6661 106.615 89.8841Z" fill="#CE6D3E"/>
<path d="M114.877 129.464L114.892 129.79C114.901 129.977 114.971 130.151 115.091 130.28C115.949 131.208 119.608 135.06 122.024 135.97C123.885 136.671 126.381 136.802 127.804 136.813C128.481 136.817 129.101 136.376 129.388 135.687C129.577 135.236 129.339 134.714 128.907 134.626C126.74 134.181 120.871 132.684 115.971 128.785C115.506 128.413 114.847 128.821 114.877 129.464Z" fill="#F4E8D8"/>
<path d="M113.396 91.6004C112.728 92.1203 109.862 97.3252 112.262 104.506C114.681 111.752 112.467 124.77 114.036 128.001C114.484 128.92 120.895 134.772 123.329 134.875C124.932 134.941 127.242 135.201 128.845 135.412C129.599 135.511 130.759 134.043 130.784 133.274C130.864 130.843 130.784 125.7 129.153 120.542C126.927 113.499 126.756 93.319 121.109 90.6445C116.798 88.6016 114.064 91.0806 113.396 91.6004Z" fill="#972B28"/>
<path d="M120.976 121.84C120.976 121.84 125.512 124.613 126.715 125.004L126.035 126.632C126.035 126.632 120.955 123.859 120.161 122.792L120.976 121.84Z" fill="#F4E8D8"/>
<path d="M113.269 91.213C114.605 90.0466 118.95 89.4494 120.251 90.2807C120.988 90.749 117.507 89.2732 115.741 93.2688C113.553 98.2138 112.766 106.083 112.766 106.083C112.766 106.083 111.578 105.434 111.154 99.1418C110.871 94.9422 111.931 92.3816 113.269 91.213Z" fill="#F4E8D8"/>
<path d="M124.429 118.989C124.429 118.989 124.966 117.419 124.722 116.684C124.478 115.95 123.842 118.45 123.11 119.479C122.757 119.973 124.202 119.157 124.429 118.989Z" fill="#972B28"/>
<path d="M99.0499 119.348L98.8701 120.216L100.026 119.546L100.238 118.515L99.0499 119.348Z" fill="#F4E8D8"/>
<path d="M112.375 136.709C112.375 136.709 114.329 137.854 115.633 138.9C116.937 139.947 119.413 140.765 119.413 140.765C119.413 140.765 116.284 141.287 112.375 136.709Z" fill="#273150"/>
<path d="M97.3574 109.28C98.3635 112.274 95.0905 115.875 92.0101 115.905C90.1649 115.924 88.7778 115.071 87.5426 113.366C87.076 112.721 87.3607 111.974 87.0225 111.269C86.7613 110.723 85.8473 110.223 85.6739 109.699C84.6892 106.706 86.3931 104.545 89.4435 104.247C91.6419 104.032 92.0957 105.495 93.303 106.043C93.7376 106.24 95.0477 106.279 95.4544 106.532C96.9228 107.458 96.865 107.817 97.3574 109.28Z" fill="#C93F37"/>
<path d="M96.7569 111.198C96.9089 112.751 95.9328 114.298 94.5714 114.653C93.2078 115.005 91.9833 114.025 91.8356 112.468C91.6879 110.913 92.3537 108.648 93.7108 108.3C95.0658 107.95 96.6049 109.647 96.7569 111.198Z" fill="#F4E8D8"/>
<path d="M96.0555 111.355C96.1668 112.524 95.4561 113.69 94.4671 113.954C93.4781 114.221 92.5876 113.482 92.4806 112.309C92.3736 111.138 93.0564 108.82 94.5549 109.213C95.5418 109.471 95.9442 110.189 96.0555 111.355Z" fill="#CE6D3E"/>
<path d="M94.1813 109.475C93.6269 109.913 93.1817 110.824 93.0254 112.22C92.8691 113.617 95.8874 115.127 95.8874 115.127C95.8874 115.127 97.7691 115.825 99.0235 112.798C99.5222 111.593 96.9492 109.361 96.9685 108.592C97.0391 105.802 95.0911 108.755 94.1813 109.475Z" fill="#F6874E"/>
<path d="M96.5751 109.082C96.5751 109.082 95.5968 109.196 95.7938 109.933C95.9886 110.668 97.5277 111.976 99.1417 111.585C100.756 111.194 96.5751 109.082 96.5751 109.082Z" fill="#CE6D3E"/>
<path d="M87.0965 110.259C86.9659 109.409 87.0537 108.595 87.0323 108.429C86.9681 107.939 86.251 110.326 86.251 110.326C87.1286 111.6 87.1628 110.7 87.0965 110.259Z" fill="#972B28"/>
<path d="M92.8624 106.139C92.8624 106.139 91.0043 104.472 90.4199 107.121C90.4178 107.121 91.4945 106.434 92.8624 106.139Z" fill="#972B28"/>
<path d="M121.127 108.859C119.793 106.694 118.436 103.942 117.038 101.787C115.643 99.6391 116.445 92.8144 119.483 91.6394C122.512 90.4686 123.077 91.9143 125.873 95.9743C128.679 100.052 133.007 110.747 131.67 114.433C130.957 116.395 124.683 117.394 121.127 108.859Z" fill="#1D2436"/>
<path d="M130.806 110.865C129.314 108.711 127.411 107.22 123.519 108.004C121.58 108.395 121.334 110.244 121.334 110.244C121.334 110.244 119.122 110.042 118.114 110.945C117.104 111.849 113.681 110.945 113.79 115.456C113.899 119.967 115.002 122.04 118.007 122.616C121.01 123.191 125.703 119.252 125.703 119.252C125.703 119.252 127.357 119.574 129.556 117.477C131.774 115.363 133.176 114.287 130.806 110.865Z" fill="#C93F37"/>
<path d="M121.835 109.636C121.835 109.636 123.605 108.072 125.346 109.615C125.536 109.785 123.199 109.314 121.835 109.636Z" fill="#972B28"/>
<path d="M113.891 117.364C113.662 121.443 118.532 121.037 118.532 121.037C118.532 121.037 117.599 121.469 118.179 121.628C118.864 121.814 120.063 122.019 120.795 121.505C123.411 119.668 124.868 115.16 121.668 113.312C121.082 112.975 120.908 115.523 120.822 114.788C120.73 114.008 119.904 112.801 118.442 112.034C117.627 111.604 114.174 112.307 113.891 117.364Z" fill="#972B28"/>
<path d="M126.306 112.221C126.306 112.221 125.467 111.338 124.386 110.945C123.305 110.552 121.413 110.111 121.413 110.111C121.71 110.021 126.424 109.729 126.306 112.221Z" fill="#972B28"/>
<path d="M116.079 112.376C115.34 112.421 112.994 112.657 112.815 116.831C112.671 120.199 115.662 120.983 115.662 120.983C115.662 120.983 117.839 121.172 118.83 120.326C120.165 119.185 120.275 116.472 119.446 114.15C119.02 112.96 116.818 112.33 116.079 112.376Z" fill="#F4E8D8"/>
<path d="M114.595 113.151C113.859 113.183 111.718 112.781 111.607 116.742C111.517 119.937 114.51 120.723 114.51 120.723C114.51 120.723 116.68 120.931 117.654 120.141C118.966 119.075 119.031 116.502 118.168 114.287C117.725 113.149 115.332 113.119 114.595 113.151Z" fill="#CE6D3E"/>
<path d="M99.9796 98.9517C99.9796 98.9517 100.829 97.7938 103.255 97.869C106.643 97.9742 110.282 98.9946 111.366 100.531C112.168 101.667 112.213 102.82 112.213 102.82C112.213 102.82 113.29 102.926 113.823 103.716C114.159 104.215 114.009 110.481 114.009 110.481C113.951 111.587 113.401 112.348 112.28 112.333L111.329 112.32L99.7484 110.801C99.7527 110.801 98.8729 100.309 99.9796 98.9517Z" fill="#634874"/>
<path d="M95.9868 107.71C96.1174 110.717 98.6883 111.243 99.4289 111.368C101.43 111.703 112.208 112.648 112.208 112.648C112.208 112.648 114.088 111.926 113.015 111.851C112.759 111.834 107.439 110.642 105.697 110.324C102.728 109.783 101.722 107.838 101.722 107.838C101.722 107.838 95.9269 106.337 95.9868 107.71Z" fill="#7E6391"/>
<path d="M111.819 121.662L112.706 112.826C112.654 112.371 112.297 112.18 110.888 111.933C110.888 111.933 110.207 111.871 109.674 111.817C109.415 111.791 108.79 111.918 108.765 112.7L108.322 122.706C108.283 123.071 109.591 122.815 109.591 122.815C111.524 122.575 111.779 122.487 111.819 121.662Z" fill="#634874"/>
<path d="M101.664 109.132C99.7998 109.965 98.586 110.214 96.8757 109.385C95.6041 108.842 95.2531 106.06 95.2852 105.188L95.3087 102.189C95.3772 100.234 97.0384 98.6511 99.0185 98.6511C101.868 98.6489 103.355 100.877 103.278 103.695L103.178 105.383C103.154 106.253 102.521 108.749 101.664 109.132Z" fill="#634874"/>
<path d="M109.199 122.641L109.443 112.39C109.486 111.551 109.539 111.411 108.202 111.299L106.994 111.291C105.999 111.344 105.507 111.851 105.477 112.676L105.892 120.869C105.873 122.328 105.684 122.734 106.71 122.815C108.418 122.951 109.18 123.142 109.199 122.641Z" fill="#7E6391"/>
<path d="M104.816 112.627C104.94 113.899 105.206 115.275 106.967 115.714C107.042 115.733 108.425 115.645 108.425 115.645L107.845 112.275C107.856 111.611 107.502 111.258 107.083 111.211L105.595 111.108C105.049 111.046 104.735 111.783 104.816 112.627Z" fill="#7E6391"/>
<path d="M106.297 112.653C106.402 113.862 106.706 115.222 108.228 115.641C108.292 115.658 108.361 115.658 108.427 115.645C109.332 115.72 110.779 115.149 110.79 114.515L110.936 111.935C110.893 111.828 107.085 111.327 107.085 111.327C106.614 111.269 106.226 111.851 106.297 112.653Z" fill="#634874"/>
<path d="M100.981 103.351C100.881 104.404 99.9282 105.203 98.8536 105.136C97.779 105.07 96.9912 104.161 97.094 103.106C97.1967 102.054 98.1514 101.259 99.2239 101.325C100.294 101.394 101.082 102.301 100.981 103.351Z" fill="#1D2436"/>
<path d="M100.394 102.795C100.255 104.258 98.9321 105.37 97.4379 105.278C95.9416 105.186 94.8477 103.92 94.9912 102.455C95.1346 100.995 96.4596 99.8883 97.9495 99.9828C99.4394 100.077 100.533 101.336 100.394 102.795Z" fill="#F6BE4A"/>
<path d="M99.2573 102.578C99.1696 103.499 98.3347 104.198 97.395 104.14C96.4553 104.082 95.7638 103.285 95.8559 102.363C95.9458 101.444 96.7806 100.745 97.7182 100.805C98.6558 100.866 99.3451 101.658 99.2573 102.578Z" fill="#1D2436"/>
<path d="M103.633 98.9601C104.999 99.9075 105.339 101.308 104.984 103.774C104.954 103.976 105.116 104.157 105.356 104.193L110.352 105.02C110.654 105.067 111.427 105.284 111.459 105.027C111.592 103.985 111.763 101.009 109.592 99.8989C108.567 99.3747 106.09 98.6572 104.07 98.2792C103.573 98.1868 103.25 98.6938 103.633 98.9601Z" fill="#BB83C3"/>
<path d="M104.101 98.0859C104.101 98.0859 107.717 99.5639 106.216 104.576" stroke="#634874" stroke-width="2" stroke-miterlimit="10" stroke-linecap="round" stroke-linejoin="round"/>
<path d="M106.688 98.6575C106.688 98.6575 109.683 100.64 108.243 104.812" stroke="#634874" stroke-width="2" stroke-miterlimit="10" stroke-linecap="round" stroke-linejoin="round"/>
<path d="M108.652 99.2375C108.652 99.2375 111.33 101.205 110.189 105.029" stroke="#634874" stroke-width="2" stroke-miterlimit="10" stroke-linecap="round" stroke-linejoin="round"/>
<path d="M104.866 105.289L111.429 106.434" stroke="#BB83C3" stroke-width="2" stroke-miterlimit="10" stroke-linecap="round" stroke-linejoin="round"/>
<path d="M117.222 114.558C117.222 114.558 116.695 112.474 116.396 111.903C116.248 111.622 116.282 111.061 115.942 110.236C115.574 109.342 115.754 108.621 115.36 107.912C115.026 107.31 113.482 108.406 113.544 109.538C113.579 110.178 113.656 111.428 113.827 112.053C114.02 112.762 111.38 112.202 111.38 112.202C111.1 112.103 109.287 112.232 108.991 112.264L107.12 112.29C106.343 112.541 106.213 113.108 106.239 113.927C106.251 114.365 108.349 114.118 109.238 114.262C109.884 114.365 111.325 114.122 111.346 114.216C111.346 114.216 106.401 115.458 106.129 116.096C105.594 117.361 105.748 119.018 105.945 119.265C106.53 119.997 106.575 120.053 106.575 120.053C106.575 120.053 106.54 120.996 107.225 121.458C108.259 122.156 111.552 122.736 111.552 122.736C111.552 122.736 115.435 121.421 116.083 120.805C116.732 120.19 117.541 119.688 117.625 117.727C117.704 115.772 117.222 114.558 117.222 114.558Z" fill="#F6874E"/>
<path d="M106.125 116.094C105.601 117.364 105.744 119.016 105.941 119.263C106.526 119.995 106.571 120.051 106.571 120.051C106.571 120.051 106.536 120.994 107.221 121.456C108.255 122.154 111.548 122.734 111.548 122.734L110.366 120.481C110.366 120.481 109.317 115.331 109.009 115.155C108.701 114.979 106.318 115.63 106.125 116.094Z" fill="#CE6D3E"/>
<path d="M97.2894 96.4984L97.1524 89.6264L93.9886 92.4942L90.3752 87.1968L90.0028 93.4587L84.7754 93.521L88.8297 96.2728L86.8946 98.6401L92.0963 98.8785C92.5586 98.8978 89.6132 97.6326 89.6132 97.6326L89.9514 96.3866L88.8233 94.4598L91.1951 94.3459L91.6467 91.854L93.8216 93.9764L96.05 92.535C96.0478 92.5329 97.2915 96.5478 97.2894 96.4984Z" fill="#F6BE4A"/>
<path d="M93.9276 113.284L96.3187 115.499C96.3594 115.535 96.4086 115.559 96.4642 115.565C96.9866 115.623 100.227 115.578 101.291 115.409C101.756 115.336 102.884 114.178 104.089 112.994C104.466 112.622 104.736 112.405 105.119 111.939C105.331 111.682 105.384 111.344 105.095 111.179C105.095 111.179 104.622 110.915 104.361 111.11C104.248 111.196 104.239 111.164 104.267 111.099C104.325 110.964 104.267 110.807 104.13 110.751C103.864 110.644 103.458 110.549 103.057 110.751C102.471 111.046 102.535 110.964 102.535 110.964C102.535 110.687 102.225 110.358 101.818 110.343C101.274 110.322 100.842 110.64 100.758 110.706C100.748 110.715 100.011 110.88 99.3584 111.192C98.5835 111.561 97.4361 111.078 96.8324 110.848C95.7214 110.427 94.0004 110.382 93.8398 113.08C93.8398 113.155 93.872 113.232 93.9276 113.284Z" fill="#F6874E"/>
<path d="M117.011 80.6361C115.941 86.7325 113.916 87.8625 113.916 87.8625C105.088 91.1191 97.7328 87.4457 96.9857 82.1204C96.0203 76.7758 95.3738 73.9725 104.349 72.2304C113.267 70.5011 117.953 75.2829 117.011 80.6361Z" fill="#1D2436"/>
<path d="M116.014 79.455C115.103 84.6213 107.446 83.1305 107.446 83.1305C105.898 82.7245 100.568 81.6461 99.5638 78.7784C98.7075 76.3338 97.5859 73.582 105.2 72.104C112.134 70.7593 116.817 74.9138 116.014 79.455Z" fill="#3D4C6D"/>
<path d="M115 82.2713C115 82.2713 115.633 80.6022 115.044 78.7935C115.044 78.7935 117.371 79.3326 115 82.2713Z" fill="#1D2436"/>
<path d="M101.72 74.377C101.72 74.377 96.4518 75.7818 95.8631 76.8087C95.2744 77.8376 97.9052 89.2636 100.067 91.7318C102.234 94.2065 111.834 90.125 113.56 87.4162C114.972 85.2015 114.283 84.4453 113.934 81.5389C113.572 78.51 110.914 77.2447 110.389 76.2029C109.501 74.4264 101.72 74.377 101.72 74.377Z" fill="#CE6D3E"/>
<path d="M112.856 83.0811C113.243 85.0639 111.304 89.5922 107.313 90.8145C103.308 92.0432 100.07 91.7296 98.4148 87.4698C96.7173 83.0983 101.033 77.1329 105.004 75.9428C108.96 74.7592 111.503 78.6216 112.856 83.0811Z" fill="#F6874E"/>
<path d="M101.298 82.6151C101.457 83.311 101.183 83.6999 100.821 83.7858C100.457 83.8717 100.142 83.6247 99.9861 82.9265C99.8277 82.2305 99.9947 81.5947 100.359 81.5088C100.718 81.425 101.14 81.9191 101.298 82.6151Z" fill="#34273A"/>
<path d="M106.427 77.5281L105.412 78.5613" stroke="#34273A" stroke-miterlimit="10" stroke-linecap="round" stroke-linejoin="round"/>
<path d="M100.99 80.6707L99.564 80.763" stroke="#34273A" stroke-miterlimit="10" stroke-linecap="round" stroke-linejoin="round"/>
<path d="M105.806 80.1444C105.976 79.6031 106.887 78.5526 108.039 78.8748C108.039 78.8748 106.496 80.3549 105.967 80.8512C105.886 80.9263 105.774 80.2475 105.806 80.1444Z" fill="#34273A"/>
<path d="M114.758 79.863C114.794 81.6267 113.972 83.1734 112.921 83.3108C111.87 83.4483 110.991 82.1251 110.958 80.3593C110.926 78.5956 111.75 77.0618 112.797 76.9265C113.844 76.789 114.722 78.1037 114.758 79.863Z" fill="#F6874E"/>
<path d="M107.068 72.1514C107.068 72.1514 98.621 81.3347 95.7354 82.4603C92.8413 83.5903 94.2926 75.7087 98.5354 72.914C102.755 70.1386 107.068 72.1514 107.068 72.1514Z" fill="#1D2436"/>
<path d="M107.617 71.9861C107.617 71.9861 107.719 72.6284 105.986 73.7862C102.984 75.7904 97.2112 78.8795 95.7491 79.4487C93.433 80.351 95.2204 75.2169 98.5298 72.8539C102.055 70.3384 107.617 71.9861 107.617 71.9861Z" fill="#3D4C6D"/>
<path d="M101.834 74.568C101.834 74.568 99.4897 78.0952 97.043 79.2209C97.0408 79.223 102.84 76.6689 101.834 74.568Z" fill="#1D2436"/>
<path d="M109.216 74.4886C109.216 74.4886 109.82 78.8236 110.687 79.9299L112.395 81.4701L111.239 75.3264L109.216 74.4886Z" fill="#3D4C6D"/>
</svg>
