<svg width="785" height="720" viewBox="0 0 785 720" fill="none" xmlns="http://www.w3.org/2000/svg">
<path d="M612.402 664.546C612.402 664.546 594.402 689.86 566.402 674.345C538.402 658.83 561.402 593.503 610.402 613.101C610.402 613.101 581.402 576.354 600.402 535.525C619.402 494.696 637.402 507.761 637.402 507.761C637.402 507.761 614.402 487.347 649.402 425.286C684.402 363.225 713.402 337.911 748.402 347.71C783.402 357.509 798.402 458.766 757.402 510.211C757.402 510.211 772.402 494.696 778.402 510.211C784.402 525.726 804.402 584.52 715.402 628.616C626.402 672.712 612.402 664.546 612.402 664.546Z" fill="#FFAF65" fill-opacity="0.5"/>
<path d="M407.402 716.807C419.892 713.859 394.402 617.184 327.402 613.917C260.402 610.651 255.402 636.782 263.402 653.93C263.402 653.93 171.402 564.106 115.402 551.04C59.4021 537.975 84.4021 562.472 84.4021 562.472C84.4021 562.472 16.4021 548.59 2.40209 566.555C-11.5979 584.52 36.4021 644.131 125.402 672.712C214.402 701.292 362.402 727.423 407.402 716.807Z" fill="#FFAF65" fill-opacity="0.5"/>
<path d="M524.402 525.726C524.402 525.726 497.402 449.784 508.402 421.203C508.402 421.203 481.402 421.203 503.402 374.658C525.402 328.112 535.402 322.396 550.402 328.929C565.402 335.462 572.402 366.492 551.402 396.705C551.402 396.705 557.402 377.924 579.402 383.64C601.402 389.356 555.402 504.495 540.402 522.46C525.402 540.425 524.402 525.726 524.402 525.726Z" fill="#FFAF65" fill-opacity="0.5"/>
<path d="M407.402 450.6C407.402 450.6 431.022 449.057 436.402 439.168L438.402 438.352C438.402 438.352 443.402 444.884 430.402 450.6C417.402 456.316 403.402 460.399 407.402 450.6Z" fill="#F3E7D9"/>
<path d="M433.402 429.369C433.402 429.369 444.402 439.168 428.402 446.517C412.402 453.867 388.402 458.766 380.402 442.434C372.402 426.103 394.402 412.221 412.402 415.487C430.402 418.753 433.402 429.369 433.402 429.369Z" fill="#992C29"/>
<path d="M279.402 489.796C278.402 492.246 264.402 506.128 278.402 515.11C292.402 524.093 345.492 480.985 320.402 473.955C295.312 466.924 280.402 487.347 279.402 489.796Z" fill="#992C29"/>
<path d="M321.402 485.714C321.402 485.714 321.402 497.962 304.402 506.128C287.402 514.294 282.402 514.294 277.402 512.661C272.402 511.028 273.402 515.111 275.402 516.744C277.402 518.377 281.402 520.827 295.402 515.927C309.402 511.028 324.402 499.596 326.402 493.063C328.402 486.53 327.402 481.631 321.402 485.714Z" fill="#F3E7D9"/>
<path d="M493.172 594.017C492.741 594.614 492.532 595.301 492.572 595.993C492.722 598.231 494.352 602.061 498.572 605.409C503.122 608.993 508.672 616.261 509.962 617.992C510.169 618.26 510.414 618.507 510.692 618.727C511.942 619.682 514.982 625.676 522.152 624.598C533.362 622.9 530.752 614.693 524.702 607.45C518.652 600.207 514.132 590.955 505.462 589.158C498.552 587.697 494.512 592.18 493.172 594.017Z" fill="#C94039"/>
<path d="M493.402 591.053C492.972 591.649 493.532 594.483 493.572 595.136C493.722 597.373 495.352 601.203 499.572 604.551C504.207 608.22 508.069 612.488 511.002 617.184C513.402 621.267 520.192 624.606 526.402 623.716C532.612 622.826 531.792 613.917 525.742 606.568C519.692 599.219 515.172 590.073 506.502 588.277C499.552 586.88 494.732 589.216 493.402 591.053Z" fill="#121721"/>
<path d="M459.402 518.377C459.402 518.377 471.402 540.425 476.402 550.224C481.402 560.023 486.402 577.171 487.402 583.704C488.402 590.236 488.402 592.686 493.402 592.686C498.402 592.686 510.402 598.402 515.402 593.503C520.402 588.603 513.402 572.272 513.402 572.272C513.402 572.272 515.402 512.661 498.402 498.779C476.812 481.149 459.402 508.578 459.402 518.377Z" fill="#273252"/>
<path d="M495.402 537.975L499.402 574.721C497.948 576.287 496.612 577.923 495.402 579.621C494.402 581.254 501.402 583.704 501.402 583.704C501.402 583.704 488.402 592.686 493.402 592.686C498.402 592.686 510.402 598.402 515.402 593.503C520.402 588.603 513.402 572.272 513.402 572.272C513.402 572.272 515.402 512.661 498.402 498.779C476.812 481.149 495.402 528.176 495.402 537.975Z" fill="#1D2538"/>
<path d="M446.043 635.557C446.043 635.557 440.943 642.514 446.903 651.554C452.863 660.594 455.413 673.806 463.903 680.069C472.393 686.332 481.783 687.721 489.453 682.854C497.123 677.987 490.303 661.288 485.193 654.339C480.083 647.389 478.513 640.065 474.193 633.638C469.873 627.212 456.263 625.823 446.043 635.557Z" fill="#121721"/>
<path d="M396.402 440.801C401.402 440.801 458.402 471.831 474.402 482.447C490.402 493.063 502.402 497.962 502.402 506.128C502.402 514.294 498.402 520.01 491.402 523.276C484.402 526.543 478.402 528.176 460.402 520.01C442.402 511.844 413.402 497.146 390.402 488.98C367.402 480.814 366.402 466.115 375.402 453.05C384.402 439.985 396.402 440.801 396.402 440.801Z" fill="#273252"/>
<path d="M474.402 482.447C490.402 493.063 502.402 497.962 502.402 506.128C502.402 514.294 499.402 520.827 492.402 524.093L485.402 515.11L490.402 506.945L447.402 466.932C447.402 466.932 458.402 471.831 474.402 482.447Z" fill="#273252"/>
<path d="M377.402 555.123C378.152 558.332 380.402 567.372 387.402 572.272C394.402 577.171 404.402 590.237 411.402 604.118C416.125 613.121 422.169 621.621 429.402 629.433C429.402 629.433 432.402 640.048 440.402 643.315C448.402 646.581 465.402 641.681 465.402 641.681C465.402 641.681 474.402 639.232 474.402 633.516C474.402 627.799 465.402 613.101 465.402 613.101C465.402 613.101 422.402 528.993 416.402 527.359C410.402 525.726 373.402 537.975 377.402 555.123Z" fill="#273252"/>
<path d="M394.402 569.822C395.152 573.031 423.402 619.634 430.402 624.533C437.402 629.433 439.402 631.882 444.402 631.882C449.402 631.882 453.402 631.882 446.402 633.515C439.402 635.149 432.402 640.048 440.402 643.315C448.402 646.581 465.402 641.681 465.402 641.681C465.402 641.681 474.402 639.232 474.402 633.515C474.402 627.799 465.402 613.101 465.402 613.101C465.402 613.101 422.402 528.992 416.402 527.359C410.402 525.726 390.402 552.673 394.402 569.822Z" fill="#1D2538"/>
<path d="M306.402 467.749C306.402 467.749 308.402 481.631 328.402 504.495C329.162 505.361 337.902 511.942 338.632 512.816C357.242 535.027 375.402 562.473 386.402 567.372C405.252 575.767 426.402 573.905 428.402 555.94C430.402 537.975 413.402 520.01 395.402 491.43C377.402 462.849 360.402 436.718 332.402 447.334C304.402 457.95 306.402 467.749 306.402 467.749Z" fill="#273252"/>
<path d="M403.402 529.809L375.402 533.892L386.402 567.372C386.402 567.372 424.402 585.337 428.402 555.94C430.842 537.975 413.402 520.01 395.402 491.43C377.402 462.849 403.402 529.809 403.402 529.809Z" fill="#1D2538"/>
<path d="M315.172 484.08C317.402 482.447 347.402 485.713 353.402 484.897C359.402 484.08 384.402 471.831 384.402 471.831L392.402 457.133C392.402 457.133 394.402 464.482 394.402 463.666C394.402 462.849 402.402 443.251 402.402 443.251C402.402 443.251 395.402 439.168 390.402 439.168C384.402 439.168 315.172 484.08 315.172 484.08Z" fill="#1D2538"/>
<path d="M264.402 377.924C260.702 374.903 201.252 302.545 192.482 291.864C192.185 291.5 191.735 291.238 191.217 291.126C190.7 291.015 190.15 291.062 189.672 291.26C189.39 291.374 189.141 291.537 188.942 291.737C188.744 291.938 188.601 292.17 188.522 292.42C188.443 292.669 188.431 292.929 188.486 293.183C188.541 293.436 188.663 293.677 188.842 293.889L262.402 381.19L264.402 377.924Z" fill="#D77D5B"/>
<path d="M194.862 294.502C194.862 294.502 150.402 288.916 136.402 280.75C122.402 272.584 118.402 275.034 125.402 291.366C132.402 307.698 144.402 333.012 144.402 333.012C144.402 333.012 189.402 335.461 206.402 335.461C223.402 335.461 227.612 333.771 227.612 333.771L194.862 294.502Z" fill="#FFACFF"/>
<path d="M157.442 309.657L186.242 312.948L188.252 315.194L158.582 312.156L157.442 309.657Z" fill="#3E4C6F"/>
<path d="M154.022 303.778L194.232 308.424L196.232 310.67L155.162 306.277L154.022 303.778Z" fill="#3E4C6F"/>
<path d="M150.602 298.715L190.812 303.37L192.812 305.607L151.742 301.222L150.602 298.715Z" fill="#3E4C6F"/>
<path d="M202.952 319.236C200.882 318.754 195.602 317.742 193.952 320.747C191.952 324.487 197.862 327.1 199.862 327.1L197.862 328.733C197.862 328.733 201.692 328.578 203.862 327.1C206.912 325.05 207.562 320.314 202.952 319.236Z" fill="#3E4C6F"/>
<path d="M128.402 309.331C129.402 310.147 144.402 333.012 144.402 333.012C144.402 333.012 164.402 324.846 162.402 318.313C160.402 311.78 128.402 309.331 128.402 309.331Z" fill="#665070"/>
<path d="M162.402 318.313C162.402 318.313 151.912 313.797 135.652 312.385C119.392 310.972 86.4019 315.047 79.4019 317.497C79.4019 317.497 50.4019 259.519 43.4019 254.619C43.4019 254.619 69.4019 248.903 95.4019 252.986C121.402 257.069 131.402 269.318 135.402 276.667C139.402 284.016 163.402 310.964 162.402 318.313Z" fill="#BB83C3"/>
<path d="M106.942 277.124C106.872 279.248 103.872 280.129 100.282 279.084C96.6919 278.039 93.9119 275.532 94.0119 273.45C94.1119 271.368 97.0119 270.502 100.582 271.49C104.152 272.478 107.012 275.034 106.942 277.124Z" fill="#F3E7D9"/>
<path d="M93.7617 296.323L96.8817 281.975L112.362 291.488L116.302 269.163L140.052 297.703L93.7617 296.323Z" fill="#F3E7D9"/>
<path d="M328.852 339.626C331.062 321.612 283.622 323.139 259.962 328.357C245.322 331.624 231.232 342.133 228.962 348.429C228.182 350.585 225.382 362.654 226.372 368.582C227.442 375.058 242.372 400.739 254.992 395.995C272.302 389.503 326.632 357.648 328.852 339.626Z" fill="#C94039"/>
<path d="M314.232 348.233C314.532 335.666 289.962 325.418 268.282 328.235C243.032 331.501 229.942 345.065 231.642 351.916C233.342 358.767 254.032 363.593 271.642 363.585C289.252 363.577 314.092 353.835 314.232 348.233Z" fill="#F3E7D9"/>
<path d="M266.312 358.391C244.952 353.745 237.022 357.003 236.882 347.857C236.692 335.609 275.822 332.081 284.882 331.077C293.942 330.072 319.202 344.599 316.492 359.143C313.782 373.686 287.672 363.038 266.312 358.391Z" fill="#273252"/>
<path d="M364.202 217.555C364.202 217.555 350.152 197.458 350.152 196.642C350.152 195.825 352.402 185.006 352.402 179.494C352.402 176.227 358.402 165.612 364.402 166.428C370.402 167.245 368.402 168.061 364.402 182.76C363.222 187.112 371.542 174.766 375.402 179.494C379.262 184.222 385.402 181.943 389.402 184.393C393.402 186.843 395.262 200.839 391.402 203.991C387.542 207.143 384.882 216.354 380.052 218.69C375.222 221.025 364.202 217.555 364.202 217.555Z" fill="#F5894E"/>
<path d="M362.402 186.843C366.091 186.288 369.705 185.44 373.192 184.311C377.402 182.76 383.402 187.659 376.402 191.742C369.402 195.825 365.402 195.825 365.402 195.825C365.402 195.825 350.402 199.092 362.402 186.843Z" fill="#F5894E"/>
<path d="M485.402 87.2193C485.402 87.2193 470.302 126.415 481.852 154.179C493.402 181.943 558.402 136.214 529.402 109.267C500.402 82.3197 485.402 87.2193 485.402 87.2193Z" fill="#665070"/>
<path d="M503.402 61.0886C505.402 62.7218 528.402 91.3023 572.402 85.5862C616.402 79.8701 636.402 64.355 662.402 65.1716C662.402 65.1716 646.402 103.551 662.402 143.564C662.402 143.564 636.402 143.564 587.402 154.179C538.402 164.795 512.402 172.144 489.402 161.529C466.402 150.913 497.402 146.014 512.402 137.031C527.402 128.049 527.932 120.446 516.662 105.062C505.392 89.6773 503.402 61.0886 503.402 61.0886Z" fill="#856792"/>
<path d="M533.672 146.299C547.435 146.299 558.592 137.189 558.592 125.95C558.592 114.711 547.435 105.601 533.672 105.601C519.909 105.601 508.752 114.711 508.752 125.95C508.752 137.189 519.909 146.299 533.672 146.299Z" fill="#F7BC4B"/>
<path d="M544.342 122.782C546.098 122.782 547.522 121.619 547.522 120.185C547.522 118.751 546.098 117.588 544.342 117.588C542.586 117.588 541.162 118.751 541.162 120.185C541.162 121.619 542.586 122.782 544.342 122.782Z" fill="#121721"/>
<path d="M522.952 122.782C524.708 122.782 526.132 121.619 526.132 120.185C526.132 118.751 524.708 117.588 522.952 117.588C521.196 117.588 519.772 118.751 519.772 120.185C519.772 121.619 521.196 122.782 522.952 122.782Z" fill="#121721"/>
<path d="M534.212 136.582C537.725 136.582 540.572 134.063 540.572 130.956C540.572 127.848 537.725 125.329 534.212 125.329C530.7 125.329 527.852 127.848 527.852 130.956C527.852 134.063 530.7 136.582 534.212 136.582Z" fill="#121721"/>
<path d="M525.962 113.922C524.712 112.762 521.042 112.599 519.182 114.935" stroke="#121721" stroke-linecap="round" stroke-linejoin="round"/>
<path d="M541.102 113.922C542.342 112.762 546.022 112.599 547.872 114.935" stroke="#121721" stroke-linecap="round" stroke-linejoin="round"/>
<path d="M431.402 271.768L221.882 7.49599C221.458 6.96347 221.185 6.36087 221.081 5.73159C220.976 5.10231 221.044 4.46201 221.28 3.85676C221.515 3.25152 221.912 2.69641 222.441 2.23138C222.971 1.76635 223.62 1.40299 224.342 1.16745C225.483 0.794473 226.747 0.75931 227.916 1.06807C229.085 1.37682 230.085 2.01001 230.742 2.85778L437.402 268.501L431.402 271.768Z" fill="#7A462F"/>
<path d="M230.402 17.8095L239.402 13.7266C240.914 13.4993 242.439 13.3384 243.972 13.2448C253.622 12.9263 264.902 13.3183 271.402 16.1763C284.402 21.8925 278.402 30.0583 315.402 38.2242C352.402 46.39 362.402 46.39 375.402 40.6739C388.402 34.9578 400.402 15.3598 452.402 26.792C504.402 38.2242 513.402 51.2896 513.402 51.2896C513.402 51.2896 506.402 92.9355 522.402 114.167C522.402 114.167 513.402 99.4681 475.402 101.101C437.402 102.734 422.402 110.084 390.402 118.25C368.862 123.745 340.352 124.35 325.402 123.966C318.142 123.778 315.402 128.049 315.402 128.049L230.402 17.8095Z" fill="#BB83C3"/>
<path d="M481.062 101.183C481.062 101.183 513.062 100.881 522.402 114.167C531.742 127.453 513.242 137.366 506.402 140.167C499.562 142.968 483.192 147.516 481.082 155.02C481.082 155.02 473.172 145.76 481.082 101.183" fill="#665070"/>
<path d="M621.737 124.116C627.54 113.712 622.947 101.819 611.478 97.5533C600.009 93.2871 586.006 98.2628 580.203 108.667C574.399 119.071 578.992 130.963 590.461 135.23C601.931 139.496 615.933 134.52 621.737 124.116Z" fill="#C94039"/>
<path d="M590.98 121.576C592.595 121.276 593.672 120.195 593.384 119.161C593.096 118.128 591.552 117.533 589.937 117.834C588.321 118.134 587.245 119.215 587.533 120.248C587.821 121.282 589.364 121.876 590.98 121.576Z" fill="#121721"/>
<path d="M595.552 119.099L585.972 116.306" stroke="#121721" stroke-width="2" stroke-linecap="round" stroke-linejoin="round"/>
<path d="M611.463 120.161C613.078 119.86 614.154 118.779 613.867 117.746C613.579 116.713 612.035 116.118 610.42 116.418C608.804 116.719 607.728 117.8 608.016 118.833C608.304 119.866 609.847 120.461 611.463 120.161Z" fill="#121721"/>
<path d="M605.862 118.38L615.442 114.265" stroke="#121721" stroke-width="2" stroke-linecap="round" stroke-linejoin="round"/>
<path d="M608.642 126.783C609.002 125.027 605.842 124.48 601.712 124.864C597.582 125.248 595.022 126.571 594.782 128.032C594.542 129.494 608.282 128.53 608.642 126.783Z" fill="#121721"/>
<path d="M399.672 78.0898C404.832 89.9466 401.042 101.191 389.032 103.673C373.702 106.817 351.232 95.0911 343.162 76.6036C335.092 58.1161 347.742 47.2881 366.222 51.3629C380.692 54.5558 394.502 66.2411 399.672 78.0898Z" fill="#F7BC4B"/>
<path d="M375.822 85.7828C379.942 81.1348 387.042 85.3336 387.042 85.3336" stroke="#121721" stroke-width="3" stroke-linecap="round" stroke-linejoin="round"/>
<path d="M388.592 72.4636C389.302 74.0968 388.642 75.3788 387.062 75.3053C385.482 75.2318 383.482 73.7538 382.722 72.039C381.962 70.3241 382.722 69.0503 384.402 69.2136C386.082 69.3769 387.872 70.8222 388.592 72.4636Z" fill="#121721"/>
<path d="M366.082 70.7815C366.942 72.7576 365.832 74.2683 363.542 74.1621C361.252 74.056 358.442 72.2432 357.542 70.1364C356.642 68.0296 357.912 66.5352 360.342 66.7802C361.634 66.9996 362.836 67.4812 363.84 68.1806C364.843 68.8799 365.614 69.7744 366.082 70.7815Z" fill="#121721"/>
<path d="M451.722 86.5333C467.125 86.5333 479.612 76.3368 479.612 63.7587C479.612 51.1807 467.125 40.9841 451.722 40.9841C436.319 40.9841 423.832 51.1807 423.832 63.7587C423.832 76.3368 436.319 86.5333 451.722 86.5333Z" fill="#F7BC4B"/>
<g style="mix-blend-mode:multiply">
<path d="M436.562 51.4365L445.002 55.1928L432.342 57.6916" stroke="#121721" stroke-width="2" stroke-linecap="round" stroke-linejoin="round"/>
</g>
<g style="mix-blend-mode:multiply">
<path d="M466.232 51.4365L457.792 55.1928L470.452 57.6916" stroke="#121721" stroke-width="2" stroke-linecap="round" stroke-linejoin="round"/>
</g>
<path d="M466.402 60.5087C456.514 58.6337 446.214 58.7655 436.402 60.8925C435.437 61.0976 434.6 61.5898 434.056 62.2726C433.512 62.9555 433.3 63.7797 433.462 64.5834C434.462 70.373 441.862 78.3021 452.032 78.3021C462.202 78.3021 468.902 70.7487 469.612 64.0608C469.718 63.2482 469.448 62.4325 468.853 61.7749C468.259 61.1173 467.384 60.6655 466.402 60.5087Z" fill="#121721"/>
<path d="M438.402 73.1169C439.926 71.2527 442.018 69.745 444.473 68.7426C446.929 67.7402 449.661 67.2777 452.402 67.4008C462.032 67.7601 465.672 72.3003 465.672 72.3003C465.672 72.3003 462.612 77.7633 453.402 78.2369C444.192 78.7105 438.402 73.1169 438.402 73.1169Z" fill="#EE5D4F"/>
<path opacity="0.46" d="M230.402 17.8095L239.402 13.7266C240.914 13.4993 242.439 13.3384 243.972 13.2448C253.622 12.9263 264.902 13.3183 271.402 16.1763C284.402 21.8925 278.402 30.0583 315.402 38.2242C352.402 46.39 362.402 46.39 375.402 40.6739C388.402 34.9578 314.112 123.149 314.112 123.149L230.402 17.8095Z" fill="#FFACFF"/>
<path d="M367.482 179.338C367.482 179.338 363.342 190.199 368.552 192.249C373.762 194.298 374.552 187.071 374.552 187.071C374.552 187.071 373.332 191.881 374.712 195.09C376.092 198.3 378.502 197.499 380.422 194.274C382.342 191.048 380.622 193.457 380.622 193.457C380.622 193.457 378.992 199.876 383.392 199.876C387.792 199.876 392.052 186.925 389.522 184.173C386.992 181.421 387.152 181.935 383.522 182.482C383.522 182.482 380.432 178.881 375.992 180.155C375.992 180.155 374.662 176.391 367.492 179.338" fill="#F5894E"/>
<path d="M365.402 204.808C365.402 204.808 370.402 195.743 367.922 192.926C367.922 192.926 374.402 198.275 365.402 204.808Z" fill="#CC6D3D"/>
<path d="M362.402 186.843C366.091 186.288 369.705 185.44 373.192 184.311C377.402 182.76 383.402 187.659 376.402 191.742C369.402 195.825 365.402 195.825 365.402 195.825C365.402 195.825 350.402 199.092 362.402 186.843Z" fill="#CC6D3D"/>
<path d="M360.402 186.843C364.091 186.288 367.705 185.44 371.192 184.311C375.402 182.76 381.402 187.659 374.402 191.742C370.878 193.717 367.535 195.9 364.402 198.275C364.402 198.275 348.402 199.092 360.402 186.843Z" fill="#F5894E"/>
<path d="M359.402 214.966C361.122 219.204 363.822 215.26 372.672 215.848C380.032 216.33 385.672 218.894 386.962 215.342C388.472 211.038 382.902 211.43 371.332 211.389C363.902 211.34 357.642 210.72 359.402 214.966Z" fill="#F3E7D9"/>
<path d="M376.342 301.434C370.464 300.26 365.204 297.571 361.342 293.766C356.342 288.736 357.582 283.714 358.712 275.875C360.952 260.286 359.002 267.146 357.312 256.35C355.162 242.558 351.582 217.154 365.622 215.35C382.862 213.104 386.882 214.411 388.482 218.943C390.082 223.475 387.392 221.793 388.482 225.051C389.572 228.309 392.402 259.421 393.922 266.28C395.442 273.14 394.642 276.986 394.642 276.986C394.642 276.986 395.572 284.915 395.532 289.136C395.492 293.358 394.542 303.206 376.342 301.434Z" fill="#C94039"/>
<path d="M376.282 301.826C376.282 301.826 385.652 287.667 386.422 282.049C387.502 274.128 376.212 223.189 376.212 223.189C376.212 223.189 382.312 208.058 388.512 218.943C390.942 223.214 389.932 242.697 391.022 245.955C392.112 249.214 392.432 259.421 393.952 266.28C395.472 273.14 394.672 276.986 394.672 276.986C394.672 276.986 395.602 284.915 395.562 289.137C395.522 293.358 394.472 303.615 376.282 301.826Z" fill="#992C29"/>
<path d="M385.922 274.503L379.212 257.429L370.552 246.307C370.552 246.307 385.982 254.154 387.712 261.577C388.77 265.933 388.144 270.45 385.922 274.503Z" fill="#992C29"/>
<path d="M362.582 370.493C356.332 370.934 336.672 345.538 336.672 335.796C336.672 331.566 348.072 319.726 348.072 319.726L349.072 315.496C349.892 312.295 353.402 292.182 357.402 288.916C361.402 285.65 367.402 291.366 377.402 291.366C387.402 291.366 396.062 279.46 395.742 291.799C395.422 304.137 383.922 323.319 382.682 332.816C381.442 342.313 368.982 370.036 362.582 370.493Z" fill="#273252"/>
<path d="M362.582 370.493C356.332 370.934 336.672 345.538 336.672 335.796C336.672 331.566 350.252 337.429 353.672 337.65C357.092 337.87 369.242 329.9 369.242 329.9L365.812 325.377C365.812 325.377 367.402 291.366 377.402 291.366C387.402 291.366 396.062 279.46 395.742 291.799C395.422 304.137 383.922 323.319 382.682 332.816C381.442 342.313 368.982 370.036 362.582 370.493Z" fill="#1D2538"/>
<path d="M406.402 432.635C404.402 435.085 404.402 436.718 408.402 437.535C412.402 438.351 411.402 434.268 420.402 433.452C426.012 432.946 433.152 436.588 435.402 439.985C436.762 442.042 433.142 444.99 435.402 444.067C441.402 441.618 442.402 432.635 428.402 429.369C424.461 428.389 420.277 428.249 416.251 428.964C412.224 429.679 408.49 431.224 405.402 433.452" fill="#F3E7D9"/>
<path d="M272.572 354.284C272.572 354.284 288.742 343.08 320.402 337.952C330.402 336.319 346.852 345.816 358.402 367.349C369.952 388.883 398.402 435.126 398.402 435.126C398.402 435.126 376.712 459.362 351.402 473.505C332.632 483.99 310.062 486.424 302.402 482.488C284.402 473.203 246.682 368.068 272.572 354.284Z" fill="#F7BC4B"/>
<path d="M317.332 345.399C320.272 350.993 313.502 361.527 304.212 364.785C294.922 368.043 280.422 362.964 277.472 357.371C274.522 351.777 285.132 348.527 294.402 345.261C303.672 341.994 314.402 339.806 317.332 345.399Z" fill="#F5894E"/>
<path d="M356.402 447.456L343.952 398.232L317.672 342.582C329.892 340.949 354.102 352.602 365.672 374.135C377.242 395.668 398.992 435.085 398.992 435.085L391.992 447.334L347.402 481.63L304.402 484.08L318.072 481.728C318.072 481.728 344.012 476.012 347.872 472.035C355.742 463.87 368.272 437.625 368.272 437.625L356.402 447.456Z" fill="#CE9436"/>
<path d="M318.762 342.386C320.602 336.956 328.402 333.828 334.402 333.828C340.402 333.828 331.402 333.828 351.402 350.977C356.632 355.46 363.483 359.379 366.913 364.042C392.463 398.984 422.072 407.321 428.402 413.037C435.582 419.57 443.822 434.089 438.402 444.068C435.922 448.624 446.402 431.819 424.402 428.552C415.552 427.238 405.402 433.452 405.402 433.452C395.402 430.186 371.202 411.69 362.242 394.827C357.632 386.155 346.402 368.443 336.402 357.509C326.922 347.188 318.402 343.399 318.762 342.386Z" fill="#C94039"/>
<path d="M318.762 342.386C320.602 336.956 328.402 333.828 334.402 333.828C340.402 333.828 331.402 333.828 351.402 350.977C356.632 355.46 363.483 359.379 366.913 364.042C392.463 398.984 422.072 407.321 428.402 413.037C435.582 419.57 443.822 434.089 438.402 444.068C435.922 448.624 446.402 431.819 424.402 428.552L414.603 412.596C404.603 409.33 381.372 393.864 381.372 393.864C381.372 393.864 346.402 368.443 336.402 357.509C326.922 347.188 318.402 343.399 318.762 342.386Z" fill="#992C29"/>
<path d="M305.902 340.769C322.232 345.22 330.062 386.155 322.902 388.058C315.742 389.96 270.782 356.44 279.902 348.119" stroke="#992C29" stroke-miterlimit="10"/>
<path d="M325.847 395.527C327.257 395.174 327.729 393.101 326.901 390.898C326.074 388.695 324.26 387.195 322.851 387.548C321.441 387.901 320.969 389.973 321.796 392.177C322.624 394.38 324.437 395.88 325.847 395.527Z" fill="#29ABE2"/>
<path d="M313.842 337.332C319.782 335.29 322.492 336.09 326.702 337.062C330.912 338.034 334.242 341.366 341.442 350.209C348.642 359.053 359.852 385.674 356.442 386.907C353.032 388.14 341.732 364.973 334.442 357.509C327.152 350.046 307.902 339.373 313.842 337.332Z" fill="#F3E7D9"/>
<path d="M299.402 493.063C306.622 491.095 310.402 484.897 303.402 485.713C296.402 486.53 294.402 490.613 287.402 494.696C280.402 498.779 271.732 505.85 276.402 513.477C278.402 516.744 279.402 516.744 282.402 511.844C285.402 506.945 287.402 496.329 299.402 493.063Z" fill="#F3E7D9"/>
<path d="M272.292 357.599C279.472 359.73 295.292 384.996 300.962 399.245C306.632 413.494 303.212 436.138 306.692 445.153C310.172 454.169 311.582 483.321 309.342 485.844C308.452 486.848 291.762 490.858 285.402 496.304C279.571 501.465 276.047 508.084 275.402 515.086C275.402 515.086 240.612 491.233 258.402 444.043C257.402 425.261 233.752 385.053 235.402 378.716C237.052 372.379 265.112 355.46 272.292 357.599Z" fill="#992C29"/>
<path d="M280.843 367.749C288.033 369.881 295.302 384.996 300.962 399.27C306.622 413.543 303.213 436.163 306.693 445.178C310.173 454.193 311.583 483.345 309.343 485.868C307.703 487.722 302.403 453.05 302.403 453.05C302.403 453.05 292.042 451.262 290.962 444.59C290.442 441.324 292.693 399.417 292.693 399.417C292.693 399.417 273.663 365.61 280.843 367.749Z" fill="#C94039"/>
<path d="M304.702 408.407C306.932 404.822 303.942 399.008 299.192 390.14C294.442 381.272 287.402 366.712 278.782 358.914C269.732 350.748 249.562 359.665 258.682 362.997C268.102 366.435 278.572 372.722 288.392 386.122C299.312 401.025 302.482 411.984 304.702 408.407Z" fill="#F3E7D9"/>
<path d="M287.172 464.115L291.072 464.931C291.072 464.931 288.382 477.343 276.232 480.34L275.022 478.078C275.022 478.078 283.992 475.277 287.172 464.115Z" fill="#F3E7D9"/>
<path d="M294.952 403.532C294.952 403.532 304.132 424.192 288.172 432.072C291.901 422.831 294.179 413.241 294.952 403.532Z" fill="#C94039"/>
<path d="M395.402 414.67L396.402 417.765C396.402 417.765 401.402 420.387 418.402 418.753L417.402 415.487C417.402 415.487 404.402 419.57 395.402 414.67Z" fill="#F3E7D9"/>
<path d="M501.202 261.258C519.991 261.258 535.222 248.821 535.222 233.478C535.222 218.135 519.991 205.698 501.202 205.698C482.413 205.698 467.182 218.135 467.182 233.478C467.182 248.821 482.413 261.258 501.202 261.258Z" fill="#29ABE2"/>
<path d="M478.722 235.544L497.812 220.004L524.822 226.782" stroke="#F3E7D9" stroke-width="5" stroke-linecap="round" stroke-linejoin="round"/>
<path d="M516.612 227.394C516.554 226.546 516.172 225.734 515.522 225.071C514.871 224.408 513.983 223.927 512.982 223.695L501.162 220.796C500.172 220.558 499.12 220.545 498.121 220.758C497.122 220.97 496.213 221.402 495.492 222.005L487.492 228.709C486.756 229.314 486.27 230.093 486.103 230.935C485.936 231.777 486.097 232.641 486.562 233.405L495.402 247.376C495.978 248.233 496.889 248.907 497.989 249.292C499.089 249.677 500.315 249.75 501.472 249.499L513.232 247.14C514.429 246.92 515.497 246.371 516.256 245.584C517.016 244.798 517.42 243.821 517.402 242.82L516.612 227.394ZM503.962 238.459C502.888 238.621 501.78 238.521 500.774 238.174C499.768 237.827 498.909 237.247 498.302 236.505C497.696 235.763 497.368 234.893 497.361 234.001C497.353 233.11 497.666 232.236 498.26 231.487C498.854 230.739 499.703 230.149 500.703 229.79C501.703 229.432 502.809 229.32 503.886 229.469C504.963 229.619 505.962 230.022 506.761 230.63C507.56 231.238 508.124 232.024 508.382 232.89C508.699 234.107 508.412 235.377 507.583 236.422C506.755 237.466 505.452 238.199 503.962 238.459Z" fill="#F3E7D9"/>
<path opacity="0.5" d="M530.402 225.459C530.402 235.634 474.532 235.634 474.532 225.459C474.532 215.284 487.032 207.037 502.462 207.037C517.892 207.037 530.402 215.284 530.402 225.459Z" fill="#FFFCF3"/>
<path d="M456.212 294.599L469.402 315.92" stroke="#F7BC4B" stroke-width="3" stroke-linecap="round" stroke-linejoin="round"/>
<path d="M446.372 318.591L471.032 303.786" stroke="#F7BC4B" stroke-width="3" stroke-linecap="round" stroke-linejoin="round"/>
<path d="M442.182 311.927L466.842 297.131" stroke="#F7BC4B" stroke-width="3" stroke-linecap="round" stroke-linejoin="round"/>
<path d="M445.752 301.042L458.942 322.363" stroke="#F7BC4B" stroke-width="3" stroke-linecap="round" stroke-linejoin="round"/>
<path d="M275.612 145.981L209.152 176.562L261.372 195.515L275.612 145.981Z" fill="#33A86D"/>
<path opacity="0.5" d="M275.612 145.981L250.032 158.687L261.372 195.515L275.612 145.981Z" fill="#FFFCF3"/>
<path d="M275.613 145.981L272.073 149.255L232.623 184.956L235.523 185.822L275.613 145.981Z" fill="#288453"/>
<path d="M178.142 101.02C178.972 102.432 185.322 113.62 181.572 120.471C181.488 120.621 181.465 120.789 181.507 120.95C181.549 121.111 181.654 121.257 181.805 121.366C181.957 121.475 182.147 121.541 182.348 121.555C182.549 121.569 182.751 121.529 182.922 121.442C190.192 117.735 205.782 107.912 205.312 91.9636C204.712 71.3612 177.882 93.5968 178.052 100.701C178.052 100.811 178.083 100.92 178.142 101.02Z" fill="#F7BC4B"/>
<path d="M182.102 64.2651H160.682C147.864 64.2651 137.472 72.7507 137.472 83.2181V91.3105C137.472 101.778 147.864 110.263 160.682 110.263H182.102C194.921 110.263 205.312 101.778 205.312 91.3105V83.2181C205.312 72.7507 194.921 64.2651 182.102 64.2651Z" fill="#F7BC4B"/>
<path opacity="0.5" d="M156.052 78.0574C154.985 77.5297 154.118 76.7704 153.548 75.864C152.978 74.9577 152.727 73.94 152.823 72.9241C152.92 71.9083 153.36 70.9342 154.094 70.1104C154.828 69.2867 155.828 68.6455 156.982 68.2584C167.122 64.943 183.632 67.6378 187.522 68.0134C199.162 69.1566 201.652 80.2622 201.352 91.1636C201.326 92.1001 200.998 93.0144 200.402 93.8147C199.806 94.6151 198.962 95.2733 197.956 95.7234C196.95 96.1734 195.817 96.3995 194.67 96.3789C193.523 96.3582 192.403 96.0917 191.422 95.6058L156.052 78.0574Z" fill="#FFFCF3"/>
<path d="M69.172 211.446C89.9655 211.446 106.822 197.682 106.822 180.702C106.822 163.722 89.9655 149.958 69.172 149.958C48.3785 149.958 31.522 163.722 31.522 180.702C31.522 197.682 48.3785 211.446 69.172 211.446Z" fill="#29ABE2"/>
<path d="M60.4821 201.737C57.2221 203.272 53.8221 202.627 51.4821 199.345L46.9521 192.338C44.6321 189.072 44.8121 185.748 48.0721 184.172C51.3321 182.637 54.5421 182.997 56.8621 186.279L61.3921 193.286C63.7321 196.642 63.7421 200.202 60.4821 201.737Z" fill="#F3E7D9"/>
<path d="M58.3319 185.25C57.0719 183.527 57.8919 181.649 58.4219 179.681C59.0919 177.191 60.3119 171.515 59.8219 170.536C59.0019 168.853 54.8219 162.37 55.7219 160.573C56.6219 158.777 62.1919 158.385 64.5519 160.328C67.4219 162.696 67.4219 163.84 68.4619 167.204C69.3319 170.054 69.0019 170.625 72.4619 169.719C76.4619 168.666 82.1219 168.216 83.8619 167.596C84.4439 167.398 85.0697 167.301 85.7 167.31C86.3303 167.319 86.9514 167.435 87.5243 167.65C88.0972 167.864 88.6095 168.174 89.029 168.558C89.4485 168.942 89.7661 169.393 89.9619 169.882C90.1742 170.277 90.2581 170.71 90.2055 171.139C90.153 171.568 89.9657 171.979 89.6619 172.332C90.2947 172.625 90.8446 173.023 91.2754 173.502C91.7062 173.98 92.0083 174.528 92.1619 175.108C92.4997 176.399 92.3246 177.743 91.6619 178.946C91.6619 178.946 95.1619 180.171 93.9619 184.254C93.9619 184.254 96.2719 187.986 93.2619 190.134C90.9719 191.767 86.8419 193.13 81.8619 194.87C73.4619 197.809 67.6119 197.932 65.9619 196.585C64.3119 195.237 58.3319 185.25 58.3319 185.25Z" fill="#F3E7D9"/>
<path opacity="0.5" d="M96.8222 176.717C96.8222 189.782 38.2222 189.782 38.2222 176.717C38.2222 170.371 41.3091 164.286 46.8039 159.799C52.2987 155.312 59.7513 152.791 67.5222 152.791C75.293 152.791 82.7456 155.312 88.2404 159.799C93.7352 164.286 96.8222 170.371 96.8222 176.717Z" fill="#FFFCF3"/>
<path d="M219.202 237.969C219.668 239.277 219.81 240.647 219.619 242C219.428 243.352 218.909 244.661 218.092 245.847C217.275 247.034 216.176 248.076 214.86 248.912C213.544 249.748 212.037 250.361 210.427 250.716C208.817 251.071 207.137 251.159 205.484 250.977C203.832 250.795 202.24 250.346 200.803 249.655C199.366 248.965 198.112 248.048 197.114 246.957C196.116 245.866 195.395 244.623 194.992 243.302" stroke="#F7BC4B" stroke-width="3" stroke-miterlimit="10"/>
<path d="M194.972 210.589C194.972 210.589 205.612 204.971 213.802 217.538C216.282 221.344 218.002 224.071 221.182 228.742C222.622 230.841 228.662 235.569 228.662 235.569L204.952 240.795" stroke="#F7BC4B" stroke-width="3" stroke-miterlimit="10"/>
<path d="M199.342 209.626C199.342 209.626 186.682 209.144 187.342 223.369C187.542 227.672 187.742 230.718 187.862 236.075C187.912 238.484 185.592 245.057 185.592 245.057L209.312 239.839" stroke="#F7BC4B" stroke-width="3" stroke-miterlimit="10"/>
<path d="M71.9223 398.167C83.2123 411.575 104.572 415.119 120.262 407.313C135.642 399.661 141.822 382.921 133.712 368.672C124.792 353.026 102.042 345.897 83.3523 354.382C64.2223 363.062 59.4623 383.395 71.9223 398.167Z" fill="#EE5D4F"/>
<path opacity="0.5" d="M98.9122 372.543C98.9122 372.543 135.322 382.44 128.242 370.011C120.452 356.358 100.612 350.16 84.3122 357.509C67.6222 365.112 98.9122 372.543 98.9122 372.543Z" fill="#FFFCF3"/>
<g style="mix-blend-mode:color-dodge">
<path d="M79.3425 382.048C79.2225 370.697 95.1825 374.576 97.2225 375.123C97.6825 373.408 101.602 360.376 113.222 366.141C130.222 374.674 114.892 395.138 113.072 397.457L113.142 397.563H112.982C112.956 397.603 112.926 397.641 112.892 397.677L112.822 397.571C109.462 397.816 79.5325 399.065 79.3425 382.048Z" fill="#FFFCF3"/>
</g>
<path d="M293.942 411.224L343.892 394.533C346.063 393.81 348.492 393.799 350.673 394.503C352.853 395.208 354.615 396.573 355.592 398.314L375.112 433.158C375.615 434.053 375.895 435.021 375.935 436.005C375.974 436.989 375.773 437.97 375.343 438.89C374.913 439.81 374.262 440.651 373.429 441.363C372.596 442.076 371.598 442.645 370.492 443.039L316.942 462.13C315.797 462.541 314.56 462.753 313.309 462.755C312.058 462.756 310.82 462.546 309.674 462.138C308.527 461.73 307.496 461.133 306.646 460.384C305.795 459.635 305.144 458.751 304.732 457.786L288.802 420.533C288.037 418.739 288.144 416.774 289.1 415.042C290.056 413.311 291.789 411.944 293.942 411.224Z" fill="#F3E7D9"/>
<path d="M332.712 443.398C343.056 443.398 351.442 436.55 351.442 428.103C351.442 419.656 343.056 412.808 332.712 412.808C322.368 412.808 313.982 419.656 313.982 428.103C313.982 436.55 322.368 443.398 332.712 443.398Z" fill="#29ABE2"/>
<path d="M324.982 421.619L333.152 437.551L341.902 424.649L324.982 421.619Z" fill="#C94039"/>
<g opacity="0.5">
<path opacity="0.5" d="M308.712 408.783L344.712 396.754C346.277 396.233 348.027 396.226 349.598 396.734C351.169 397.242 352.439 398.227 353.142 399.482L367.212 424.584C368.722 427.303 305.482 409.86 308.712 408.783Z" fill="#FFFCF3"/>
</g>
<path d="M272.922 330.733L285.862 358.497C285.862 358.497 290.492 363.397 300.702 360.555C310.912 357.713 310.612 350.528 310.612 350.528L296.492 319.375L272.922 330.733Z" fill="#F5894E"/>
<path d="M272.922 330.733C272.922 330.733 289.822 347.065 295.802 349.515C301.782 351.965 309.402 349.343 309.402 349.343L297.742 319.13L272.922 330.733Z" fill="#CC6D3D"/>
<path d="M253.502 326.291C269.902 340.173 279.102 341.398 279.102 341.398C312.192 334.106 317.322 309.951 308.102 294.036C299.302 277.288 295.152 273.205 272.152 279.827C240.092 289.039 238.892 313.936 253.502 326.291Z" fill="#1D2538"/>
<path d="M253.502 326.291C269.902 340.165 277.402 335.461 277.402 335.461C310.502 328.178 317.322 309.951 308.082 294.028C299.282 277.28 297.082 270.233 269.862 276.716C232.032 285.723 238.892 313.936 253.502 326.291Z" fill="#3E4C6F"/>
<path d="M251.452 327.141C265.452 338.973 284.662 321.163 284.662 321.163C288.392 317.211 283.602 302.382 280.272 292.623C277.402 284.213 279.512 274.781 253.172 285.609C229.762 295.237 239.002 316.607 251.452 327.141Z" fill="#1D2538"/>
<path d="M272.912 281.853C272.912 281.853 293.412 283.829 297.502 285.535C301.592 287.242 316.962 314.532 315.652 325.074C314.352 335.478 278.782 345.146 267.942 341.227C259.062 338.025 258.202 332.334 252.812 324.144C247.132 315.512 252.022 307.232 251.222 303.451C249.832 296.984 272.912 281.853 272.912 281.853Z" fill="#CC6D3D"/>
<path d="M244.942 325.736C248.742 330.423 255.032 333.469 257.492 332.424C259.952 331.379 258.902 326.708 255.092 321.971C251.282 317.235 246.162 314.255 243.702 315.349C241.242 316.443 241.142 321.041 244.942 325.736Z" fill="#CC6D3D"/>
<path d="M296.942 290.459C303.862 291.684 319.442 321.302 311.762 328.488C304.082 335.674 294.862 337.078 285.912 334.31C278.072 331.86 271.962 309.902 277.912 302.716C285.112 293.922 290.012 289.243 296.942 290.459Z" fill="#F5894E"/>
<path d="M247.292 298.217C247.292 298.217 255.242 311.021 255.172 315.578L253.612 322.764L243.272 304.301L247.292 298.217Z" fill="#1D2538"/>
<path d="M294.462 274.838C294.462 274.838 290.612 281.853 270.642 287.324C260.732 290.035 253.462 295.269 248.322 295.759C235.682 296.952 248.372 273.377 268.512 267.244C288.872 261.054 294.462 274.838 294.462 274.838Z" fill="#1D2538"/>
<path d="M268.542 267.007C252.612 272.478 240.452 289.357 250.632 288.393C253.522 288.116 258.082 287.577 263.512 286.646C272.262 283.037 280.312 276.626 280.312 276.626C281.142 280.424 276.592 283.241 271.232 285.201C276.31 284.16 281.317 282.901 286.232 281.428C294.592 278.897 295.632 279.019 295.302 276.569C294.652 271.58 285.752 261.103 268.542 267.007Z" fill="#3E4C6F"/>
<path d="M269.222 304.431C269.962 306.399 271.422 306.979 272.632 306.677C273.842 306.375 274.332 305.305 273.632 303.329C272.932 301.353 271.312 300.005 270.102 300.307C268.892 300.61 268.482 302.439 269.222 304.431Z" fill="#34283A"/>
<path d="M289.512 299.532C290.252 301.5 291.712 302.08 292.922 301.777C294.132 301.475 294.622 300.406 293.922 298.438C293.222 296.47 291.602 295.114 290.402 295.416C289.202 295.718 288.772 297.564 289.512 299.532Z" fill="#34283A"/>
<path d="M263.402 299.605C263.533 299.565 263.649 299.497 263.737 299.408C263.825 299.319 263.882 299.212 263.902 299.099C263.902 298.952 264.622 295.498 268.122 295.31C268.224 295.305 268.325 295.283 268.417 295.246C268.509 295.209 268.591 295.158 268.659 295.095C268.727 295.032 268.779 294.959 268.812 294.879C268.845 294.8 268.859 294.716 268.852 294.632C268.839 294.463 268.745 294.304 268.589 294.191C268.434 294.078 268.23 294.019 268.022 294.028C264.212 294.232 262.642 297.294 262.352 298.928C262.323 299.095 262.376 299.265 262.5 299.401C262.623 299.537 262.807 299.628 263.012 299.654C263.145 299.663 263.278 299.646 263.402 299.605Z" fill="#34283A"/>
<path d="M296.402 291.105C296.475 291.085 296.542 291.055 296.602 291.016C296.766 290.913 296.874 290.762 296.902 290.596C296.93 290.429 296.876 290.26 296.752 290.125C294.582 287.756 290.752 288.336 289.092 288.973C288.913 289.044 288.774 289.168 288.704 289.32C288.633 289.472 288.636 289.64 288.712 289.79C288.799 289.936 288.95 290.05 289.136 290.11C289.321 290.169 289.527 290.168 289.712 290.109C289.872 290.043 293.522 288.736 295.472 290.86C295.57 290.982 295.715 291.072 295.884 291.117C296.053 291.161 296.236 291.157 296.402 291.105Z" fill="#34283A"/>
<path d="M185.032 434.701C185.032 434.701 221.642 389.242 228.512 381.982C235.512 374.576 244.692 368.043 256.142 372.396C267.592 376.748 277.212 390.091 267.872 400.16C258.532 410.228 237.622 435.779 230.522 440.548C223.422 445.317 210.752 455.5 210.592 450.902C210.432 446.305 185.032 434.701 185.032 434.701Z" fill="#1D2538"/>
<path d="M185.032 434.702C183.342 432.897 195.522 421.489 207.402 408.138C216.612 397.784 225.512 385.151 228.512 382.007C235.512 374.601 252.082 366.116 251.402 376.405C250.332 392.468 215.402 400.086 221.872 423.678C226.462 440.409 188.042 437.903 185.032 434.702Z" fill="#273252"/>
<path d="M240.972 392.239C240.972 392.239 225.782 396.542 218.132 408.57C210.482 420.599 240.972 392.239 240.972 392.239Z" fill="#273252"/>
<path d="M269.402 435.902C269.402 435.902 255.402 434.268 233.402 431.819C211.402 429.369 202.402 417.12 191.402 424.469C180.402 431.819 177.402 448.15 186.402 454.683C195.402 461.216 229.402 463.665 246.402 466.115C263.402 468.565 269.402 475.098 273.402 464.482C277.402 453.866 275.402 439.984 269.402 435.902Z" fill="#C94039"/>
<path d="M269.402 435.901C269.402 435.901 255.402 434.268 233.402 431.819C211.402 429.369 257.942 445.545 257.942 445.545C257.942 445.545 269.402 475.098 273.402 464.482C277.402 453.866 275.402 439.984 269.402 435.901Z" fill="#992C29"/>
<path d="M276.722 440.18C276.722 440.18 268.932 438.245 266.342 446.615C263.752 454.985 266.822 464.76 272.202 465.993C277.582 467.226 276.722 462.073 276.722 462.073C276.722 462.073 273.262 460.783 273.262 454.985C273.262 449.187 279.322 443.398 279.322 443.398L276.722 440.18Z" fill="#F3E7D9"/>
<path d="M272.582 458.309C269.582 454.022 271.012 449.955 272.492 444.492C274.342 437.69 278.182 430.994 280.402 426.919C284.402 419.57 291.962 420.027 296.512 419.055C304.132 417.422 307.092 417.765 307.092 417.765C307.092 417.765 313.032 419.545 311.942 421.162C310.852 422.779 302.082 422.55 302.252 422.795C302.422 423.04 304.022 422.485 305.912 423.367C306.565 423.726 307.096 424.214 307.458 424.784C307.819 425.355 308 425.991 307.982 426.633C308.048 427.307 307.845 427.981 307.402 428.552C307.979 428.453 308.579 428.531 309.09 428.771C309.601 429.01 309.986 429.394 310.172 429.851C310.651 430.94 310.917 432.083 310.962 433.239C310.759 434.279 310.285 435.27 309.572 436.146C309.572 436.146 310.962 435.33 311.952 437.437C312.942 439.543 311.502 442.23 311.412 442.712C310.412 448.428 293.412 451.384 293.412 451.384C292.859 453.211 291.849 454.925 290.444 456.418C289.04 457.91 287.272 459.149 285.252 460.056C278.252 463.322 277.862 463.143 276.412 462C275.051 460.83 273.772 459.597 272.582 458.309Z" fill="#F5894E"/>
</svg>
