<svg width="75" height="74" viewBox="0 0 75 74" fill="none" xmlns="http://www.w3.org/2000/svg">
<g clip-path="url(#clip0_24_1228)">
<path d="M14.3727 56.5484L21.6512 69.156C23.2219 71.8795 26.755 72.8878 29.5491 71.2726C32.3138 69.6748 33.264 66.1423 31.6645 63.3753L27.3286 55.8642L31.0836 53.6962C31.7746 53.2965 32.0117 52.4129 31.6126 51.7219L29.7331 48.4665C29.9573 48.4231 31.4308 48.134 57.4165 43.0365C60.6289 42.862 62.5536 39.3486 60.931 36.5399L56.1276 28.2203L59.1972 23.571C59.4986 23.1137 59.5167 22.526 59.2429 22.0518L56.3523 17.0451C56.0784 16.5709 55.5585 16.2931 55.0137 16.3253L49.4532 16.6589L44.1207 7.42249C43.3484 6.08444 41.9646 5.27428 40.42 5.25508C40.4013 5.25452 40.3833 5.25452 40.3646 5.25452C38.8719 5.25452 37.5169 5.9975 36.7141 7.25368L17.8336 31.3057L5.55913 38.3923C0.731453 41.1784 -0.940819 47.3718 1.85609 52.2125C4.41135 56.6388 9.79853 58.3799 14.3727 56.5484ZM29.1618 64.8212C29.9601 66.2021 29.4875 67.9692 28.1026 68.7692C26.7132 69.5726 24.9438 69.0792 24.1545 67.7112L16.928 55.1929L21.9346 52.3023C30.2983 66.7904 29.0274 64.5891 29.1618 64.8212ZM25.8833 53.3603L24.438 50.8569L26.9413 49.4116L28.3866 51.915L25.8833 53.3603ZM54.2955 19.2639L56.293 22.7236L54.5118 25.4211L51.069 19.4575L54.2955 19.2639ZM39.1316 8.83844C39.5195 8.20386 40.1348 8.13837 40.3844 8.14514C40.6311 8.14796 41.2459 8.22475 41.6169 8.86723L58.4276 37.9852C58.9753 38.9331 58.3097 40.1249 57.2116 40.152C57.0145 40.1566 56.9236 40.1921 56.4189 40.2864L38.6365 9.48601C39.0096 9.00612 39.0576 8.95982 39.1316 8.83844ZM36.713 11.9363L53.4204 40.8747L28.2054 45.8204L20.5384 32.541L36.713 11.9363ZM4.35941 50.7672C3.72483 49.6691 3.38947 48.4225 3.38947 47.1612C3.38947 44.5834 4.77494 42.1828 7.00445 40.8956L18.2694 34.3917L25.496 46.9083L14.231 53.4128C10.7798 55.4046 6.3518 54.2179 4.35941 50.7672Z" fill="#FF5100"/>
<path d="M20.2956 46.573C20.9866 46.1744 21.2232 45.2897 20.8246 44.5986C20.4255 43.9082 19.5413 43.671 18.8503 44.0696C18.1593 44.4688 17.9221 45.3535 18.3213 46.044C18.7199 46.735 19.6046 46.9721 20.2956 46.573Z" fill="black"/>
<path d="M15.8181 47.4893C15.4189 46.7982 14.5348 46.5611 13.8438 46.9603L11.3404 48.4056C10.6505 48.8042 9.76471 48.5665 9.36612 47.8766C8.96696 47.1855 8.08284 46.9484 7.3918 47.3476C6.70076 47.7467 6.46364 48.6308 6.86279 49.3219C8.05235 51.3826 10.7059 52.1092 12.7857 50.9089L15.2891 49.4636C15.9801 49.0644 16.2172 48.1809 15.8181 47.4893Z" fill="black"/>
<path d="M72.3516 8.34612L64.298 12.8277C63.6007 13.2161 63.3495 14.0963 63.7379 14.7936C64.1252 15.4903 65.0048 15.7426 65.7038 15.3536L73.7569 10.872C74.4547 10.4836 74.7053 9.60343 74.3169 8.90618C73.9291 8.20836 73.0489 7.95769 72.3516 8.34612Z" fill="black"/>
<path d="M71.5069 23.3153L65.9227 21.8192C65.1514 21.6125 64.3588 22.0698 64.1521 22.8411C63.9455 23.6123 64.4034 24.4044 65.1746 24.611L70.7594 26.1071C71.5351 26.3154 72.3238 25.8508 72.5293 25.0852C72.736 24.314 72.2781 23.5214 71.5069 23.3153Z" fill="black"/>
<path d="M57.4742 3.09502L55.9764 8.67979C55.7698 9.451 56.2271 10.2431 56.9983 10.4503C57.7689 10.6564 58.5616 10.2002 58.7688 9.42842L60.266 3.84365C60.4727 3.07244 60.0154 2.27977 59.2441 2.07314C58.4735 1.8665 57.6808 2.32381 57.4742 3.09502Z" fill="black"/>
</g>
<defs>
<clipPath id="clip0_24_1228">
<rect width="74" height="74" fill="white" transform="translate(0.5)"/>
</clipPath>
</defs>
</svg>
