<svg width="74" height="75" viewBox="0 0 74 75" fill="none" xmlns="http://www.w3.org/2000/svg">
<g clip-path="url(#clip0_24_1207)">
<path d="M73.5767 1.34006C73.2929 1.05635 72.9055 0.902568 72.5029 0.917743C72.1761 0.92945 64.3953 1.24222 55.146 4.51136C47.7345 7.12824 41.5568 10.8749 36.7845 15.6473C35.7151 16.7167 34.6745 17.8507 33.6788 19.0288C28.9602 16.2512 25.179 17.1221 22.7886 18.4014C17.2847 21.3469 13.8779 29.3447 13.8779 35.0652C13.8784 35.6497 14.2306 36.1768 14.7706 36.4004C14.9493 36.4745 15.1372 36.5105 15.3234 36.5105C15.6996 36.5105 16.0692 36.3635 16.3457 36.0872C19.2483 33.1846 22.8284 33.3661 23.998 33.5199L24.5041 34.026C23.508 36.3963 22.7056 38.7533 22.1171 41.0458C21.9046 41.8754 21.9763 42.7532 22.2921 43.5563C20.9005 44.1975 19.558 45.1392 18.389 46.3081C14.6687 50.0286 13.9132 59.0956 13.8828 59.4798C13.8496 59.9014 14.0025 60.3165 14.3015 60.6155C14.5737 60.8875 14.9418 61.0389 15.3234 61.0389C15.3613 61.0389 15.3993 61.0374 15.4373 61.0344C15.8214 61.0042 24.8887 60.2487 28.6091 56.5283C29.7776 55.3598 30.7191 54.0174 31.3604 52.6262C32.2105 52.9604 33.0855 53.0016 33.8723 52.8C36.1637 52.2116 38.5205 51.4095 40.8911 50.4132L41.3972 50.9194C41.5508 52.0891 41.7324 55.6693 38.8299 58.5716C38.4167 58.9849 38.293 59.6066 38.5167 60.1465C38.7403 60.6866 39.2673 61.0387 39.8519 61.0387C45.5724 61.0387 53.57 57.632 56.5156 52.1281C57.7948 49.738 58.6658 45.9568 55.8882 41.238C57.0657 40.2427 58.1998 39.2021 59.2696 38.1323C64.042 33.3599 67.7886 27.1822 70.4054 19.7712C73.6747 10.5215 73.9873 2.74057 73.9991 2.41393C74.0135 2.01285 73.8605 1.62392 73.5767 1.34006ZM17.1094 31.9565C18.0072 27.6115 20.615 22.8435 24.1531 20.9499C26.5175 19.6847 29.1018 19.8087 31.8496 21.3128C29.5087 24.3916 27.4735 27.7086 25.7772 31.2113C25.7556 31.198 25.4955 30.8709 25.0122 30.7619C24.8134 30.717 20.9893 29.8945 17.1094 31.9565ZM26.5651 54.4842C24.5778 56.4715 19.916 57.5197 16.9694 57.9476C17.3975 55.0009 18.4458 50.3392 20.433 48.3521C21.5459 47.2392 22.8362 46.3954 24.1333 45.9202L28.997 50.784C28.5218 52.081 27.6782 53.3714 26.5651 54.4842ZM33.1543 49.9999C32.736 50.107 32.2516 49.9497 31.8914 49.5901C30.0216 47.7203 29.2901 46.9889 29.0606 46.7595C28.6397 46.3386 27.6076 45.3065 25.328 43.0267C24.9675 42.6655 24.8103 42.1812 24.9171 41.7636C25.38 39.9608 25.9854 38.1111 26.7217 36.2436L38.6737 48.1956C36.8059 48.9319 34.9565 49.5372 33.1543 49.9999ZM53.9674 50.7642C52.0737 54.3021 47.3059 56.91 42.961 57.8077C44.3464 55.2008 44.6518 51.8823 44.1456 49.8699C44.0281 49.4025 43.7231 49.1675 43.7061 49.1399C47.2085 47.4436 50.5253 45.4084 53.6044 43.0675C55.1086 45.8156 55.2324 48.4002 53.9674 50.7642ZM57.2259 36.0883C55.9236 37.3906 54.5212 38.6487 53.0577 39.8276C49.5395 42.6604 45.6672 45.06 41.536 46.9701L27.9472 33.3816C29.8573 29.25 32.2568 25.3777 35.0893 21.86C36.2692 20.3955 37.5272 18.9929 38.829 17.6913C43.1108 13.4094 48.6368 10.0017 55.258 7.54868L67.3685 19.6592C64.9159 26.2803 61.5081 31.8063 57.2259 36.0883ZM68.4085 16.6109L58.3063 6.50878C63.8102 4.79927 68.5984 4.15914 70.9883 3.92905C70.7581 6.31944 70.1178 11.1076 68.4085 16.6109Z" fill="#FF5100"/>
<path d="M38.8302 36.0885C38.2651 35.5234 37.3502 35.5234 36.7851 36.0885C36.2214 36.6521 36.2214 37.567 36.7851 38.1321C37.3502 38.6958 38.2651 38.6958 38.8302 38.1321C39.3938 37.567 39.3938 36.6521 38.8302 36.0885Z" fill="black"/>
<path d="M57.2244 17.6924C54.4003 14.8685 49.8285 14.8683 47.0042 17.6924C44.1874 20.5092 44.1873 25.0937 47.0046 27.9128C49.8224 30.7289 54.4069 30.73 57.2244 27.9125C60.0482 25.0887 60.0488 20.5167 57.2244 17.6924ZM55.1804 25.8684C53.4904 27.5586 50.7394 27.5586 49.0486 25.8687C47.3583 24.1774 47.3581 21.4264 49.0483 19.7364C50.7426 18.0421 53.4858 18.0418 55.1804 19.7364C56.8748 21.4306 56.8751 24.1739 55.1804 25.8684Z" fill="black"/>
<path d="M34.7406 60.6152C34.1759 60.0508 33.2607 60.0511 32.6965 60.6155L28.6091 64.7042C28.0449 65.2688 28.045 66.1839 28.6094 66.7482C29.1741 67.3124 30.0893 67.3124 30.6535 66.7479L34.7409 62.6591C35.3051 62.0946 35.305 61.1794 34.7406 60.6152Z" fill="black"/>
<path d="M14.3019 40.1758C13.7376 39.6113 12.8226 39.6113 12.2579 40.1755L8.16912 44.2629C7.60458 44.8271 7.60443 45.7423 8.16868 46.3068C8.73279 46.8711 9.64782 46.8716 10.2126 46.3071L14.3014 42.2198C14.866 41.6555 14.8661 40.7404 14.3019 40.1758Z" fill="black"/>
<path d="M24.5211 62.6604C23.957 62.096 23.0417 62.096 22.4771 62.6603L12.6866 72.4493C12.1221 73.0137 12.1221 73.9289 12.6865 74.4933C13.2506 75.0577 14.1659 75.058 14.7304 74.4934L24.5209 64.7044C25.0855 64.14 25.0855 63.2248 24.5211 62.6604Z" fill="black"/>
<path d="M12.9591 62.6604C12.3948 62.096 11.4795 62.096 10.9151 62.6603L1.12459 72.4493C0.560055 73.0137 0.560055 73.9289 1.12445 74.4933C1.68855 75.0577 2.60387 75.058 3.16841 74.4934L12.9589 64.7044C13.5235 64.14 13.5235 63.2248 12.9591 62.6604Z" fill="black"/>
<path d="M12.2568 50.3952C11.6926 49.8309 10.7772 49.8309 10.2128 50.3953L0.423765 60.1858C-0.140628 60.7504 -0.140628 61.6654 0.42391 62.2299C0.988303 62.7943 1.90347 62.7943 2.46787 62.2298L12.2569 52.4393C12.8213 51.8747 12.8213 50.9597 12.2568 50.3952Z" fill="black"/>
<path d="M44.9612 29.9558C44.3967 29.3914 43.4818 29.3914 42.9172 29.9558L40.8735 31.9994C40.3091 32.5638 40.3091 33.479 40.8735 34.0435C41.438 34.6079 42.353 34.6079 42.9176 34.0435L44.9612 31.9999C45.5256 31.4355 45.5256 30.5203 44.9612 29.9558Z" fill="black"/>
</g>
<defs>
<clipPath id="clip0_24_1207">
<rect width="74" height="74" fill="white" transform="translate(0 0.916748)"/>
</clipPath>
</defs>
</svg>
