<svg width="718" height="805" viewBox="0 0 718 805" fill="none" xmlns="http://www.w3.org/2000/svg">
<path d="M464.317 645.603C467.357 643.784 608.501 618.471 620.324 596.065C632.14 573.652 619.144 568.934 594.325 573.652C594.325 573.652 647.51 563.038 651.058 528.833C651.058 528.833 687.692 495.806 677.057 479.296C666.421 462.786 649.87 491.087 649.87 491.087C649.87 491.087 698.328 425.033 653.418 387.294C608.508 349.549 578.962 384.939 578.962 384.939C578.962 384.939 561.231 356.63 513.961 373.147C466.692 389.665 483.235 436.839 483.235 436.839C483.235 436.839 474.96 422.685 460.777 428.581C446.593 434.476 440.686 458.067 440.686 458.067C440.686 458.067 424.142 452.172 411.139 458.067C398.136 463.963 378.045 520.582 378.045 520.582C378.045 520.582 355.587 511.145 340.223 513.508C324.86 515.863 321.313 533.559 321.313 533.559C321.313 533.559 290.586 478.125 251.584 478.125C212.583 478.125 204.307 511.153 204.307 534.744C204.307 534.744 190.124 524.13 159.398 540.64C128.671 557.149 123.943 627.922 157.037 647.973C157.037 647.973 134.579 656.232 103.852 671.564C73.126 686.896 101.492 690.437 101.492 690.437C101.492 690.437 55.4027 705.769 68.3983 705.769C81.3939 705.769 411.132 677.452 464.317 645.603Z" fill="#F3E7D9"/>
<path d="M199.4 692.203C199.4 692.203 333.539 554.638 338.117 550.456C342.778 546.193 354.474 546.379 344.458 555.86C334.816 564.983 202.858 696.78 202.858 696.78L199.4 692.203Z" fill="#B44C29"/>
<path d="M187.465 706.052C203.418 706.052 191.013 708.706 200.169 707.819C201.29 707.714 202.276 707.565 203.164 707.401C203.336 707.133 203.441 706.947 203.471 706.842C204.128 704.599 217.415 681.671 213.344 678.816C209.304 675.991 178.211 694.998 172.08 701.2C170.108 703.197 167.994 705.65 166.052 708.035C172.206 707.714 179.003 706.052 187.465 706.052Z" fill="#B44C29"/>
<path d="M187.465 706.052C203.419 706.052 191.013 708.706 200.17 707.819C203.307 707.513 205.472 706.939 206.966 706.306C209.58 700.954 220.178 682.007 216.481 679.428C212.411 676.588 180.975 695.632 174.768 701.848C173.036 703.585 171.191 705.665 169.451 707.744C174.716 707.17 180.534 706.052 187.465 706.052Z" fill="#F5894E"/>
<path d="M193.276 717.359C193.276 717.359 143.34 713.528 117.64 721.489C91.9401 729.449 130.643 734.756 130.643 734.756C130.643 734.756 107.595 728.562 133.003 722.666C158.412 716.77 193.276 717.359 193.276 717.359Z" fill="#BB83C3"/>
<path d="M311.857 704.576C311.857 704.576 274.626 702.81 243.899 705.754C213.173 708.706 205.487 716.957 205.487 716.957C205.487 716.957 248.627 706.35 311.857 704.576Z" fill="#BB83C3"/>
<path d="M391.34 724.925C391.34 724.925 352.338 724.627 340.523 727.578C328.707 730.53 349.388 729.345 366.521 728.756C383.662 728.167 353.227 731.708 367.41 733.474C381.593 735.241 450.731 731.119 450.731 731.119L433.889 729.643C433.889 729.643 521.774 725.327 482.638 723.158C456.042 721.682 433.284 724.567 391.34 724.925Z" fill="#BB83C3"/>
<path d="M284.38 713.133C284.38 713.133 253.945 715.198 260.151 723.158C266.358 731.119 321.313 725.812 321.313 725.812C321.313 725.812 272.564 735.539 252.175 729.352C231.785 723.158 258.673 714.9 284.38 713.133Z" fill="#BB83C3"/>
<path d="M297.084 712.544C297.084 712.544 310.379 725.812 340.515 724.045C370.652 722.279 469.926 716.085 514.253 716.085C558.573 716.085 602.414 711.523 611.758 702.817C616.187 698.688 587.828 701.051 587.828 701.051C587.828 701.051 609.689 703.406 580.143 705.769C548.318 708.311 443.345 706.358 412.32 712.552C381.295 718.746 324.562 721.384 297.084 712.544Z" fill="#BB83C3"/>
<path d="M504.499 722.86C504.499 722.86 528.138 724.038 576.595 724.627C609.278 725.022 647.682 723.65 671.134 717.33C696.558 710.472 658.146 700.447 658.146 700.447C658.146 700.447 670.619 693.761 653.65 692.218C633.918 690.422 621.228 692.203 614.417 692.785C607.605 693.366 614.82 691.942 636.875 693.962C667.49 696.765 635.695 699.858 658.146 706.35C685.467 714.244 620.324 719.32 504.499 722.86Z" fill="#BB83C3"/>
<path d="M594.58 752.712C594.58 752.712 586.551 758.131 570.164 755.105C553.778 752.079 564.331 752.161 549.581 753.823C515.135 756.752 504.215 755.597 520.348 744.975C520.348 744.975 481.197 753.361 515.725 756.722C546.742 759.741 558.431 755.09 558.431 755.09C558.431 755.09 594.527 762.916 594.58 752.712Z" fill="#BB83C3"/>
<path d="M602.593 752.347C602.593 752.347 615.596 751.169 615.596 746.451C615.596 741.733 607.911 739.378 607.911 739.378C607.911 739.378 630.37 741.144 622.684 748.225C614.827 755.463 602.593 752.347 602.593 752.347Z" fill="#BB83C3"/>
<path d="M136.939 729.941C134.564 730.493 192.298 728.57 201.94 738.2C206.078 742.329 197.212 747.047 240.942 749.992C284.671 752.936 322.493 742.322 360.905 744.096C360.905 744.096 329.387 740.361 287.233 743.902C258.673 746.302 214.353 745.87 215.533 737.022C216.713 728.167 164.716 723.449 136.939 729.941Z" fill="#BB83C3"/>
<path d="M528.727 703.987C528.727 703.987 546.16 699.858 534.344 697.793C522.528 695.729 455.452 699.269 455.452 699.269C455.452 699.269 537.003 690.72 549.408 697.205C561.821 703.697 528.727 703.987 528.727 703.987Z" fill="#BB83C3"/>
<path d="M327.512 753.473C327.512 753.473 367.245 747.01 381.115 750.2C397.785 754.032 405.844 755.895 424.844 752.414C424.844 752.414 393.521 761.612 377.537 755.53C363.967 750.372 344.451 752.272 327.512 753.473Z" fill="#BB83C3"/>
<path d="M360.494 617.465C388.554 616.041 499.577 599.196 514.888 594.917C530.199 590.639 529.452 588.977 537.093 595.61C552.889 609.31 569.604 630.665 557.736 641.592C514.029 663.529 319.647 619.544 360.494 617.465Z" fill="#7A462F"/>
<path d="M530.453 594.187C511.594 600.307 505.783 599.852 461.695 606.411C430.185 611.107 393.722 618.181 370.733 615.751C370.733 615.751 357.305 608.551 367.499 608.856C436.294 610.951 532.081 589.767 532.081 589.767C532.081 589.767 534.516 592.868 530.453 594.187Z" fill="#D77D5B"/>
<path d="M536.704 637.351C536.704 637.351 571.277 641.771 554.136 619.269C543.956 605.897 528.138 593.71 528.138 593.71L532.126 589.73C539.363 595.76 562.203 616.883 566.348 621.229C574.227 629.488 575.803 632.238 571.075 638.529C566.355 644.82 536.704 637.351 536.704 637.351Z" fill="#D77D5B"/>
<path d="M341.702 498.466C341.702 498.466 350.269 512.323 343.473 517.041C336.676 521.759 316.884 532.671 309.788 534.736C302.693 536.801 295.015 522.348 308.018 515.274C321.021 508.201 337.856 496.991 341.702 498.466Z" fill="#F5894E"/>
<path d="M341.703 498.466C341.703 498.466 350.269 512.323 343.473 517.041C336.676 521.759 316.884 532.671 309.789 534.736C302.693 536.801 316.189 526.872 329.192 519.009C335.683 515.088 328.759 503.408 328.759 503.408C334.861 500.039 339.828 497.743 341.703 498.466Z" fill="#CC6D3D"/>
<path d="M313.433 531.591C314.912 528.825 313.889 516.594 308.691 512.874C299.638 506.397 269.965 481.591 266.059 479.594C262.145 477.596 256.081 487.293 261.899 492.667C267.717 498.041 289.675 525.657 297.674 531.784C305.673 537.911 311.954 534.348 313.433 531.591Z" fill="#F5894E"/>
<path d="M313.433 531.591C313.433 531.591 315.502 528.848 313.523 529.131C310.729 529.533 303.477 529.638 300.438 527.461C291.385 520.984 277.426 505.093 274.633 501.709C272.616 499.264 269.151 495.716 267.343 494.434C260.868 489.835 257.35 488.463 261.906 492.667C267.724 498.041 289.683 525.657 297.682 531.784C305.673 537.911 311.954 534.348 313.433 531.591Z" fill="#CC6D3D"/>
<path d="M341.702 519.106C341.702 519.106 358.544 507.314 361.793 503.475C365.042 499.644 361.577 486.831 351.748 490.208C342.292 493.45 337.863 496.692 333.136 500.233C333.128 500.233 339.634 512.621 341.702 519.106Z" fill="#C94039"/>
<path d="M341.702 519.106C341.702 519.106 358.544 507.314 361.793 503.475C365.042 499.644 361.577 486.831 351.748 490.208C345.728 492.272 344.503 492.638 341.187 494.777C342.741 501.045 342.987 502.201 343.278 508.097C343.57 513.992 341.702 519.106 341.702 519.106Z" fill="#992C29"/>
<path d="M309.49 515.468C309.49 515.468 314.412 518.42 313.627 525.098C313.627 525.098 315.203 512.517 309.49 515.468Z" fill="#CC6D3D"/>
<path d="M267.336 481.211C267.089 479.296 264.58 476.933 262.952 475.017C261.697 473.541 259.061 471.775 256.7 472.364C254.34 472.952 247.051 472.557 246.065 472.557C245.079 472.557 244.093 475.308 245.871 476.098C247.648 476.888 252.369 478.699 252.369 478.699C252.369 478.699 245.871 484.155 244.093 485.139C242.323 486.123 234.242 485.333 234.242 485.333C234.242 485.333 228.132 483.365 227.938 485.527C227.744 487.688 231.09 488.672 231.09 488.672C231.09 488.672 228.528 488.866 228.73 489.85C228.932 490.834 228.536 492.064 229.91 493.048C231.292 494.032 232.666 494.181 234.242 494.568C235.818 494.956 233.458 496.73 237.394 497.125C241.33 497.52 250.591 497.125 251.383 497.319C252.167 497.512 258.082 494.367 261.428 492.205C264.782 490.059 267.582 483.134 267.336 481.211Z" fill="#F5894E"/>
<path d="M261.63 488.538C261.63 488.538 255.916 486.57 253.945 486.965C251.973 487.36 248.821 491.289 248.821 491.289L240.546 493.644L235.228 494.427H240.15L249.8 491.87C249.8 491.87 253.347 488.531 254.721 488.531C256.096 488.531 261.63 488.538 261.63 488.538Z" fill="#CC6D3D"/>
<path d="M231.098 488.538L240.553 488.344L244.489 487.167C244.489 487.167 241.531 489.328 239.171 489.134C236.811 488.933 231.098 488.538 231.098 488.538Z" fill="#CC6D3D"/>
<path d="M244.489 487.159C244.489 487.159 244.885 490.305 246.849 491.087C248.821 491.87 250.397 490.692 250.397 490.692L244.489 487.159Z" fill="#CC6D3D"/>
<path d="M246.259 489.127L238.775 491.289L232.472 491.095C232.472 491.095 242.517 491.684 246.259 489.127Z" fill="#CC6D3D"/>
<path d="M364.893 488.508C364.893 488.508 352.592 488.203 349.754 492.652C346.916 497.102 342.3 515.103 345.534 521.17C348.775 527.238 357.447 540.356 363.115 544.396C363.115 544.396 372.87 557.12 388.636 550.866C404.037 544.761 405.956 546.14 407.577 538.858C409.198 531.583 399.921 505.197 393.984 493.741C389.562 485.199 378.927 486.078 364.893 488.508Z" fill="#F7BC4B"/>
<path d="M364.893 488.508C364.893 488.508 352.592 488.203 349.754 492.653C347.461 495.887 345.609 505.249 345.609 505.249C345.609 505.249 353.929 507.18 360.307 507.016C365.901 506.874 375.267 500.703 379.218 501.12C396.949 502.968 390.444 525.3 390.444 525.3C390.444 525.3 381.466 546.282 385.126 548.891C385.126 548.891 372.87 557.127 388.636 550.873C404.037 544.769 405.956 546.148 407.577 538.865C409.198 531.591 399.922 505.205 393.984 493.748C389.563 485.199 378.927 486.078 364.893 488.508Z" fill="#CE9436"/>
<path d="M365.042 545.939C365.042 545.939 353.227 563.239 343.375 611.204C343.375 611.204 368.59 633.222 409.168 637.15C449.745 641.078 460.777 617.495 460.777 617.495C460.777 617.495 453.689 578.378 430.439 554.787C407.196 531.196 403.252 534.736 393.409 536.309C383.557 537.882 365.042 545.939 365.042 545.939Z" fill="#F7BC4B"/>
<path d="M365.042 545.939C365.042 545.939 353.227 563.239 343.375 611.204C343.375 611.204 368.59 633.222 409.168 637.15C449.745 641.078 460.777 617.495 460.777 617.495C460.777 617.495 382.377 595.67 366.618 587.419C357.783 582.79 365.042 545.939 365.042 545.939Z" fill="#CE9436"/>
<path d="M448.364 619.067C448.364 619.067 401.677 646.788 343.375 611.204C343.375 611.204 368.59 633.222 409.168 637.15C449.745 641.078 460.777 617.495 460.777 617.495C460.777 617.495 453.689 578.378 430.439 554.787C407.196 531.196 403.252 534.736 393.409 536.309C437.138 563.038 448.364 619.067 448.364 619.067Z" fill="#CE9436"/>
<path d="M372.13 558.32C372.13 558.32 367.403 584.855 370.95 587.807C374.498 590.758 372.13 581.322 372.13 558.32Z" fill="#CE9436"/>
<path d="M424.725 556.553C424.725 556.553 434.181 577.781 437.138 599.606C437.138 599.606 427.093 566.183 414.68 552.036C402.267 537.882 418.228 543.576 424.725 556.553Z" fill="#CE9436"/>
<path d="M225.19 568.546C225.19 568.546 211.402 611.398 210.222 619.656C210.222 619.656 230.903 725.514 338.453 718.142L225.19 568.546Z" fill="#7A462F"/>
<path d="M278.763 688.365L261.331 699.277C261.331 699.277 279.062 716.085 305.359 718.149L278.763 688.365Z" fill="#A96443"/>
<path d="M253.056 644.425C248.231 653.667 236.804 670.274 235.624 674.106C235.624 674.106 249.807 693.962 259.553 698.68L278.166 686.59C278.173 686.59 257.507 635.913 253.056 644.425Z" fill="#D77D5B"/>
<path d="M239.47 611.397L220.066 648.554C220.066 648.554 228.439 666.145 234.645 673.517C234.645 673.517 249.814 649.434 252.175 642.949L239.47 611.397Z" fill="#A96443"/>
<path d="M228.536 590.468C228.536 590.468 217.9 618.777 213.763 631.455L219.67 647.578C219.67 647.578 236.811 615.534 237.693 609.34L228.536 590.468Z" fill="#D77D5B"/>
<path d="M225.19 568.941L208.744 612.881C208.348 614.185 207.855 615.571 208.303 616.861L211.402 628.064C211.843 629.324 212.284 629.629 212.717 628.369L229.529 582.313L225.19 568.941Z" fill="#D77D5B"/>
<path opacity="0.5" d="M224.794 574.442C224.794 574.442 224.6 590.661 226.37 606.292C228.14 621.922 230.903 725.521 338.453 718.149C338.453 718.149 305.359 714.609 282.318 688.074C259.262 661.531 224.794 574.442 224.794 574.442Z" fill="#7A462F"/>
<path d="M221.822 563.627C221.687 562.665 222.285 561.748 223.218 561.473L236.61 553.512C237.752 553.303 243.735 558.327 244.788 558.819C244.788 558.819 274.178 589.349 274.095 591.906C273.416 612.426 266.171 654.711 376.074 706.939L370.248 710.07C369.031 710.725 331.455 720.78 330.081 720.751C324.323 720.602 308.018 720.505 308.018 720.505C308.018 720.505 278.188 695.729 262.81 666.54C231.419 606.948 222.822 570.79 221.822 563.627Z" fill="#D77D5B"/>
<path opacity="0.5" d="M236.61 553.505C237.752 553.296 243.735 558.32 244.788 558.812C244.788 558.812 274.177 589.342 274.095 591.899C273.416 612.419 266.171 654.704 376.073 706.932L370.248 710.062C369.03 710.718 331.455 720.773 330.081 720.743C325.473 720.624 314.113 720.542 309.758 720.512C308.623 720.505 307.525 720.087 306.666 719.342C300.676 714.132 276.231 692.017 262.81 666.54C254.542 650.835 248.97 635.622 245.258 621.728C234.877 582.902 236.61 553.505 236.61 553.505Z" fill="#7A462F"/>
<path d="M237.401 553.997C238.544 553.788 256.312 568.643 256.312 568.643C256.312 568.643 266.97 609.348 267.739 611.793C277.807 643.844 349.291 714.408 346.139 717.553C342.987 720.699 331.172 719.909 331.172 719.909C331.172 719.909 324.547 720.311 307.137 698.874C256.701 636.763 237.401 553.997 237.401 553.997Z" fill="#7A462F"/>
<path d="M251.584 566.578C251.584 566.578 258.672 591.936 269.315 618.479C293.514 678.861 325.913 710.271 333.935 717.426C335.093 718.455 336.594 718.999 338.14 718.94C349.253 718.5 392.565 718.813 424.135 715.198C460.179 711.068 529.026 707.237 568.319 647.965C569.768 645.774 572.898 635.823 570.291 636.174C570.291 636.174 481.652 620.841 417.04 605.509C361.091 592.227 299.153 580.733 251.584 566.578Z" fill="#7A462F"/>
<path d="M247.641 564.61L252.368 580.733C252.368 580.733 398.427 614.349 438.318 621.423C478.208 628.496 563.15 648.405 572.016 636.755C573.592 634.787 561.231 629.875 561.231 629.875C550.304 636.583 279.465 571.065 251.188 564.312L247.641 564.61Z" fill="#D77D5B"/>
<path d="M539.923 678.518C539.923 678.518 526.098 688.879 523.76 689.959C521.423 691.04 434.778 707.528 304.179 683.348L283.498 656.217C283.491 656.224 441.828 684.421 539.923 678.518Z" fill="#7A462F"/>
<path d="M524 689.833C524 689.833 500.361 703.1 475.542 708.996C456.706 713.469 344.944 721.086 335.1 718.723C325.256 716.361 304.172 683.341 304.172 683.341C304.172 683.341 470.523 704.286 524 689.833Z" fill="#A96443"/>
<path d="M282.311 647.965L301.221 679.517C301.221 679.517 378.657 688.051 421.184 691.018C492.982 696.034 525.09 689.393 525.09 689.393L540.296 678.965L539.938 678.496C520.623 677.795 348.357 671.325 282.311 647.965Z" fill="#D77D5B"/>
<path d="M280.339 644.82L263.99 611.397C263.99 611.397 295.239 624.143 413.499 644.425C533.851 665.064 558.774 659.265 558.774 659.265L559.132 660.495C559.132 660.495 548.497 673.718 542.387 677.251H541.536C541.536 677.258 335.1 666.048 280.339 644.82Z" fill="#A96443"/>
<path d="M253.944 583.096L263.4 609.042C263.4 609.042 473.772 664.356 561.231 658.065C561.231 658.065 569.208 648.517 570.799 643.024L570.097 642.8C570.097 642.8 557.684 645.207 518.682 639.312C504.909 637.232 336.28 607.864 253.944 583.096Z" fill="#D77D5B"/>
<path opacity="0.5" d="M248.037 565.006C248.037 565.006 252.959 585.056 263.601 611.599C287.8 671.981 321.171 708.43 329.192 715.593C330.35 716.621 333.33 718.738 338.14 718.94C349.253 719.409 392.564 718.813 424.135 715.198C460.179 711.068 529.026 707.237 568.319 647.965C569.768 645.774 569.156 646.042 566.549 646.393C566.549 646.393 515.41 691.286 450.724 676.275C340.612 650.716 313.433 623.592 248.037 565.006Z" fill="#7A462F"/>
<path d="M318.557 611.792C318.557 611.792 348.499 616.906 375.678 623.197C402.864 629.488 333.524 619.656 318.557 611.792Z" fill="#A96443"/>
<path d="M376.073 629.093C376.073 629.093 393.729 633.021 398.136 633.021C402.864 633.021 388.681 629.093 376.073 629.093Z" fill="#A96443"/>
<path d="M295.702 581.128C295.702 581.128 354.369 594.485 363.854 597.25C373.31 600.001 311.065 588.597 295.702 581.128Z" fill="#A96443"/>
<path d="M355.586 601.178C355.586 601.178 406.8 612.583 413.499 614.155C420.191 615.728 379.613 603.534 355.586 601.178Z" fill="#A96443"/>
<path d="M559.013 630.121C573.241 632.946 555.174 606.433 530.355 595.029C530.355 595.037 562.12 621.721 559.013 630.121Z" fill="#A96443"/>
<path d="M501.347 651.111C501.347 651.111 463.137 644.82 448.558 640.497C448.558 640.497 488.739 645.602 501.347 651.111Z" fill="#A96443"/>
<path d="M522.625 649.143C522.625 649.143 497.807 647.175 490.323 645.215C482.832 643.247 510.414 645.215 522.625 649.143Z" fill="#A96443"/>
<path d="M530.109 652.289L509.226 649.538C509.226 649.538 515.926 653.079 530.109 652.289Z" fill="#A96443"/>
<path d="M543.112 631.448C543.112 631.448 526.957 627.907 518.689 626.73C510.414 625.552 528.929 631.448 543.112 631.448Z" fill="#A96443"/>
<path d="M520.257 631.06C520.257 631.06 495.043 627.132 480.471 624.769C465.892 622.407 495.835 630.27 520.257 631.06Z" fill="#A96443"/>
<path d="M283.095 628.698C283.095 628.698 325.248 636.561 339.827 640.489C354.406 644.417 283.095 628.698 283.095 628.698Z" fill="#A96443"/>
<path d="M324.464 642.852C324.464 642.852 353.615 644.82 372.922 650.321C387.441 654.465 324.464 642.852 324.464 642.852Z" fill="#A96443"/>
<path d="M484.408 664.185C484.408 664.185 470.224 660.495 461.217 661.382L465.504 663.693C465.504 663.693 446.197 663.298 428.474 662.12C437.138 664.475 465.205 666.145 484.408 664.185Z" fill="#D77D5B"/>
<path d="M375.088 680.993C375.088 680.993 335.496 680.993 323.083 678.041C310.67 675.089 329.581 678.041 329.581 678.041L304.172 666.249C304.172 666.249 359.134 679.219 375.088 680.993Z" fill="#D77D5B"/>
<path d="M518.092 682.17C518.092 682.17 496.821 683.937 488.545 684.526C488.545 684.526 495.633 685.703 502.139 685.703C508.636 685.711 518.092 682.17 518.092 682.17Z" fill="#D77D5B"/>
<path d="M497.411 689.244C497.411 689.244 453.091 692.196 418.227 686.292C418.227 686.3 476.14 686.889 497.411 689.244Z" fill="#D77D5B"/>
<path d="M229.716 573.659C229.716 573.659 242.719 617.301 253.944 630.867C253.944 630.859 232.083 603.146 229.716 573.659Z" fill="#A96443"/>
<path d="M243.899 607.276C243.899 607.276 254.534 632.633 261.04 639.125C261.04 639.118 252.174 617.89 243.899 607.276Z" fill="#D77D5B"/>
<path d="M250.987 628.504C250.987 628.504 260.046 648.159 264.774 655.24C269.502 662.314 267.732 656.418 273.05 663.104C278.367 669.79 299.638 703.205 299.638 703.205C299.638 703.205 276.791 672.339 270.876 664.088C264.968 655.829 268.71 666.838 264.572 658.587C260.442 650.321 250.987 628.504 250.987 628.504Z" fill="#D77D5B"/>
<path d="M375.678 708.117C375.678 708.117 421.767 706.738 440.088 707.528C440.088 707.528 423.545 709.496 408.57 711.262L417.04 713.424C417.04 713.424 347.11 712.246 343.174 710.472C353.615 710.278 382.176 710.077 382.176 710.077L375.678 708.117Z" fill="#A96443"/>
<path d="M343.764 450.986C344.145 442.944 342.046 434.096 352.629 425.331C366.514 413.83 382.474 430.049 382.474 430.049C382.474 430.049 390.653 427.634 397.247 438.598C404.335 450.39 396.657 460.125 396.657 460.125C396.657 460.125 406.852 468.383 391.78 480.473C383.774 486.898 366.372 488.285 357.947 487.547C341.157 486.086 343.174 463.374 343.764 450.986Z" fill="#273252"/>
<path d="M358.291 474.383L358.881 491.49C358.881 491.49 360.061 497.974 367.156 496.797C374.251 495.619 374.05 487.554 374.05 487.554L375.431 469.076L358.291 474.383Z" fill="#CC6D3D"/>
<path d="M401.789 517.563C401.789 517.563 404.642 539.671 403.537 545.522C402.431 551.373 390.369 556.889 387.576 548.921C384.775 540.953 383.236 526.723 383.229 512.152C383.222 503.431 398.966 504.429 401.789 517.563Z" fill="#F5894E"/>
<path d="M401.789 517.563C401.789 517.563 403.761 532.851 403.79 541.363C403.798 543.084 403.432 538.948 399.317 531.486C392.819 519.695 383.602 524.443 383.505 522.646C383.326 519.225 383.229 515.699 383.229 512.152C383.222 503.431 398.966 504.429 401.789 517.563Z" fill="#CC6D3D"/>
<path d="M382.243 520.433C382.243 520.433 377.545 492.958 383.498 489.276C389.45 485.594 393.222 487.301 397.255 493.704C401.288 500.106 403.29 519.501 403.29 519.501C403.29 519.501 396.747 518.733 382.243 520.433Z" fill="#C94039"/>
<path d="M396.657 508.492C394.887 502.693 387.351 488.881 383.498 489.276C389.45 485.594 393.222 487.301 397.255 493.704C401.288 500.106 403.29 519.501 403.29 519.501L400.444 519.329L396.65 504.564V508.492H396.657Z" fill="#992C29"/>
<path d="M405.157 597.489C403.783 601.983 397.098 600.843 393.7 597.392C390.302 593.941 390.235 586.211 389.48 570.924C388.233 545.648 383.557 541.541 391.631 537.978C398.771 534.826 403.193 535.929 405.023 548.414C406.86 560.906 406.531 593.002 405.157 597.489Z" fill="#F5894E"/>
<path d="M405.157 597.489C403.783 601.983 395.022 599.337 391.624 595.879C388.218 592.428 400.654 591.518 402.61 576.335C406.21 548.436 404.336 551.641 405.023 548.406C406.86 560.906 406.532 593.002 405.157 597.489Z" fill="#CC6D3D"/>
<path d="M388.681 545.939C388.681 545.939 394.589 544.172 396.217 544.314C397.838 544.463 393.7 542.846 388.681 545.939Z" fill="#CC6D3D"/>
<path d="M402.565 593.412C402.565 593.412 406.994 600.195 404.044 600.486C401.086 600.784 399.712 601.373 399.712 601.373C399.712 601.373 398.651 608.916 397.89 609.974C397.128 611.033 395.186 610.824 394.394 610.884C393.117 610.981 393.229 610.183 392.871 609.087C392.281 607.321 392.923 611.398 392.848 611.987C392.774 612.576 391.691 612.628 389.622 612.628C387.553 612.628 387.06 609.974 387.06 609.974C387.06 609.974 387.06 611.353 384.304 611.152C381.548 610.958 381.742 608.595 381.742 608.595L378.396 607.611C378.396 607.611 376.82 598.57 376.82 595.328C376.82 592.085 387.456 589.723 388.636 590.021C389.808 590.319 399.316 587.077 402.565 593.412Z" fill="#F5894E"/>
<path d="M405.224 594.15C405.224 594.15 406.994 600.194 404.044 600.493C401.086 600.791 399.712 601.38 399.712 601.38C399.712 601.38 398.651 608.923 397.89 609.981C397.128 611.04 395.186 610.831 394.394 610.891C393.117 610.987 393.229 610.19 392.871 609.094C392.28 607.328 392.923 611.405 392.848 611.994C392.773 612.583 391.69 612.635 389.622 612.635C387.553 612.635 387.06 609.981 387.06 609.981C387.06 609.981 387.06 611.36 384.304 611.159C381.548 610.965 381.742 608.602 381.742 608.602C381.742 608.602 378.74 608.997 378.396 607.618C378.053 606.239 377.873 604.6 377.425 601.424C377.343 600.858 379.457 600.016 381.399 599.017C382.825 598.286 383.803 597.146 385.536 597.638C388.292 598.421 391.048 598.756 392.624 598.227C396.53 596.922 396.807 593.531 396.807 592.972C396.807 589.729 388.628 590.02 388.628 590.02C388.628 590.02 400.795 587.076 405.224 594.15Z" fill="#CC6D3D"/>
<path d="M333.419 477.201C333.419 477.201 340.5 488.985 351.3 484.155C362.1 479.325 364.766 451.896 348.745 452.432C332.725 452.962 327.43 469.166 333.419 477.201Z" fill="#273252"/>
<path d="M354.272 436.101C348.738 438.807 327.28 440.492 325.801 435.796C324.315 431.1 340.993 422.074 345.788 431.614C345.788 431.614 339.477 422.7 344.921 418.704C350.366 414.709 359.807 433.396 354.272 436.101Z" fill="#273252"/>
<path d="M336.086 453.789C333.554 476.933 348.32 482.463 364.31 480.421C376.327 478.886 378.008 471.26 377.343 456.129C376.679 440.998 370.487 432.814 358.388 431.979C342.427 430.861 337.729 438.747 336.086 453.789Z" fill="#F5894E"/>
<path d="M365.438 451.776C373.713 485.982 348.327 482.463 364.318 480.414C376.335 478.878 378.015 471.253 377.351 456.122C376.686 440.991 370.494 432.807 358.395 431.972C346.721 431.16 341.067 435.162 338.237 443.249C347.02 436.541 359.231 437.033 365.438 451.776Z" fill="#CC6D3D"/>
<path d="M343.256 476.545C348.634 480.563 356.319 481.442 364.318 480.414C376.335 478.878 378.016 471.253 377.351 456.122C376.686 440.991 376.074 466.326 362.286 476.15C349.664 485.147 337.879 472.528 343.256 476.545Z" fill="#CC6D3D"/>
<path d="M379.815 456.592L377.747 456.293C377.747 456.293 372.362 438.636 360.606 434.178C348.26 429.497 340.074 439.239 340.074 439.239C340.074 439.239 347.02 425.04 363.713 431.525C378.075 437.115 379.815 456.592 379.815 456.592Z" fill="#F7BC4B"/>
<path d="M373.004 454.303C371.779 458.932 373.826 464.187 377.448 465.141C381.07 466.095 384.894 462.391 386.119 457.762C387.344 453.133 385.402 448.609 381.78 447.655C378.157 446.701 374.229 449.675 373.004 454.303Z" fill="#CC6D3D"/>
<path d="M381.6 465.268C381.6 465.268 371.6 461.012 365.759 467.705C359.926 474.398 369.314 491.229 380.711 485.132C392.109 479.035 389.263 467.75 381.6 465.268Z" fill="#273252"/>
<path d="M356.461 440.104C355.191 440.253 354.153 441.885 354.153 443.749C354.153 445.612 355.184 446.999 356.461 446.85C357.73 446.701 358.769 445.068 358.769 443.205C358.761 441.341 357.73 439.955 356.461 440.104Z" fill="#273252"/>
<path d="M341.613 441.371C340.791 441.379 340.014 442.743 339.873 444.405C339.731 446.074 340.291 447.416 341.112 447.409C341.934 447.401 342.711 446.037 342.853 444.375C342.987 442.705 342.427 441.364 341.613 441.371Z" fill="#273252"/>
<path d="M359.179 439.046C359.179 439.046 357.753 437.13 353.802 436.906" stroke="#1D2538" stroke-width="0.5" stroke-miterlimit="10" stroke-linecap="round" stroke-linejoin="round"/>
<path d="M343.316 438.114C343.316 438.114 340.956 438.591 340.119 440.007" stroke="#1D2538" stroke-width="0.5" stroke-miterlimit="10" stroke-linecap="round" stroke-linejoin="round"/>
<path d="M371.54 438.8C371.54 438.8 371.054 446.753 373.063 452.216C374.58 456.353 376.641 458.761 376.641 458.761L377.141 457.076L379.606 457.307C379.606 457.307 374.751 451.747 373.302 439.165L371.54 438.8Z" fill="#C94039"/>
<path d="M371.652 437.927C371.652 437.927 368.463 445.232 368.478 451.053C368.485 455.459 369.59 458.425 369.59 458.425L370.636 457.009L372.869 458.067C372.869 458.067 370.218 451.18 373.175 438.867L371.652 437.927Z" fill="#C94039"/>
<path d="M371.301 443.026C372.899 444.062 381.025 437.965 377.896 434.775C374.953 431.771 371.099 428.923 369.523 431.778C367.947 434.626 369.702 441.99 371.301 443.026Z" fill="#C94039"/>
<path d="M376.364 439.97C376.364 439.97 378.784 436.362 377.746 435.527C376.708 434.693 376.327 436.839 374.654 439.142C372.981 441.438 375.311 441.453 376.364 439.97Z" fill="#F7BC4B"/>
<path d="M371.577 440.454C371.577 440.454 372.72 438.822 376.125 439.381C379.539 439.94 381.846 440.671 382.414 442.743C382.982 444.815 380.039 448.899 377.559 450.025C375.08 451.15 371.696 445.404 371.159 443.615C370.628 441.818 371.577 440.454 371.577 440.454Z" fill="#C94039"/>
<path d="M380.383 446.358C380.383 446.358 378.097 449.69 376.342 448.952C373.735 447.856 380.129 443.451 381.055 442.683C381.988 441.908 382.69 444.584 380.383 446.358Z" fill="#F7BC4B"/>
<path d="M254.631 241.634L262.6 222.56L271.966 241.634L264.475 265.024L254.631 241.634Z" fill="#F7BC4B"/>
<path d="M596.491 342.304L601.465 330.385L607.321 342.304L602.638 356.928L596.491 342.304Z" fill="#FEED7F"/>
<path d="M503.229 525.598L511.639 512.621L521.527 525.598L513.618 541.519L503.229 525.598Z" fill="#29ABE2"/>
<path d="M172.767 556.553L177.076 544.284L182.147 556.553L178.092 571.61L172.767 556.553Z" fill="#F7BC4B"/>
<path d="M466.685 129.776L470.994 117.508L476.065 129.776L472.002 144.833L466.685 129.776Z" fill="#29ABE2"/>
<path d="M313.037 136.85L317.347 124.581L322.418 136.85L318.362 151.907L313.037 136.85Z" fill="#29ABE2"/>
<path d="M365.042 81.4168L369.351 69.148L374.423 81.4168L370.367 96.4733L365.042 81.4168Z" fill="#FFACFF"/>
<path d="M563.039 258.666L569.813 239.383L577.774 258.666L571.404 282.324L563.039 258.666Z" fill="#FFACFF"/>
<path d="M587.23 231.214L591.539 218.945L596.611 231.214L592.555 246.263L587.23 231.214Z" fill="#FFACFF"/>
<path d="M416.524 167.649L424.194 151.415L433.217 167.649L426.002 187.572L416.524 167.649Z" fill="#F7BC4B"/>
<path d="M379.3 315.351L383.609 303.075L388.681 315.351L384.625 330.4L379.3 315.351Z" fill="#F7BC4B"/>
<path d="M430.416 399.958L435.465 386.706L441.418 399.958L436.66 416.207L430.416 399.958Z" fill="#F7BC4B"/>
<path d="M139.015 322.82L143.93 311.513L149.718 322.82L145.087 336.281L139.015 322.82Z" fill="#FFACFF"/>
<path d="M212.657 143.931L218.729 133.317L225.884 143.931L220.163 156.953L212.657 143.931Z" fill="#29ABE2"/>
<path d="M223.218 449.809C224.686 449.809 225.877 448.621 225.877 447.155C225.877 445.69 224.686 444.502 223.218 444.502C221.749 444.502 220.559 445.69 220.559 447.155C220.559 448.621 221.749 449.809 223.218 449.809Z" fill="#F7BC4B"/>
<path d="M440.678 438.308C442.146 438.308 443.337 437.12 443.337 435.654C443.337 434.189 442.146 433 440.678 433C439.209 433 438.019 434.189 438.019 435.654C438.019 437.12 439.209 438.308 440.678 438.308Z" fill="#FFACFF"/>
<path d="M482.047 529.422C484.168 529.422 485.886 527.706 485.886 525.59C485.886 523.475 484.168 521.759 482.047 521.759C479.927 521.759 478.208 523.475 478.208 525.59C478.208 527.706 479.927 529.422 482.047 529.422Z" fill="#FFACFF"/>
<path d="M596.984 402.336C599.104 402.336 600.823 400.621 600.823 398.505C600.823 396.389 599.104 394.674 596.984 394.674C594.864 394.674 593.145 396.389 593.145 398.505C593.145 400.621 594.864 402.336 596.984 402.336Z" fill="#FFACFF"/>
<path d="M534.194 483.425C535.419 483.425 536.413 482.434 536.413 481.211C536.413 479.988 535.419 478.997 534.194 478.997C532.969 478.997 531.976 479.988 531.976 481.211C531.976 482.434 532.969 483.425 534.194 483.425Z" fill="#29ABE2"/>
<path d="M519.862 472.811C521.982 472.811 523.701 471.095 523.701 468.98C523.701 466.864 521.982 465.148 519.862 465.148C517.742 465.148 516.023 466.864 516.023 468.98C516.023 471.095 517.742 472.811 519.862 472.811Z" fill="#F7BC4B"/>
<path d="M177.711 491.825C179.505 491.825 180.96 490.374 180.96 488.583C180.96 486.792 179.505 485.34 177.711 485.34C175.917 485.34 174.462 486.792 174.462 488.583C174.462 490.374 175.917 491.825 177.711 491.825Z" fill="#EE5D4F"/>
<path d="M162.796 497.14C165.489 497.14 167.673 494.961 167.673 492.272C167.673 489.584 165.489 487.405 162.796 487.405C160.102 487.405 157.918 489.584 157.918 492.272C157.918 494.961 160.102 497.14 162.796 497.14Z" fill="#F7BC4B"/>
<path d="M225.578 546.528C228.189 546.528 230.306 544.415 230.306 541.81C230.306 539.204 228.189 537.091 225.578 537.091C222.967 537.091 220.851 539.204 220.851 541.81C220.851 544.415 222.967 546.528 225.578 546.528Z" fill="#F7BC4B"/>
<path d="M406.404 278.783C409.015 278.783 411.132 276.671 411.132 274.065C411.132 271.459 409.015 269.347 406.404 269.347C403.793 269.347 401.676 271.459 401.676 274.065C401.676 276.671 403.793 278.783 406.404 278.783Z" fill="#29ABE2"/>
<path d="M139.307 417.959C143.221 417.959 146.394 414.792 146.394 410.885C146.394 406.979 143.221 403.812 139.307 403.812C135.392 403.812 132.219 406.979 132.219 410.885C132.219 414.792 135.392 417.959 139.307 417.959Z" fill="#FFACFF"/>
<path d="M428.564 427.694C429.867 427.694 430.924 426.639 430.924 425.338C430.924 424.037 429.867 422.983 428.564 422.983C427.26 422.983 426.204 424.037 426.204 425.338C426.204 426.639 427.26 427.694 428.564 427.694Z" fill="#29ABE2"/>
<path d="M193.373 548.883C194.676 548.883 195.733 547.829 195.733 546.528C195.733 545.227 194.676 544.172 193.373 544.172C192.069 544.172 191.013 545.227 191.013 546.528C191.013 547.829 192.069 548.883 193.373 548.883Z" fill="#FFACFF"/>
<path d="M222.628 418.555C224.913 418.555 226.766 416.707 226.766 414.426C226.766 412.145 224.913 410.297 222.628 410.297C220.343 410.297 218.49 412.145 218.49 414.426C218.49 416.707 220.343 418.555 222.628 418.555Z" fill="#FFACFF"/>
<path d="M233.853 422.677C235.157 422.677 236.213 421.623 236.213 420.322C236.213 419.021 235.157 417.966 233.853 417.966C232.55 417.966 231.493 419.021 231.493 420.322C231.493 421.623 232.55 422.677 233.853 422.677Z" fill="#F7BC4B"/>
<path d="M456.833 234.553C458.136 234.553 459.193 233.499 459.193 232.198C459.193 230.897 458.136 229.842 456.833 229.842C455.529 229.842 454.473 230.897 454.473 232.198C454.473 233.499 455.529 234.553 456.833 234.553Z" fill="#FFACFF"/>
<path d="M453.681 221.778C456.074 221.778 458.013 219.842 458.013 217.454C458.013 215.067 456.074 213.131 453.681 213.131C451.289 213.131 449.349 215.067 449.349 217.454C449.349 219.842 451.289 221.778 453.681 221.778Z" fill="#F7BC4B"/>
<path d="M485.588 376.68C486.891 376.68 487.948 375.626 487.948 374.325C487.948 373.024 486.891 371.97 485.588 371.97C484.284 371.97 483.228 373.024 483.228 374.325C483.228 375.626 484.284 376.68 485.588 376.68Z" fill="#FFACFF"/>
<path d="M481.749 512.032C483.382 512.032 484.706 510.711 484.706 509.08C484.706 507.45 483.382 506.129 481.749 506.129C480.115 506.129 478.791 507.45 478.791 509.08C478.791 510.711 480.115 512.032 481.749 512.032Z" fill="#29ABE2"/>
<path d="M153.781 598.428C156.392 598.428 158.509 596.316 158.509 593.71C158.509 591.104 156.392 588.992 153.781 588.992C151.17 588.992 149.053 591.104 149.053 593.71C149.053 596.316 151.17 598.428 153.781 598.428Z" fill="#FFACFF"/>
<path d="M578.364 571.595C580.976 571.595 583.092 569.482 583.092 566.877C583.092 564.271 580.976 562.158 578.364 562.158C575.753 562.158 573.637 564.271 573.637 566.877C573.637 569.482 575.753 571.595 578.364 571.595Z" fill="#F7BC4B"/>
<path d="M565.07 553.311C566.865 553.311 568.319 551.859 568.319 550.068C568.319 548.278 566.865 546.826 565.07 546.826C563.276 546.826 561.821 548.278 561.821 550.068C561.821 551.859 563.276 553.311 565.07 553.311Z" fill="#29ABE2"/>
<path d="M108.431 554.488C121.894 554.488 132.809 543.596 132.809 530.16C132.809 516.723 121.894 505.831 108.431 505.831C94.9671 505.831 84.0527 516.723 84.0527 530.16C84.0527 543.596 94.9671 554.488 108.431 554.488Z" fill="#FFACFF"/>
<path d="M119.021 516.236C127.864 521.185 131.009 532.351 126.049 541.169C121.09 549.994 109.902 553.132 101.066 548.183C92.2309 543.233 110.178 511.287 119.021 516.236Z" fill="#BB83C3"/>
<path d="M117.02 530.338C117.02 525.218 112.583 521.141 107.333 521.715C103.285 522.162 100.036 525.479 99.6699 529.526C99.3562 532.955 101.208 536.018 103.867 537.68C104.211 537.896 104.398 538.292 104.398 538.694C104.39 538.977 104.39 539.238 104.39 539.268V540.58C104.39 541.608 105.062 542.451 106.1 542.451H109.476C110.992 542.451 112.217 541.228 112.217 539.715V539.275C112.217 539.246 112.217 538.955 112.21 538.664C112.202 538.277 112.389 537.904 112.725 537.695C115.175 536.16 117.02 533.439 117.02 530.338Z" fill="#EE5D4F"/>
<path d="M106.384 540.721C106.384 540.721 107.385 531.911 105.757 531.285C104.129 530.659 103.442 533.223 106.011 533.037C108.58 532.85 111.523 533.223 111.836 531.852C112.15 530.48 110.649 530.413 110.208 531.792C109.768 533.163 109.521 539.231 110.709 540.789" stroke="#FEED7F" stroke-miterlimit="10"/>
<path d="M112.061 542.987C112.061 545.104 110.343 546.819 108.222 546.819C106.101 546.819 104.383 545.104 104.383 542.987C104.383 540.87 112.061 540.87 112.061 542.987Z" fill="#F3E7D9"/>
<path d="M112.165 543.576H104.487C104.039 543.576 103.673 543.211 103.673 542.764V541.236C103.673 540.789 104.039 540.423 104.487 540.423H112.165C112.613 540.423 112.979 540.789 112.979 541.236V542.764C112.979 543.211 112.613 543.576 112.165 543.576Z" fill="#FFFCF3"/>
<path d="M107.475 518.241L107.385 512.323" stroke="#F3E7D9" stroke-miterlimit="10" stroke-linecap="round" stroke-linejoin="round"/>
<path d="M112.479 519.24L114.316 516.407" stroke="#F3E7D9" stroke-miterlimit="10" stroke-linecap="round" stroke-linejoin="round"/>
<path d="M116.654 521.908L120.665 519.076" stroke="#F3E7D9" stroke-miterlimit="10" stroke-linecap="round" stroke-linejoin="round"/>
<path d="M102.127 519.903L100.372 517.742" stroke="#F3E7D9" stroke-miterlimit="10" stroke-linecap="round" stroke-linejoin="round"/>
<path d="M97.8701 523.489L93.8594 521.237" stroke="#F3E7D9" stroke-miterlimit="10" stroke-linecap="round" stroke-linejoin="round"/>
<path d="M96.6974 528.909L93.9414 528.572" stroke="#F3E7D9" stroke-miterlimit="10" stroke-linecap="round" stroke-linejoin="round"/>
<path d="M122.502 526.91L119.746 528.326" stroke="#F3E7D9" stroke-miterlimit="10" stroke-linecap="round" stroke-linejoin="round"/>
<path d="M104.248 404.826C118.265 404.826 129.627 393.486 129.627 379.498C129.627 365.51 118.265 354.17 104.248 354.17C90.2321 354.17 78.8696 365.51 78.8696 379.498C78.8696 393.486 90.2321 404.826 104.248 404.826Z" fill="#FEED7F"/>
<path d="M113.39 360.767C124.085 365.805 128.664 378.536 123.615 389.21C118.566 399.884 105.809 404.453 95.1139 399.414C84.4187 394.375 102.695 355.728 113.39 360.767Z" fill="#F7BC4B"/>
<path d="M104.241 395.166C112.293 395.166 118.82 388.651 118.82 380.616C118.82 372.58 112.293 366.066 104.241 366.066C96.1894 366.066 89.6621 372.58 89.6621 380.616C89.6621 388.651 96.1894 395.166 104.241 395.166Z" stroke="#29ABE2" stroke-miterlimit="10"/>
<path d="M104.241 395.166C107.285 395.166 109.753 388.651 109.753 380.616C109.753 372.58 107.285 366.066 104.241 366.066C101.197 366.066 98.729 372.58 98.729 380.616C98.729 388.651 101.197 395.166 104.241 395.166Z" stroke="#29ABE2" stroke-miterlimit="10"/>
<path d="M114.682 370.33C114.682 370.33 111.336 375.831 104.241 375.831C97.1533 375.831 93.7998 370.33 93.7998 370.33" stroke="#29ABE2" stroke-miterlimit="10"/>
<path d="M114.682 390.432C114.682 390.432 112.711 384.932 104.241 384.932C95.7716 384.932 93.7998 390.432 93.7998 390.432" stroke="#29ABE2" stroke-miterlimit="10"/>
<path d="M89.6621 380.661H118.693" stroke="#29ABE2" stroke-miterlimit="10"/>
<path d="M586.737 528.84C597.181 528.84 605.648 520.391 605.648 509.967C605.648 499.544 597.181 491.095 586.737 491.095C576.293 491.095 567.826 499.544 567.826 509.967C567.826 520.391 576.293 528.84 586.737 528.84Z" fill="#BB83C3"/>
<path d="M576.37 519.247C570.873 513.985 570.687 505.279 575.96 499.793C581.232 494.307 589.956 494.121 595.453 499.383C600.95 504.646 581.867 524.51 576.37 519.247Z" fill="#FFACFF"/>
<path d="M576.841 509.23C576.841 503.446 581.539 498.765 587.327 498.765C593.123 498.765 597.813 503.453 597.813 509.23" stroke="#1689CB" stroke-width="2" stroke-miterlimit="10"/>
<path d="M576.841 515.17C577.14 521.856 578.715 522.736 580.866 523.414" stroke="#1689CB" stroke-miterlimit="10"/>
<path d="M578.835 517.66H580.022V507.94H578.835C576.146 507.94 573.965 510.117 573.965 512.8C573.973 515.491 576.146 517.66 578.835 517.66Z" fill="#1689CB"/>
<path d="M580.202 507.508H578.708V517.928H580.202V507.508Z" fill="#F3E7D9"/>
<path d="M596.207 517.66H595.02V507.94H596.207C598.896 507.94 601.077 510.117 601.077 512.8C601.077 515.491 598.896 517.66 596.207 517.66Z" fill="#1689CB"/>
<path d="M594.848 517.925L596.341 517.925L596.341 507.505L594.848 507.505L594.848 517.925Z" fill="#F3E7D9"/>
<path d="M581.613 524.808C582.43 524.808 583.092 524.147 583.092 523.332C583.092 522.517 582.43 521.856 581.613 521.856C580.796 521.856 580.134 522.517 580.134 523.332C580.134 524.147 580.796 524.808 581.613 524.808Z" fill="#1689CB"/>
<path d="M558.722 438.009C573.406 438.009 585.31 426.129 585.31 411.474C585.31 396.819 573.406 384.939 558.722 384.939C544.037 384.939 532.133 396.819 532.133 411.474C532.133 426.129 544.037 438.009 558.722 438.009Z" fill="#BB83C3"/>
<path d="M568.072 390.731C577.625 397.171 554.27 431.696 544.71 425.263C535.158 418.823 532.641 405.876 539.094 396.343C545.547 386.802 558.52 384.291 568.072 390.731Z" fill="#FFACFF"/>
<path d="M575.511 400.025H540.938V423.907H575.511V400.025Z" fill="#1689CB"/>
<path d="M570.485 422.752H545.666L542.619 419.584V403.469L545.278 401.181H571.471L573.839 404.252V419.785L570.485 422.752Z" fill="#FFFCF3"/>
<path d="M568.715 405.235H548.624V408.187H568.715V405.235Z" fill="#F3E7D9"/>
<path d="M565.563 411.922H552.171V413.196H565.563V411.922Z" fill="#F3E7D9"/>
<path d="M565.563 413.494H552.171V414.769H565.563V413.494Z" fill="#F3E7D9"/>
<path d="M565.563 415.559H552.171V416.833H565.563V415.559Z" fill="#F3E7D9"/>
<path d="M575.526 424.928L573.338 424.801C573.166 424.794 573.024 424.921 573.009 425.092L572.89 426.971C572.875 427.224 572.569 427.351 572.374 427.187L570.821 425.845C570.686 425.726 570.477 425.748 570.373 425.897L569.125 427.582C568.969 427.79 568.647 427.731 568.58 427.477L568.013 425.39C567.96 425.211 567.766 425.115 567.594 425.189L565.593 426.054C565.361 426.151 565.115 425.949 565.167 425.703L565.682 423.467C565.72 423.288 565.6 423.117 565.421 423.095L563.516 422.856C563.262 422.826 563.15 422.513 563.337 422.327L564.883 420.814C565.01 420.687 565.003 420.486 564.876 420.366L563.442 419.077C563.248 418.906 563.345 418.585 563.599 418.54L565.638 418.183C565.809 418.153 565.929 417.981 565.884 417.81L565.421 415.79C565.369 415.551 565.6 415.343 565.832 415.432L567.789 416.155C567.945 416.215 568.125 416.133 568.184 415.976L568.894 414.12C568.984 413.897 569.282 413.852 569.432 414.046L570.612 415.589C570.709 415.715 570.888 415.745 571.022 415.663L572.748 414.56C572.942 414.433 573.203 414.56 573.226 414.791L573.412 416.729C573.427 416.886 573.554 417.005 573.711 417.005L575.743 417.05C575.967 417.057 576.116 417.296 576.012 417.497L575.13 419.263C575.063 419.405 575.108 419.569 575.235 419.658L576.885 420.769C577.08 420.896 577.065 421.186 576.863 421.298L575.115 422.267C574.973 422.349 574.914 422.521 574.981 422.67L575.832 424.526C575.922 424.705 575.758 424.943 575.526 424.928Z" fill="#F7BC4B"/>
<path d="M570.119 424.883C572.379 424.883 574.212 423.055 574.212 420.799C574.212 418.543 572.379 416.714 570.119 416.714C567.858 416.714 566.026 418.543 566.026 420.799C566.026 423.055 567.858 424.883 570.119 424.883Z" fill="#FFFCF3"/>
<path d="M471.554 364.889C487.22 364.889 499.92 352.214 499.92 336.579C499.92 320.945 487.22 308.27 471.554 308.27C455.888 308.27 443.188 320.945 443.188 336.579C443.188 352.214 455.888 364.889 471.554 364.889Z" fill="#FFACFF"/>
<path d="M490.054 324.027C497.463 331.026 496.604 343.936 488.134 352.858C479.665 361.78 466.796 363.346 459.387 356.347C451.986 349.348 482.652 317.028 490.054 324.027Z" fill="#BB83C3"/>
<path d="M485.819 346.858H457.139C455.227 346.858 453.681 345.315 453.681 343.407V326.316C453.681 324.408 455.227 322.865 457.139 322.865H485.819C487.731 322.865 489.277 324.408 489.277 326.316V343.407C489.277 345.315 487.731 346.858 485.819 346.858Z" fill="#1689CB"/>
<path d="M487.037 324.378H455.922V344.741H487.037V324.378Z" fill="#F3E7D9"/>
<path d="M471.39 334.41C473.592 334.41 475.378 332.628 475.378 330.43C475.378 328.232 473.592 326.45 471.39 326.45C469.187 326.45 467.401 328.232 467.401 330.43C467.401 332.628 469.187 334.41 471.39 334.41Z" fill="#C94039"/>
<path d="M476.311 346.739H466.662V349.042H476.311V346.739Z" fill="#48598B"/>
<path d="M486.095 350.227H456.87C456.564 350.227 456.31 349.974 456.31 349.668V349.184C456.31 348.878 456.564 348.625 456.87 348.625H486.095C486.402 348.625 486.656 348.878 486.656 349.184V349.668C486.656 349.974 486.402 350.227 486.095 350.227Z" fill="#1689CB"/>
<path d="M490.943 329.349H479.389C477.813 329.349 476.536 328.075 476.536 326.502V324.393C476.536 322.82 477.813 321.545 479.389 321.545H490.943C492.519 321.545 493.796 322.82 493.796 324.393V326.502C493.796 328.075 492.519 329.349 490.943 329.349Z" fill="#F7BC4B"/>
<path d="M479.635 327.702C479.77 329.588 478.56 331.742 478.56 331.742C478.56 331.742 483.481 330.631 484.027 327.672C484.019 327.665 479.501 325.816 479.635 327.702Z" fill="#F7BC4B"/>
<path d="M480.98 326.234C481.499 326.234 481.921 325.813 481.921 325.295C481.921 324.776 481.499 324.355 480.98 324.355C480.46 324.355 480.039 324.776 480.039 325.295C480.039 325.813 480.46 326.234 480.98 326.234Z" fill="#F3E7D9"/>
<path d="M485.229 326.234C485.749 326.234 486.17 325.813 486.17 325.295C486.17 324.776 485.749 324.355 485.229 324.355C484.709 324.355 484.288 324.776 484.288 325.295C484.288 325.813 484.709 326.234 485.229 326.234Z" fill="#F3E7D9"/>
<path d="M489.277 326.234C489.797 326.234 490.219 325.813 490.219 325.295C490.219 324.776 489.797 324.355 489.277 324.355C488.758 324.355 488.336 324.776 488.336 325.295C488.336 325.813 488.758 326.234 489.277 326.234Z" fill="#F3E7D9"/>
<path d="M471.517 334.515C467.827 334.515 464.832 337.504 464.832 341.186V344.734H478.201V341.186C478.201 337.504 475.214 334.515 471.517 334.515Z" fill="#C94039"/>
<path d="M561.971 213.959C580.083 213.959 594.766 199.305 594.766 181.229C594.766 163.153 580.083 148.5 561.971 148.5C543.858 148.5 529.175 163.153 529.175 181.229C529.175 199.305 543.858 213.959 561.971 213.959Z" fill="#F7BC4B"/>
<path d="M541.036 200.378C531.76 189.816 532.828 173.746 543.411 164.488C553.994 155.231 587.581 193.491 576.998 202.748C566.407 212.006 550.305 210.947 541.036 200.378Z" fill="#FEED7F"/>
<path d="M562.508 210.276C561.582 210.276 560.835 209.531 560.835 208.607V204.231C560.835 203.307 561.582 202.562 562.508 202.562C563.435 202.562 564.181 203.307 564.181 204.231V208.607C564.189 209.531 563.435 210.276 562.508 210.276Z" fill="#3E4C6F"/>
<path d="M561.822 204.038C556.766 204.038 552.666 199.946 552.666 194.899V178.531C552.666 173.485 556.766 169.393 561.822 169.393C566.879 169.393 570.979 173.485 570.979 178.531V194.899C570.979 199.946 566.879 204.038 561.822 204.038Z" fill="#1689CB"/>
<path d="M562.904 178.792H552.665C552.665 178.792 552.679 177.957 552.702 177.726C552.724 177.502 552.784 177.055 552.784 177.055H562.904V178.792Z" fill="#3E4C6F"/>
<path d="M562.897 180.335H552.657V182.072H562.897V180.335Z" fill="#3E4C6F"/>
<path d="M562.897 183.995H552.657V185.731H562.897V183.995Z" fill="#3E4C6F"/>
<path d="M562.897 187.848H552.657V189.585H562.897V187.848Z" fill="#3E4C6F"/>
<path d="M562.904 191.903H552.665V193.64H562.904V191.903Z" fill="#3E4C6F"/>
<path d="M562.949 197.106H552.934C552.934 197.106 552.702 196.383 552.672 195.369H562.949V197.106Z" fill="#3E4C6F"/>
<path d="M557.885 152.041L558.274 161.276L561.037 162.163L558.864 169.438L565.563 161.082L561.821 159.315L562.807 151.646L557.885 152.041Z" fill="#EE5D4F"/>
<path d="M540.274 161.38L543.605 158.227L545.592 166.247L548.452 164.608L551.97 174.096L547.877 168.357L545.778 169.825L540.274 161.38Z" fill="#EE5D4F"/>
<path d="M574.824 157.154L578.364 159.315L574.57 164.988L577.49 166.516L571.374 174.588L574.01 168.051L571.642 167.075L574.824 157.154Z" fill="#EE5D4F"/>
<path d="M361.054 298.841C378.271 298.841 392.229 284.912 392.229 267.73C392.229 250.547 378.271 236.618 361.054 236.618C343.837 236.618 329.879 250.547 329.879 267.73C329.879 284.912 343.837 298.841 361.054 298.841Z" fill="#F7BC4B"/>
<path d="M388.046 269.802C383.669 277.733 341.329 254.462 345.706 246.531C350.082 238.601 363.108 237.378 374.796 243.811C386.492 250.236 392.423 261.871 388.046 269.802Z" fill="#FEED7F"/>
<path d="M343.174 261.677V279.395" stroke="#C94039" stroke-miterlimit="10"/>
<path d="M343.323 280.557C344.193 280.557 344.899 279.853 344.899 278.985C344.899 278.116 344.193 277.412 343.323 277.412C342.453 277.412 341.747 278.116 341.747 278.985C341.747 279.853 342.453 280.557 343.323 280.557Z" fill="#C94039"/>
<path d="M361.218 267.581L336.019 262.766L361.218 250.474L387.56 262.02L361.218 267.581Z" fill="#29ABE2"/>
<path d="M361.733 257.816C353.391 257.816 346.393 264.882 346.393 264.882V274.147C346.393 275.541 351.837 268.557 362.077 268.557C372.317 268.557 377.605 275.541 377.605 274.147V264.882C377.612 264.882 370.076 257.816 361.733 257.816Z" fill="#1689CB"/>
<path d="M342.18 282.615C342.18 282.615 341.306 281.437 342.389 279.663" stroke="#C94039" stroke-miterlimit="10" stroke-linecap="round" stroke-linejoin="round"/>
<path d="M342.771 282.652C342.771 282.652 342.98 280.058 342.98 279.373" stroke="#C94039" stroke-miterlimit="10" stroke-linecap="round" stroke-linejoin="round"/>
<path d="M344.085 279.596C344.085 279.596 343.935 281.743 343.764 282.51" stroke="#C94039" stroke-miterlimit="10" stroke-linecap="round" stroke-linejoin="round"/>
<path d="M344.398 279.298C344.398 279.298 344.839 280.99 344.764 282.466" stroke="#C94039" stroke-miterlimit="10" stroke-linecap="round" stroke-linejoin="round"/>
<path d="M254.139 410.267C270.209 410.267 283.237 397.265 283.237 381.227C283.237 365.189 270.209 352.188 254.139 352.188C238.068 352.188 225.041 365.189 225.041 381.227C225.041 397.265 238.068 410.267 254.139 410.267Z" fill="#FFACFF"/>
<path d="M266.746 359.701C279.294 366.104 284.26 381.451 277.845 393.973C271.429 406.495 256.051 411.452 243.503 405.049C230.963 398.639 254.199 353.298 266.746 359.701Z" fill="#BB83C3"/>
<path d="M249.553 365.343H255.558C256.85 365.343 258.052 366.014 258.724 367.125L260.696 370.374L248.186 371.135L249.553 365.343Z" fill="#48598B"/>
<path d="M270.39 394.964H239.261C237.872 394.964 236.744 393.839 236.744 392.452V373.535C236.744 372.193 236.52 370.919 237.483 369.994L240.859 365.954C241.569 365.276 242.517 364.896 243.503 364.896H251.091C252.219 364.896 253.257 365.477 253.855 366.424L255.184 368.548H270.383C271.772 368.548 272.9 369.674 272.9 371.06V392.46C272.907 393.839 271.78 394.964 270.39 394.964Z" fill="#1689CB"/>
<path d="M253.376 374.444L260.965 380.825C261.375 381.235 261.375 381.898 260.965 382.308L253.376 388.688C252.712 389.352 251.584 388.882 251.584 387.95V375.197C251.584 374.25 252.712 373.781 253.376 374.444Z" fill="#F7BC4B"/>
<path d="M242.696 367.095L241.173 369.078" stroke="#29ABE2" stroke-miterlimit="10"/>
<path d="M245.901 367.095L244.377 369.078" stroke="#29ABE2" stroke-miterlimit="10"/>
<path d="M248.799 367.095L247.275 369.078" stroke="#29ABE2" stroke-miterlimit="10"/>
<path d="M325.301 116.01C339.986 116.01 351.89 104.129 351.89 89.4743C351.89 74.8194 339.986 62.9391 325.301 62.9391C310.617 62.9391 298.712 74.8194 298.712 89.4743C298.712 104.129 310.617 116.01 325.301 116.01Z" fill="#F7BC4B"/>
<path d="M346.505 100.923C340.358 111.269 326.967 114.683 316.6 108.548C306.233 102.414 328.498 64.9442 338.864 71.0786C349.231 77.213 352.652 90.5774 346.505 100.923Z" fill="#FEED7F"/>
<path d="M325.988 108.548C330.476 108.548 334.114 99.7016 334.114 88.7886C334.114 77.8756 330.476 69.0288 325.988 69.0288C321.5 69.0288 317.862 77.8756 317.862 88.7886C317.862 99.7016 321.5 108.548 325.988 108.548Z" stroke="#29ABE2" stroke-miterlimit="10"/>
<path d="M325.988 96.8982C336.923 96.8982 345.788 93.2674 345.788 88.7886C345.788 84.3098 336.923 80.679 325.988 80.679C315.053 80.679 306.188 84.3098 306.188 88.7886C306.188 93.2674 315.053 96.8982 325.988 96.8982Z" stroke="#29ABE2" stroke-miterlimit="10"/>
<path d="M331.731 94.5259C339.464 86.8093 343.159 77.9864 339.986 74.8194C336.812 71.6524 327.972 75.3406 320.24 83.0572C312.507 90.7738 308.812 99.5967 311.985 102.764C315.159 105.931 323.999 102.242 331.731 94.5259Z" stroke="#9E54C7" stroke-miterlimit="10"/>
<path d="M339.986 102.764C343.159 99.5966 339.464 90.7737 331.731 83.0572C323.999 75.3406 315.159 71.6524 311.985 74.8193C308.812 77.9863 312.507 86.8092 320.24 94.5258C327.972 102.242 336.812 105.931 339.986 102.764Z" stroke="#9E54C7" stroke-miterlimit="10"/>
<path d="M325.988 90.5551C327.048 90.5551 327.908 89.6974 327.908 88.6395C327.908 87.5815 327.048 86.7239 325.988 86.7239C324.928 86.7239 324.069 87.5815 324.069 88.6395C324.069 89.6974 324.928 90.5551 325.988 90.5551Z" fill="#9E54C7"/>
<path d="M192.342 253.627C215.842 253.627 234.892 234.616 234.892 211.163C234.892 187.711 215.842 168.7 192.342 168.7C168.843 168.7 149.793 187.711 149.793 211.163C149.793 234.616 168.843 253.627 192.342 253.627Z" fill="#FFACFF"/>
<path d="M207.661 178.762C225.593 187.207 233.264 208.562 224.809 226.451C216.347 244.347 194.949 252.002 177.024 243.565C159.091 235.12 189.728 170.317 207.661 178.762Z" fill="#BB83C3"/>
<path d="M216.198 190.614L216.369 227.994L213.882 228.538L192.589 231.654H189.833C189.833 231.654 169.593 228.583 165.007 228.732L162.945 228.553L162.109 195.727C162.109 195.727 180.445 192.246 187.891 199.334C187.884 199.334 207.183 189.145 216.198 190.614Z" fill="#C94039"/>
<path d="M215.608 191.046L215.772 227.599L213.337 228.136L192.507 231.184H189.81C189.81 231.184 170.011 228.18 165.53 228.329L163.513 228.158L162.691 196.047C162.691 196.047 180.624 192.641 187.906 199.573C187.913 199.58 206.787 189.615 215.608 191.046Z" fill="#EE5D4F"/>
<path d="M190.729 230.17L189.063 198.373C189.063 198.373 203.164 186.685 212.777 188.176C212.777 188.176 214.756 215.919 214.973 224.491C214.988 225.176 213.554 226.645 213.554 226.645L190.729 230.17Z" fill="#F3E7D9"/>
<path d="M188.839 198.5C188.839 198.5 179.436 189.145 163.349 194.922L163.774 225.206L165.156 227.353C170.504 227.435 185.307 228.27 191.095 230.819L188.839 198.5Z" fill="#F3E7D9"/>
<path d="M189.205 198.224C189.205 198.224 177.853 185.992 171.198 185.605L172.02 222.836C172.02 222.836 188.302 225.825 190.729 230.155L189.205 198.224Z" fill="#FFFCF3"/>
<path d="M213.554 226.637C213.554 226.637 212.441 188.884 212.725 188.169L214.674 188.75L215.167 227.092L213.554 226.637Z" fill="#FFFCF3"/>
<path d="M215.167 227.099L213.658 226.458L190.729 230.17L191.095 230.819L215.167 227.099Z" fill="#FFFCF3"/>
<path d="M165.163 227.353L163.782 225.206C163.782 225.206 185.986 225.46 190.729 230.17L191.117 230.819C191.117 230.819 177.39 227.524 165.163 227.353Z" fill="#FFFCF3"/>
<path d="M206.451 220.749L205.069 221.992L207.22 224.372L208.601 223.129L206.451 220.749Z" fill="#48598B"/>
<path d="M201.155 224.133C205.507 224.133 209.035 220.612 209.035 216.269C209.035 211.926 205.507 208.406 201.155 208.406C196.804 208.406 193.276 211.926 193.276 216.269C193.276 220.612 196.804 224.133 201.155 224.133Z" fill="#1689CB"/>
<path d="M201.156 222.955C204.856 222.955 207.855 219.962 207.855 216.269C207.855 212.577 204.856 209.583 201.156 209.583C197.456 209.583 194.456 212.577 194.456 216.269C194.456 219.962 197.456 222.955 201.156 222.955Z" fill="#F3E7D9"/>
<path d="M207.855 216.269C207.855 219.959 204.86 222.955 201.155 222.955C201.155 222.955 209.924 218.535 201.155 209.591C204.852 209.591 207.855 212.58 207.855 216.269Z" fill="#FFFCF3"/>
<path d="M217.213 234.054C216.429 234.762 215.219 234.695 214.509 233.912L206.966 225.564C206.257 224.781 206.324 223.574 207.108 222.866C207.892 222.158 209.102 222.225 209.812 223.007L217.355 231.356C218.065 232.138 217.997 233.346 217.213 234.054Z" fill="#F7BC4B"/>
<path d="M532.865 688.461C532.865 688.461 418.227 523.921 415.86 519.993C413.5 516.065 417.241 508.79 422.656 517.145C428.071 525.501 539.953 686.695 539.953 686.695L532.865 688.461Z" fill="#B44C29"/>
<path d="M573.637 741.144C580.844 742.858 589.045 740.592 594.654 738.386C581.442 722.517 556.235 692.337 554.136 691.01C551.111 689.095 523.014 663.096 518.286 666.242C513.558 669.387 531.677 715.779 539.169 727.183C543.896 734.384 551.141 743.47 555.846 749.202C567.423 745.191 562.628 738.528 573.637 741.144Z" fill="#B44C29"/>
<path d="M573.637 741.144C582.331 743.209 592.458 739.489 597.761 737.074C585.079 721.839 557.901 689.251 555.712 687.872C552.687 685.957 524.59 659.958 519.862 663.104C515.135 666.249 533.254 712.641 540.745 724.045C546.018 732.073 554.42 742.456 558.939 747.897C566.602 743.924 563.764 738.796 573.637 741.144Z" fill="#F5894E"/>
<path d="M481.585 618.165L482.19 620.729C482.309 621.229 482.944 621.4 483.288 621.013C484.968 619.164 489.181 615.862 494.603 621.274L496.276 621.616L496.224 619.5C496.224 619.5 490.323 609.228 482.227 616.138C481.652 616.645 481.406 617.427 481.585 618.165Z" fill="#A96443"/>
</svg>
