<svg width="793" height="605" viewBox="0 0 793 605" fill="none" xmlns="http://www.w3.org/2000/svg">
<path d="M73.1492 472.891C73.1492 472.891 71.5542 447.252 88.3248 435.679C105.102 424.1 110.688 438.16 110.688 438.16C110.688 438.16 115.893 404.135 142.253 402.484C168.614 400.833 180.186 424.1 180.186 424.1C180.186 424.1 209.408 398.652 214.535 427.409C219.654 456.167 81.9316 488.608 49.1845 496.049C16.4309 503.483 73.1492 472.891 73.1492 472.891Z" fill="#F4E8D8"/>
<path d="M103.848 594.337C142.28 595.41 207.715 581.432 283.54 541.646C348.68 507.465 360.403 484.653 360.403 484.653L289.776 513.69C289.776 513.69 342.746 478.205 350.537 454.013C358.329 429.822 240.16 525.996 175.519 557.778C133.97 578.211 103.848 594.337 103.848 594.337Z" fill="#F4E8D8"/>
<path d="M463.226 567.189C497.785 550.453 545.681 529.265 553.787 519.357C566.003 504.428 587.309 471.07 604.684 458.838C654.963 423.434 657.332 469.473 657.332 469.473C657.332 469.473 663.791 452.131 679.328 434.769C668.648 420.838 651.018 411.787 629.626 411.488C579.551 410.788 555.12 474.155 555.12 474.155C555.12 474.155 553.958 425.588 503.679 460.992C486.304 473.224 442.458 508.858 459.596 563.703C460.187 565.586 460.508 565.144 463.226 567.189Z" fill="#F4E8D8"/>
<path d="M779.072 514.145C811.235 467.278 781.743 418.63 731.668 417.937C681.592 417.237 657.161 480.603 657.161 480.603C657.161 480.603 655.999 432.037 605.72 467.441C588.346 479.672 567.046 513.031 554.824 527.96C541.651 544.065 383.245 602.403 383.245 602.403C383.245 602.403 702.235 626.105 779.072 514.145Z" fill="#F4E8D8"/>
<path d="M336.248 240.83C335.086 235.897 326.599 231.221 325.082 230.528C323.566 229.835 320.37 231.126 318.42 234.503C314.088 242.026 274.134 254.468 265.699 259.497C257.271 264.525 253.648 299.195 275.499 291.054C318.381 275.085 327.091 270.437 336.248 263.812C348.24 255.141 339.365 254.094 336.248 240.83Z" fill="#C83F37"/>
<path d="M389.481 196.477C389.481 196.477 387.406 190.565 377.016 195.403C366.625 200.241 343.258 221.212 337.547 223.359C331.837 225.506 325.864 226.988 325.864 231.289C325.864 234.293 329.585 235.455 333.74 245.94C337.239 254.767 341.985 260.101 347.419 257.234C364.38 248.271 401.427 213.146 389.481 196.477Z" fill="#1D2436"/>
<path d="M348.194 341.91C348.194 341.91 312.618 370.675 304.052 381.969C295.486 393.263 290.806 382.778 281.459 402.939C272.112 423.101 253.674 469.608 245.883 470.417C238.092 471.226 226.408 465.579 224.853 482.513C223.297 499.447 252.119 526.866 263.802 531.711C275.486 536.549 287.951 526.873 291.85 505.902C295.742 484.932 314.443 459.755 323.008 445.24C331.574 430.725 330.623 426.241 337.291 421.762C350.518 412.867 373.754 397.394 406.625 367.726C437.003 340.3 386.363 300.778 348.194 341.91Z" fill="#273150"/>
<path d="M304.052 381.969C294.672 392.549 290.806 382.778 281.459 402.939C272.112 423.101 250.714 466.027 263.284 465.307C267.957 465.035 304.571 457.241 313.143 442.726C321.709 428.211 332.185 416.557 338.847 412.079C345.188 407.818 345.857 376.771 345.857 376.771C335.814 372.109 314.699 369.955 304.052 381.969Z" fill="#465788"/>
<path d="M487.636 362.072C487.748 368.073 466.101 376.92 434.148 364.22C402.195 351.526 416.734 311.467 448.687 324.161C480.639 336.862 487.466 352.756 487.636 362.072Z" fill="#F2A62F"/>
<path d="M478.302 355.821C475.887 377.953 437.6 371.362 399.608 366.911C361.61 362.46 338.289 361.834 340.704 339.709C343.12 317.583 375.887 303.245 413.885 307.696C451.876 312.14 480.724 333.688 478.302 355.821Z" fill="#273150"/>
<path d="M434.666 331.425C434.666 331.425 416.229 339.668 409.218 363.866C402.208 388.058 402.464 397.021 397.791 408.315C393.117 419.608 382.208 469.337 375.979 486.277C369.75 503.218 373.662 492.767 366.632 500.792C346.376 523.91 387.229 552.226 387.229 552.226C387.229 552.226 408.286 580.026 419.858 568.535C432.579 555.902 428.949 546.491 428.949 537.888C428.949 529.285 439.517 477.083 442.103 464.227C442.97 459.925 444.873 459.565 446.606 454.55C448.339 449.535 445.74 440.123 445.74 437.704C445.74 435.285 462.34 394.479 472.054 374.977C497.765 323.359 434.666 331.425 434.666 331.425Z" fill="#465788"/>
<path d="M427.394 333.043C427.394 333.043 415.447 339.763 408.437 363.955C401.427 388.146 402.464 397.021 397.791 408.308C395.231 414.498 415.966 381.425 429.468 376.05C437.915 372.687 446.567 371.518 455.953 371.749C462.024 371.898 470.321 378.381 470.321 378.381C479.274 361.637 480.692 349.915 476.209 342.984C465.431 326.329 427.394 333.043 427.394 333.043Z" fill="#273150"/>
<path d="M367.308 525.16C364.696 515.769 360.994 516.041 368.837 511.733C374.548 508.179 400.862 519.758 400.862 519.758C400.862 519.758 399.477 514.091 401.44 510.02C401.44 510.02 438.821 537.609 422.149 561.882C403.954 588.377 370.222 535.645 367.308 525.16Z" fill="#273150"/>
<path d="M256.379 564.892C263.159 560.163 279.825 543.358 278.086 530.624C276.346 517.889 267.4 506.724 260.527 506.059C253.655 505.393 251.955 495.356 238.702 482.112C225.45 468.868 205.358 460.944 192.933 470.512C182.273 478.721 178.893 497.829 194.994 514.763C203.343 523.55 208.207 531.487 213.734 539.621C233.734 569.072 249.598 569.622 256.379 564.892Z" fill="#13161F"/>
<path d="M256.379 564.893C268.227 555.264 264.656 543.555 234.167 512.093C225.818 487.154 204.492 466.068 191.41 474.555C180.974 481.324 181.236 502.831 193.95 515.837C203.855 525.969 208.056 531.358 213.727 539.621C233.557 568.494 247.734 571.919 256.379 564.893Z" fill="#EC6043"/>
<path d="M403.245 589.77C403.245 589.77 422.306 568.548 421.335 556.704C420.652 548.366 413.603 535.686 408.181 532.241C405.897 530.793 403.56 532.852 400.39 529.013C388.187 514.226 367.669 497.557 347.938 508.851C331.646 518.174 338.125 535.672 346.146 545.92C354.167 556.167 364.807 565.796 368.594 571.076C382.096 589.892 393.635 596.491 403.245 589.77Z" fill="#13161F"/>
<path d="M399.871 592.203C399.871 592.203 419.084 586.278 383.744 545.179C364.893 506.188 346.901 508.587 339.628 516.381C334.148 522.259 336.491 537.127 346.369 549.338C356.248 561.543 365.772 568.569 368.713 572.836C381.079 590.81 389.474 594.255 399.871 592.203Z" fill="#EC6043"/>
<path d="M410.255 390.028C412.329 386.801 427.393 375.514 445.569 379.278C445.569 379.278 411.811 394.873 403.501 400.249C395.191 405.624 408.174 393.256 410.255 390.028Z" fill="#273150"/>
<path d="M399.871 417.454C399.871 417.454 405.326 421.484 414.673 416.646L410.255 424.175C410.255 424.175 413.891 427.939 420.902 425.52C427.912 423.094 408.699 449.175 399.871 417.454Z" fill="#273150"/>
<path d="M455.612 369.601C464.394 374.841 462.537 390.796 458.034 405.488L472.573 373.543C472.573 373.543 446.823 364.355 455.612 369.601Z" fill="#273150"/>
<path d="M311.318 444.873C311.318 444.873 285.168 482.227 258.519 476.254L311.318 444.873Z" fill="#465788"/>
<path d="M286.133 399.712C286.133 399.712 295.999 401.322 300.672 398.638C305.346 395.947 298.073 405.63 298.073 405.63C298.073 405.63 303.265 415.844 293.918 411.542C284.571 407.241 286.133 399.712 286.133 399.712Z" fill="#273150"/>
<path d="M344.472 309.741C344.472 309.741 351.745 318.344 367.321 320.852C382.897 323.359 415.795 221.925 406.79 206.513C397.791 191.102 359.701 221.565 348.621 248.808C337.548 276.05 344.472 309.741 344.472 309.741Z" fill="#EC5E4D"/>
<path d="M470.236 333.308C470.236 333.308 474.305 341.999 479.327 343.793C480.607 344.567 490.663 343.881 497.85 340.748C505.037 337.609 507.801 333.851 518.539 333.308C529.271 332.771 543.206 334.293 550.827 327.484C558.441 320.675 548.575 319.418 544.939 319.058C543.141 318.881 535.94 324.433 532.56 324.433C522.55 324.433 501.92 330.08 492.829 334.918C486.823 338.119 472.271 330.589 470.236 333.308Z" fill="#F4E8D8"/>
<path d="M532.297 300.242C551.857 304.183 559.997 308.484 554.805 321.028C551.496 329.013 529.278 330.365 520.613 329.006C509.796 327.301 500.791 336.984 482.786 341.102C473.82 343.154 468.936 338.771 467.899 327.124C467.124 318.439 475.139 291.211 489.881 286.08C503.285 281.425 522.989 298.366 532.297 300.242Z" fill="#EC5E4D"/>
<path d="M472.835 194.323C472.835 194.323 455.697 183.837 428.431 186.257C401.164 188.676 392.231 191.271 387.229 202.925C383.075 212.602 388.7 245.94 384.807 270.131C382.169 286.528 363.514 301.315 357.285 320.668C357.285 320.668 384.86 344.982 434.496 339.124C461.847 335.896 486.948 358.301 487.643 362.065C488.477 358.314 488.543 350.051 489.199 311.257C489.96 266.448 492.461 202.973 472.835 194.323Z" fill="#F6BE4A"/>
<path d="M449.468 190.293C437.003 189.485 427.138 156.69 440.377 271.212C442.838 292.488 360.488 310.72 357.285 320.675C357.285 320.675 384.86 344.989 434.496 339.131C461.847 335.904 486.947 358.308 487.643 362.072C488.477 358.321 488.542 350.058 489.199 311.264C489.96 266.448 461.926 191.102 449.468 190.293Z" fill="#F2A62F"/>
<path d="M417.495 187.262C417.495 187.262 406.967 195.233 408.608 206.099C410.249 216.965 434.174 209.361 440.843 199.215C447.512 189.07 427.059 183.274 417.495 187.262Z" fill="#F6874E"/>
<path d="M405.319 191.367C407.393 193.337 395.027 221.83 369.743 245.58C351.049 263.146 347.584 283.933 352.776 297.551C358.361 312.195 361.433 314.845 364.722 319.234C368.03 323.658 344.63 313.452 343.081 310.992C337.889 302.749 328.778 255.474 355.893 226.403C365.588 216.007 365.588 201.315 374.417 195.933C383.252 190.558 403.245 189.396 405.319 191.367Z" fill="#972A27"/>
<path opacity="0.5" d="M405.32 191.367C407.394 193.337 395.028 221.83 369.744 245.58C351.05 263.146 347.584 283.933 352.776 297.551C358.362 312.194 361.434 314.845 364.722 319.234C368.03 323.658 344.63 313.452 343.081 310.992C337.889 302.749 334.318 262.643 361.434 233.572C371.129 223.176 365.589 201.315 374.417 195.94C383.252 190.558 403.245 189.396 405.32 191.367Z" fill="#972A27"/>
<path d="M344.039 311.984C344.039 311.984 343.606 315.3 345.339 317.094C347.072 318.888 355.986 323.101 363.166 323.543C363.166 323.543 367.669 320.498 362.648 319.601C357.627 318.705 344.039 311.984 344.039 311.984Z" fill="#F4E8D8"/>
<path d="M408.87 188.948C406.651 186.393 399.713 186.447 393.635 189.185C388.496 191.503 386.973 201.995 381.663 213.669C377.849 222.048 372.513 238.771 363.166 252.749C358.026 260.435 375.631 259.558 401.289 208.552C405.798 199.596 410.327 190.626 408.87 188.948Z" fill="#F4E8D8"/>
<path d="M419.083 185.992C407.656 192.712 408.437 232.499 413.891 233.307C419.346 234.116 446.612 210.455 443.75 190.028" stroke="#913636" stroke-width="0.907203" stroke-miterlimit="10"/>
<path d="M415.163 237.265C415.544 234.998 414.993 233.006 413.932 232.815C412.871 232.624 411.703 234.306 411.321 236.573C410.94 238.839 411.491 240.831 412.552 241.023C413.613 241.214 414.782 239.531 415.163 237.265Z" fill="#29ACE4"/>
<path d="M408.87 188.948C406.652 186.393 399.714 186.447 393.636 189.185C388.496 191.503 386.973 201.995 381.663 213.669C379.615 218.174 384.978 215.47 391.555 210.455C388.982 217.522 388.956 217.447 388.956 217.447C396.406 211.569 409.277 189.417 408.87 188.948Z" fill="#F4E8D8"/>
<path d="M415.552 175.024C415.552 175.024 417.082 187.561 417.476 194.73C417.869 201.9 422.32 201.519 428.24 200.778C434.168 200.038 440.101 202.165 441.545 192.121C442.989 182.078 445.523 165.225 440.324 162.738C435.132 160.251 415.132 162.12 415.552 175.024Z" fill="#F6874E"/>
<path d="M425.838 173.896C427.171 183.62 439.964 199.854 441.421 192.984C442.878 186.114 445.228 165.959 442.327 163.818C437.896 160.536 424.499 164.172 425.838 173.896Z" fill="#CE6D3E"/>
<path d="M444.532 195.22C444.532 195.22 444.013 248.087 452.323 264.22C460.633 280.352 483.744 282.234 493.872 317.984C498.375 333.878 506.856 309.918 530.223 309.381C540.502 309.143 546.908 312.949 549.613 313.859C555.52 315.864 546.567 328.048 551.168 325.33C569.343 314.58 549.435 303.034 548.05 298.087C546.147 291.278 542.163 267.801 525.891 263.499C508.753 258.967 493.866 228.734 490.229 217.44C486.593 206.147 486.074 194.323 473.61 190.021C461.145 185.72 446.606 185.006 444.532 195.22Z" fill="#972A27"/>
<path opacity="0.5" d="M444.532 195.22C444.532 195.22 444.013 248.087 452.323 264.219C460.633 280.351 462.681 295.356 498.027 302.396C511.529 305.086 505.819 259.381 502.182 248.094C498.546 236.807 486.081 194.329 473.616 190.028C461.151 185.726 446.606 185.006 444.532 195.22Z" fill="#972A27"/>
<path d="M502.09 321.925C502.09 321.925 505.378 324.521 507.197 324.97C509.888 325.636 517.581 315.83 526.934 314.036C536.281 312.242 547.741 312.935 550.301 316.727C552.467 319.928 548.398 326.227 542.858 328.021C540.731 328.707 545.011 329.815 547.184 329.455C551.726 328.694 558.263 321.028 553.938 315.293C550.406 310.618 541.125 308.484 530.741 309.021C521.722 309.49 513.518 313.683 502.09 321.925Z" fill="#F4E8D8"/>
<path d="M465.825 188.948C467.125 185.72 451.805 181.778 444.532 184.469C437.259 187.16 435.704 226.587 446.606 248.094C454.056 262.786 451.477 234.503 454.653 212.072C456.13 201.668 464.525 192.175 465.825 188.948Z" fill="#F4E8D8"/>
<path d="M465.825 188.948C467.125 185.72 451.805 181.779 444.532 184.47C446.606 191.639 451.477 234.504 454.66 212.072C456.131 201.668 464.526 192.175 465.825 188.948Z" fill="#F4E8D8"/>
<path d="M531.779 277.661C531.779 277.661 515.159 272.822 504.775 283.036" stroke="#F4E8D8" stroke-width="3.62881" stroke-miterlimit="10"/>
<path d="M221.216 255.617L310.8 312.072C293.583 272.856 255.06 200.873 246.356 184.701C245.654 183.389 243.796 183.505 243.258 184.898C237.232 200.35 226.415 246.477 226.415 246.477L221.216 255.617Z" fill="#624873"/>
<path d="M470.334 125.289C466.501 152.226 448.903 164.424 435.309 169.928C421.716 175.432 391.41 155.882 387.498 132.553C382.648 108.967 379.517 96.545 416.556 88.3838C453.603 80.2227 473.728 101.438 470.334 125.289Z" fill="#1D2436"/>
<path d="M465.733 127.423C462.477 150.303 430.557 143.983 430.557 143.983C424.099 142.244 401.9 137.677 397.311 125.045C393.393 114.247 388.306 102.049 419.766 95.1179C448.555 88.771 468.615 107.166 465.733 127.423Z" fill="#3D4C6D"/>
<path d="M461.808 138.934C461.808 138.934 464.631 131.67 462.392 123.536C462.392 123.536 472.021 126.363 461.808 138.934Z" fill="#1D2436"/>
<path d="M405.247 109.775C405.247 109.775 389.409 103.734 386.133 107.553C382.858 111.372 383.035 162.691 389.35 175.316C395.664 187.942 435.251 180.61 445.201 171.545C447.518 169.438 452.468 159.116 453.839 146.368C454.66 142.447 445.215 135.088 438.25 126.533C431.286 117.977 405.247 109.775 405.247 109.775Z" fill="#CE6D3E"/>
<path d="M448.148 153.558C447.289 177.029 430.761 180.868 413.8 181.921C396.839 182.968 389.5 178.062 386.737 157.363C383.882 136.005 390.439 122.258 407.4 121.212C424.354 120.152 446.908 132.023 448.148 153.558Z" fill="#F6874E"/>
<path d="M421.644 142.909C421.841 146.293 420.384 147.87 418.749 147.972C417.115 148.074 415.927 146.66 415.73 143.276C415.533 139.892 416.702 137.072 418.336 136.97C419.97 136.868 421.447 139.525 421.644 142.909Z" fill="#34273A"/>
<path d="M396.813 143.827C396.997 147 395.631 148.481 394.095 148.577C392.56 148.672 391.444 147.347 391.26 144.166C391.076 140.993 392.172 138.336 393.708 138.241C395.238 138.153 396.629 140.653 396.813 143.827Z" fill="#34273A"/>
<path d="M423.029 134.966C423.029 134.966 420.41 130.08 416.144 131.405" stroke="#34273A" stroke-width="0.907203" stroke-miterlimit="10" stroke-linecap="round" stroke-linejoin="round"/>
<path d="M395.067 133.138C395.067 133.138 390.013 132.764 388.832 136.909" stroke="#34273A" stroke-width="0.907203" stroke-miterlimit="10" stroke-linecap="round" stroke-linejoin="round"/>
<path d="M458.468 144.949C460.367 137.433 458.517 130.422 454.336 129.29C450.155 128.159 445.227 133.334 443.329 140.85C441.43 148.366 443.28 155.377 447.461 156.509C451.642 157.641 456.57 152.465 458.468 144.949Z" fill="#F6874E"/>
<path d="M426.469 99.8065C413.564 116.142 389.179 121.558 378.401 121.531C368.904 121.511 378.671 95.1381 395.323 88.4515C411.976 81.7717 431.569 93.351 426.469 99.8065Z" fill="#1D2436"/>
<path d="M425.484 95.2333C429.422 98.067 427.801 106.249 421.158 109.83C409.698 116.013 386.658 120.118 382.005 120.349C373.209 120.784 381.086 103.422 393.065 96.239C406.514 88.1798 421.545 92.3997 425.484 95.2333Z" fill="#3D4C6D"/>
<path d="M406.711 109.85C406.711 109.85 395.461 116.543 386.619 120.274C386.619 120.274 410.013 118.113 406.711 109.85Z" fill="#1D2436"/>
<path d="M439.859 119.228C439.859 119.228 438.178 138.492 440.6 144.126L445.969 152.47L447.171 124.922L439.859 119.228Z" fill="#3D4C6D"/>
<path d="M250.905 251.94L306.73 244.595C306.73 244.595 292.88 198.624 247.701 177.117C182.076 145.879 130.55 216.679 116.831 226.58C99.693 238.948 84.1104 241.095 51.3961 234.646C51.3961 234.646 24.911 284.646 0.5 299.168C0.5 299.168 30.103 305.698 69.5715 299.168C105.495 293.229 125.384 278.007 157.862 234.109C176.556 208.844 251.423 200.33 250.905 251.94Z" fill="#F5BF4E"/>
<path d="M49.1452 244.33C49.1452 244.33 24.9114 281.962 16.6016 291.109C16.6016 291.109 60.7107 292.923 84.6359 287.881C115.276 281.432 149.907 222.795 174.482 209.381C203.048 193.786 245.608 204.326 254.463 226.587C261.735 244.866 262.339 250.513 262.339 250.513L298.952 245.315C298.952 245.315 273.156 169.595 202.529 178.197C166.218 182.621 133.976 222.286 114.764 237.337C95.5385 252.389 74.0681 249.705 49.1452 244.33Z" fill="#F4E8D8"/>
<path d="M95.0196 240.028L78.9185 292.712" stroke="#F5BF4E" stroke-width="2.72161" stroke-miterlimit="10"/>
<path d="M137.429 215.47L135.525 255.617" stroke="#F5BF4E" stroke-width="2.72161" stroke-miterlimit="10"/>
<path d="M177.074 220.132L172.4 185.72" stroke="#F5BF4E" stroke-width="2.72161" stroke-miterlimit="10"/>
<path d="M219.136 175.506L209.271 210.455" stroke="#F5BF4E" stroke-width="2.72161" stroke-miterlimit="10"/>
<path d="M248.22 222.822L270.55 197.014" stroke="#F5BF4E" stroke-width="2.72161" stroke-miterlimit="10"/>
<path d="M258.092 247.014L294.443 226.043" stroke="#F5BF4E" stroke-width="2.72161" stroke-miterlimit="10"/>
<path d="M11.9214 294.866C12.5909 295.023 13.4574 295.193 14.501 295.363" stroke="#F4E8D8" stroke-width="5.44322" stroke-miterlimit="10"/>
<path d="M21.0908 296.219C41.0252 298.291 83.8019 298.923 106.959 282.499C135.007 262.609 150.583 222.279 184.34 210.992C202.161 205.032 233.989 202.029 248.22 226.587C252.014 233.838 253.865 240.884 254.764 245.675" stroke="#F4E8D8" stroke-width="5.44322" stroke-miterlimit="10" stroke-dasharray="7.35 7.35"/>
<path d="M255.302 249.066C255.525 250.778 255.578 251.77 255.578 251.77" stroke="#F4E8D8" stroke-width="5.44322" stroke-miterlimit="10"/>
<path d="M303.271 242.984C303.271 242.984 272.086 168.704 210.826 173.359C154.219 177.661 124.616 235.727 99.1681 242.175C76.8969 247.822 49.3091 238.948 49.3091 238.948" stroke="#F4E8D8" stroke-width="4.53602" stroke-miterlimit="10" stroke-dasharray="7.26 7.26"/>
<path opacity="0.5" d="M116.831 226.587C99.693 238.955 84.1104 241.102 51.3961 234.653C51.3961 234.653 24.911 284.653 0.5 299.175C0.5 299.175 30.103 305.705 69.5715 299.175C105.495 293.236 125.384 278.014 157.862 234.116C116.831 244.867 116.831 226.587 116.831 226.587Z" fill="#F5BF4E"/>
<path d="M132.408 162.065C147.234 162.065 159.254 149.789 159.254 134.646C159.254 119.503 147.234 107.227 132.408 107.227C117.581 107.227 105.562 119.503 105.562 134.646C105.562 149.789 117.581 162.065 132.408 162.065Z" fill="#29ACE4"/>
<path d="M144.262 127.756L138.965 148.814C138.427 150.955 135.65 151.356 134.574 149.446L119.53 122.897C118.446 120.988 120.133 118.677 122.208 119.234L142.549 124.718C143.822 125.065 144.597 126.424 144.262 127.756Z" fill="#F6BE4A"/>
<path opacity="0.5" d="M155.782 130.881C155.782 143.48 111.121 143.48 111.121 130.881C111.121 118.283 121.118 108.076 133.451 108.076C145.778 108.076 155.782 118.283 155.782 130.881Z" fill="#29ACE4"/>
<path d="M199.404 128.863C199.404 128.863 218.61 140.789 223.218 148.746L254.711 121.708L230.898 89.8989C230.898 89.8989 204.78 126.478 199.404 128.863Z" fill="#9A6EA7"/>
<path d="M230.898 89.8989C234.226 94.9343 229.303 124.868 229.303 124.868C228.961 127.273 227.091 129.135 224.754 129.393L199.404 128.863L230.898 89.8989Z" fill="#624873"/>
<path d="M227.826 113.227L249.335 115.347" stroke="#624873" stroke-width="0.907203" stroke-miterlimit="10"/>
<path d="M219.122 128.333L220.231 144.683" stroke="#624873" stroke-width="0.907203" stroke-miterlimit="10"/>
<path opacity="0.5" d="M203.159 124.8L245.24 109.687L230.813 90.6871C230.813 90.6939 209.132 119.058 203.159 124.8Z" fill="#9A6EA7"/>
<path d="M304.853 27.8644L283.836 43.6499C277.337 48.529 275.887 57.9473 280.606 64.6747L295.854 86.4333C297.639 88.9748 300.048 90.7755 302.707 91.7608C302.74 91.7744 302.759 91.7948 302.792 91.8084L319.556 97.8495C320.738 98.2776 321.893 97.1495 321.558 95.8992L319.261 87.4594L337.187 73.9979C343.685 69.1188 345.136 59.7005 340.416 52.9731L325.168 31.2145C320.449 24.4803 311.351 22.9853 304.853 27.8644Z" fill="#F6BE4A"/>
<path d="M318.147 36.4912L287.88 59.2235L291.538 64.4431L321.805 41.7109L318.147 36.4912Z" fill="#F4E8D8"/>
<path d="M323.636 44.3273L293.369 67.0596L297.026 72.2792L327.293 49.5469L323.636 44.3273Z" fill="#F4E8D8"/>
<path d="M329.124 52.1635L298.857 74.8958L302.515 80.1154L332.782 57.3831L329.124 52.1635Z" fill="#F4E8D8"/>
<path opacity="0.5" d="M305.063 32.0433L285.765 46.5377C279.799 51.0226 342.044 61.27 337.712 55.093L323.711 35.1148C319.379 28.931 311.03 27.5584 305.063 32.0433Z" fill="#F6BE4A"/>
<path d="M535.237 21.5787L453.852 4.54964C453.314 4.43412 452.704 5.09327 452.487 6.00385L440.83 55.3583C440.613 56.2689 440.862 57.1387 441.387 57.3018L520.83 81.5611C521.506 81.7718 522.261 81.0923 522.51 80.0526L536.045 23.7397C536.294 22.6864 535.933 21.7214 535.237 21.5787Z" fill="#F6BE4A"/>
<path d="M536.163 17.5422L454.777 0.513146C454.239 0.397625 453.635 1.05677 453.419 1.96735L441.761 51.3218C441.545 52.2324 441.794 53.1022 442.319 53.2653L521.761 77.5246C522.438 77.7353 523.192 77.0558 523.442 76.0161L536.976 19.7032C537.219 18.6499 536.858 17.6849 536.163 17.5422Z" fill="#465788"/>
<path d="M483.462 20.5729L498.802 38.3223C499.281 38.8727 499.012 39.9872 498.342 40.2454L476.806 48.5357C476.215 48.7599 475.736 48.0872 475.927 47.2989L482.123 21.2456C482.313 20.4574 483.042 20.0904 483.462 20.5729Z" fill="#EC5E4D"/>
<path opacity="0.5" d="M533.715 18.5003L462.609 3.62533C462.142 3.5302 461.611 4.09421 461.42 4.89606L521.125 70.9059C521.716 71.0894 522.379 70.4982 522.596 69.5876L534.417 20.3826C534.64 19.472 534.325 18.6226 533.715 18.5003Z" fill="#465788"/>
<path d="M578.5 67.3247C577.811 70.2195 574.47 71.8164 571.109 70.9194C567.808 70.036 565.707 67.0733 566.364 64.2736C567.02 61.4739 570.21 59.8227 573.551 60.6041C576.951 61.406 579.196 64.4231 578.5 67.3247Z" fill="#F6BE4A"/>
<path d="M600.633 72.8154C599.858 75.9141 596.36 77.6537 592.881 76.7228C589.468 75.8122 587.348 72.6727 588.076 69.6828C588.805 66.6861 592.146 64.8921 595.599 65.6939C599.123 66.5094 601.408 69.71 600.633 72.8154Z" fill="#F6BE4A"/>
<path d="M576.104 67.1684L584.04 37.5204L605.504 40.9452L598.388 70.9602" stroke="#F6BE4A" stroke-width="7.25762" stroke-miterlimit="10" stroke-linecap="round" stroke-linejoin="round"/>
<path d="M629.258 48.4677C630.466 50.8121 628.891 54.0807 625.799 55.7455C622.767 57.3764 619.399 56.8396 618.218 54.5835C617.036 52.3207 618.474 49.1133 621.474 47.4009C624.539 45.6477 628.044 46.1165 629.258 48.4677Z" fill="#F6BE4A"/>
<path d="M641.244 33.0424C642.091 27.7624 633.138 19.7711 633.138 19.7711L626.653 50.3161" stroke="#F6BE4A" stroke-width="7.25762" stroke-miterlimit="10" stroke-linecap="round" stroke-linejoin="round"/>
<path d="M364.4 37.7242C361.762 49.7112 368.529 60.8284 379.116 63.4785C389.5 66.0812 401.046 59.8906 405.437 48.8278C410.255 36.6778 404.86 23.0667 392.684 19.472C380.219 15.7957 367.315 24.5073 364.4 37.7242Z" fill="#EC5E4D"/>
<path d="M375.08 31.3979C381.827 24.657 386.711 34.6121 387.308 35.9168C388.542 35.1286 398.126 29.339 399.872 38.3224C402.438 51.5189 383.245 56.1873 381.033 56.6834L381.007 56.7785C381.007 56.7785 380.981 56.7513 380.928 56.7106C380.863 56.7241 380.823 56.7309 380.823 56.7309L380.849 56.6358C379.228 55.1476 364.958 41.5026 375.08 31.3979Z" fill="#F4E8D8"/>
<path d="M398.145 310.536C400.849 307.139 396.911 305.222 384.998 305.399C380.134 305.474 375.638 306.69 369.271 305.256C365.129 304.325 360.226 305.202 362.149 309.266C363.764 312.663 365.352 316.326 372.848 316.095C374.876 316.034 381.939 316.34 385.864 316.7C389.599 317.046 396.379 312.759 398.145 310.536Z" fill="#F6874E"/>
<path d="M221.216 255.617L283.54 372.822L301.459 368.521L387.413 364.756L370.793 317.176C374.161 316.306 376.104 312.657 375.014 309.245L353.55 245.695C352.106 241.156 347.748 238.322 343.166 238.948L221.216 255.617Z" fill="#9A6EA7"/>
<path d="M293.668 324.759C293.668 324.759 285.28 315.592 280.383 319.69C275.487 323.794 277.587 331.759 282.018 336.583C286.448 341.408 294.115 345.533 299.031 340.443C304.853 334.409 293.668 324.759 293.668 324.759Z" fill="#F4E8D8"/>
<path d="M299.897 279.455C296.031 283.98 288.62 315.11 285.614 321.389C280.678 331.69 289.506 339.403 296.261 334.83C302.398 330.678 331.837 324.345 337.291 318.698C339.536 316.374 347.419 308.484 334.955 291.279C322.142 273.604 305.87 272.462 299.897 279.455Z" fill="#F5BF4E"/>
<path d="M335.345 314.827C340.687 309.297 337.67 297.207 328.606 287.823C319.542 278.44 307.864 275.316 302.522 280.846C297.18 286.377 300.197 298.467 309.261 307.85C318.325 317.234 330.003 320.357 335.345 314.827Z" fill="#F4E8D8"/>
<path d="M315.355 311.055C318.382 307.921 319.049 303.53 316.845 301.248C314.64 298.966 310.399 299.657 307.372 302.791C304.345 305.925 303.678 310.315 305.882 312.598C308.087 314.88 312.328 314.189 315.355 311.055Z" fill="#465788"/>
<path opacity="0.5" d="M239.044 253.517C239.044 253.517 363.948 305.039 367.538 306.405C367.538 306.405 371.128 307.771 367.538 306.405C370.426 305.657 372.1 302.525 371.168 299.596L352.723 245.002C351.483 241.102 347.735 238.669 343.803 239.206L239.044 253.517Z" fill="#9A6EA7"/>
<path d="M462.884 279.271C459.943 270.308 462.536 243.202 462.536 219.411C462.536 205.433 471.811 193.106 479.845 194.676C492.658 197.184 495.428 209.728 497.85 225.86C501.263 248.59 502.556 282.689 494.647 300.235C487.374 316.374 465.825 288.234 462.884 279.271Z" fill="#1D2436"/>
<path d="M462.884 279.271C459.943 270.308 462.536 243.202 462.536 219.411C462.536 205.433 471.811 193.106 479.845 194.676C492.658 197.184 474.305 215.823 476.727 231.955C480.141 254.686 489.133 265.314 481.23 282.852C473.957 298.991 465.825 288.234 462.884 279.271Z" fill="#1D2436"/>
<path d="M479.156 277.837C473.616 273.536 464.67 271.484 460.462 274.256C456.294 277.001 455.336 279.332 455.336 279.332C455.336 279.332 447.505 279.638 441.552 285C435.651 290.314 402.904 293.963 398.703 303.204C394.436 312.589 390.734 332.343 409.763 336.27C431.096 340.681 434.876 330.521 443.153 328.374C451.68 326.166 485.044 312.29 491.798 302.389C495.946 296.3 488.601 285.176 479.156 277.837Z" fill="#C83F37"/>
<path d="M479.156 277.837C476.649 275.894 487.026 294.268 469.461 307.227C465.503 310.149 456.071 311.1 450.768 313.676C427.551 324.956 401.283 334.51 409.763 336.263C431.096 340.674 434.876 330.515 443.153 328.367C451.68 326.159 485.044 312.283 491.798 302.382C495.947 296.3 488.602 285.176 479.156 277.837Z" fill="#972A27"/>
<path d="M399.176 303.829C405.405 298.454 412.159 298.991 417.528 311.175C417.528 311.175 419.084 304.006 422.55 311.535C426.652 320.458 422.792 336.298 412.165 336.447C399.346 336.624 395.585 306.921 399.176 303.829Z" fill="#972A27"/>
<path d="M408.437 337.303C401.676 338.472 394.948 331.425 393.314 322C391.745 312.99 395.381 304.767 401.518 303.245C407.82 301.682 414.758 307.648 416.95 316.992C419.241 326.798 415.395 336.101 408.437 337.303Z" fill="#F4E8D8"/>
<path d="M405.385 334.327C401.427 334.864 396.99 329.061 395.454 321.654C393.977 314.539 395.697 308.348 399.313 307.56C403.009 306.758 407.485 311.834 409.304 319.194C411.194 326.866 409.435 333.783 405.385 334.327Z" fill="#972A27"/>
<path d="M406.881 333.844L395.368 340.565C395.368 340.565 385.155 348.808 379.267 348.448C373.379 348.087 363.435 348.386 360.481 347.285C353.773 344.778 359.444 342.271 359.444 342.271C359.444 342.271 355.854 343.657 352.086 342.583C349.415 341.822 347.052 337.154 351.824 336.535L355.499 335.951C355.499 335.951 344.899 337.385 344.374 332.458C343.999 328.897 347.144 328.157 353.721 328.517C360.298 328.877 374.147 323.094 376.569 322.381C378.991 321.667 383.612 315.205 389.29 309.565C401.775 297.197 415.316 325.106 406.881 333.844Z" fill="#F6874E"/>
<path d="M387.143 320.267C387.143 320.267 389.093 314.484 386.881 313.411C384.675 312.337 377.836 318.521 373.681 319.595C369.526 320.668 351.436 319.866 347.8 320.668C344.163 321.47 344.426 324.97 347.8 326.043C351.173 327.117 357.54 327.79 364.938 326.981C375.368 325.853 374.108 325.479 387.143 320.267Z" fill="#F6874E"/>
<path d="M455.329 279.332C455.329 279.332 465.562 279.808 470.76 283.844C475.952 287.874 467.531 272.347 455.329 279.332Z" fill="#972A27"/>
<path d="M454.916 280.617C454.916 280.617 467.118 286.529 470.236 299.433C470.236 299.433 473.353 289.484 467.118 285.183C460.889 280.888 455.434 279.006 454.916 280.617Z" fill="#972A27"/>
<path d="M271.076 96.47C271.076 96.47 324.046 122.279 324.046 203.999" stroke="#F6BE4A" stroke-width="6.35042" stroke-miterlimit="10" stroke-linecap="round" stroke-linejoin="round"/>
<path d="M258.611 103.999C258.611 103.999 282.503 112.602 287.695 130.882" stroke="#29ACE4" stroke-width="6.35042" stroke-miterlimit="10" stroke-linecap="round" stroke-linejoin="round"/>
<path d="M294.443 147.544C296.592 147.544 298.335 145.74 298.335 143.514C298.335 141.289 296.592 139.484 294.443 139.484C292.293 139.484 290.55 141.289 290.55 143.514C290.55 145.74 292.293 147.544 294.443 147.544Z" fill="#29ACE4"/>
<path d="M389.094 287.996C389.094 287.996 465.569 212.337 540.607 237.874" stroke="#29ACE4" stroke-width="6.35042" stroke-miterlimit="10" stroke-linecap="round" stroke-linejoin="round"/>
<path d="M591.11 283.539C591.11 283.539 538.402 224.542 476.229 255.97" stroke="#F6BE4A" stroke-width="6.35042" stroke-miterlimit="10" stroke-linecap="round" stroke-linejoin="round"/>
<path d="M557.745 245.94C559.895 245.94 561.638 244.136 561.638 241.91C561.638 239.685 559.895 237.881 557.745 237.881C555.596 237.881 553.853 239.685 553.853 241.91C553.853 244.136 555.596 245.94 557.745 245.94Z" fill="#29ACE4"/>
<path d="M555.482 101.329C539.991 93.2287 521.094 99.6571 513.27 115.694C509.653 123.101 509.043 131.262 510.946 138.703C510.953 138.723 510.953 138.737 510.953 138.757C510.966 138.812 510.979 138.866 510.992 138.914C511.012 138.982 511.025 139.043 511.045 139.111C514.72 153.15 521.901 174.052 525.065 174.521C529.85 175.228 551.321 163.56 558.193 157.805C562.801 154.767 566.713 150.459 569.358 145.043C577.182 128.999 570.973 109.436 555.482 101.329Z" fill="#EC5E4D"/>
<path d="M541.309 155.155C554.534 155.155 565.254 144.056 565.254 130.365C565.254 116.674 554.534 105.576 541.309 105.576C528.085 105.576 517.364 116.674 517.364 130.365C517.364 144.056 528.085 155.155 541.309 155.155Z" fill="#F4E8D8"/>
<path opacity="0.5" d="M513.262 115.694C509.645 123.101 509.035 131.262 510.938 138.703C510.945 138.723 510.945 138.737 510.945 138.757C510.958 138.812 510.971 138.866 510.984 138.914C511.004 138.982 511.017 139.043 511.037 139.111C514.713 153.15 521.894 174.052 525.057 174.521C527.867 174.936 572.763 148.108 555.107 116.387C537.45 84.6666 516.498 109.069 513.262 115.694Z" fill="#EC5E4D"/>
<path d="M574.365 322.823C574.365 322.823 609.16 306.425 628.379 281.962C628.379 281.962 683.43 281.962 694.332 282.499C694.332 282.499 676.157 334.653 642.399 362.072C642.399 362.072 601.894 370.675 574.365 322.823Z" fill="#F6BE4A"/>
<path d="M636.275 288.846C636.275 288.846 625.465 298.984 616.387 307.186C607.959 314.804 594.391 324.875 588.911 328.524C588.911 328.524 600.43 339.322 609.685 340.925C626.042 343.766 637.208 334.653 637.208 334.653L629.764 313.547L646.036 304.563L636.275 288.846Z" fill="#9A6EA7"/>
<path d="M658.317 308.933L659.571 306.174C660.536 304.054 663.306 302.511 666.128 302.729C669.416 302.98 671.589 305.474 670.414 308.308L668.885 312.011C667.657 314.974 663.818 316.17 660.838 314.845C658.304 313.73 657.326 311.128 658.317 308.933Z" fill="#9A6EA7"/>
<path opacity="0.5" d="M574.365 322.822C574.365 322.822 609.16 306.425 628.379 281.962C628.379 281.962 672.265 282.499 683.167 283.036C683.167 283.036 611.496 353.204 574.365 322.822Z" fill="#F6BE4A"/>
<path d="M236.454 34.2738L216.513 28.175L210.622 48.82L230.563 54.9188L236.454 34.2738Z" fill="#F4E8D8"/>
<path d="M362.505 121.234L341.73 99.7272L320.956 121.234L341.73 142.741L362.505 121.234Z" stroke="#F4E8D8" stroke-width="2.72161" stroke-miterlimit="10"/>
<path d="M577.55 397.136L563.023 364.27L531.276 379.31L545.804 412.176L577.55 397.136Z" fill="#F4E8D8"/>
<path d="M550.934 380.061L538.605 352.169L511.663 364.932L523.992 392.824L550.934 380.061Z" fill="#F4E8D8"/>
<path d="M220.308 296.985L206.362 268.93L179.263 283.368L193.208 311.423L220.308 296.985Z" stroke="#F4E8D8" stroke-width="2.72161" stroke-miterlimit="10"/>
<path d="M675.31 121.064L656.721 83.6677L620.598 102.913L639.188 140.309L675.31 121.064Z" stroke="#F4E8D8" stroke-width="2.72161" stroke-miterlimit="10"/>
<path d="M691.868 130.34L677.922 102.285L650.823 116.723L664.769 144.778L691.868 130.34Z" fill="#F4E8D8"/>
<path d="M192.901 293.02L182.487 272.071L162.252 282.851L172.665 303.8L192.901 293.02Z" fill="#F4E8D8"/>
<path d="M641.33 173.658L631.103 212.358L590.04 210.312C582.61 231.466 598.658 249.127 622.15 249.161C646.056 249.188 665.216 233.674 670.624 211.882C675.744 191.238 663.22 173.08 641.33 173.658Z" fill="#C83F37"/>
<path d="M637.969 170.886L628.3 207.478L589.468 205.549C582.445 225.554 594.293 240.49 616.413 242.617C639.807 244.86 661.992 225.119 667.106 204.516C671.95 184.993 658.671 170.342 637.969 170.886Z" fill="#29ABE3"/>
<path opacity="0.5" d="M619.728 207.057L589.468 205.555C582.445 225.561 594.293 240.497 616.413 242.624C631.497 244.071 646.082 236.372 655.908 225.201C633.571 224.793 619.728 207.057 619.728 207.057Z" fill="#29ACE4"/>
<path d="M583.423 202.457L582.124 197.347L634.214 160.312C634.214 160.312 634.956 163.139 635.514 165.422L625.261 203.462L583.423 202.457Z" fill="#EC5E4D"/>
<path d="M582.124 197.354C589.383 177.077 612.403 160.938 634.214 160.32L623.791 199.372L582.124 197.354Z" fill="#F6BE4A"/>
<path opacity="0.5" d="M582.124 197.353C585.799 187.079 593.525 177.864 603.095 171.198C601.369 189.491 616.275 199.011 616.275 199.011L582.124 197.353Z" fill="#F6BE4A"/>
</svg>
