<svg width="75" height="75" viewBox="0 0 75 75" fill="none" xmlns="http://www.w3.org/2000/svg">
<g clip-path="url(#clip0_24_1193)">
<path d="M42.6526 26.6598H20.265C19.5927 26.6598 19.0479 27.2048 19.0479 27.8769C19.0479 28.5491 19.5929 29.094 20.265 29.094H42.6526C43.3248 29.094 43.8697 28.549 43.8697 27.8769C43.8697 27.2048 43.3248 26.6598 42.6526 26.6598Z" fill="black"/>
<path d="M42.6526 33.3539H20.265C19.5927 33.3539 19.0479 33.899 19.0479 34.571C19.0479 35.2433 19.5929 35.7881 20.265 35.7881H42.6526C43.3248 35.7881 43.8697 35.2431 43.8697 34.571C43.8697 33.8988 43.3248 33.3539 42.6526 33.3539Z" fill="black"/>
<path d="M74.4233 18.0323C74.3308 17.5387 73.9447 17.1529 73.4513 17.0602C69.9428 16.4027 63.365 19.9719 53.3441 27.9736C52.3387 28.7765 51.3309 29.6 50.3322 30.4304V19.6084H60.4654C61.1377 19.6084 61.6825 19.0634 61.6825 18.3913V14.2784C61.6825 10.2756 58.426 7.01904 54.4232 7.01904H19.1109C15.5126 7.01904 12.5853 9.94638 12.5853 13.5446V56.2246H1.7171C1.04488 56.2246 0.5 56.7696 0.5 57.4417V61.5547C0.5 65.5578 3.75672 68.8145 7.75981 68.8145H43.8079C47.4063 68.8145 50.3337 65.8871 50.3337 62.2887L50.3322 53.2371C53.7713 49.6039 58.9667 43.8291 63.5098 38.1397C71.5114 28.1189 75.0813 21.5418 74.4233 18.0323ZM12.5853 61.555C12.5853 64.2155 10.4208 66.3802 7.76024 66.3802C5.09956 66.3802 2.93434 64.2155 2.93434 61.5547V58.6589H12.5853V61.555ZM54.4232 9.45338C57.0837 9.45338 59.2483 11.618 59.2483 14.2786V17.1742H26.3704V14.2784C26.3704 12.428 25.6742 10.7368 24.5303 9.45324L54.4232 9.45338ZM43.8079 66.3802H13.1777C14.3221 65.0965 15.0195 63.4062 15.0195 61.555V13.5446C15.0195 11.2886 16.8547 9.45338 19.1107 9.45338C21.7712 9.45338 23.9359 11.618 23.9359 14.2786V18.3913C23.9359 19.0636 24.4809 19.6084 25.153 19.6084H47.8977V32.4831C44.7199 35.1996 41.7536 37.874 39.4215 40.0476H20.2651C19.5929 40.0476 19.048 40.5926 19.048 41.2647C19.048 41.9369 19.593 42.4818 20.2651 42.4818H36.8564C36.4696 42.857 36.1216 43.199 35.8217 43.4989C34.8292 44.4914 34.0885 45.5963 33.5396 46.741H20.2651C19.5929 46.741 19.048 47.286 19.048 47.9581C19.048 48.6303 19.593 49.1752 20.2651 49.1752H32.6507C32.258 50.6626 32.1132 52.1327 32.0957 53.4358H20.2651C19.5929 53.4358 19.048 53.9809 19.048 54.6529C19.048 55.325 19.593 55.87 20.2651 55.87H32.2039C32.2657 56.4762 32.3428 56.9813 32.409 57.3525L27.2563 62.5052C26.781 62.9805 26.781 63.7512 27.2563 64.2264C27.494 64.464 27.8056 64.5829 28.1169 64.5829C28.4284 64.5829 28.74 64.4641 28.9776 64.2264L34.1317 59.0723C34.8811 59.2041 36.1835 59.3821 37.7568 59.3821C38.0317 59.3821 38.3154 59.3766 38.6054 59.3646C42.4317 59.2052 45.6406 57.9523 47.898 55.7427L47.899 62.2882C47.8993 64.5448 46.0638 66.3802 43.8079 66.3802ZM46.2631 53.9404C44.4274 55.7761 41.8387 56.7819 38.5682 56.9302C37.7427 56.9674 36.9749 56.9423 36.313 56.8917L67.3113 25.8934C67.7867 25.418 67.7867 24.6474 67.3113 24.1722C66.8359 23.6968 66.0653 23.6968 65.5901 24.1722L34.591 55.1712C34.3887 52.5263 34.5987 48.1649 37.5431 45.2205C40.449 42.3146 47.7208 35.5791 54.863 29.8761C58.7584 26.7655 67.7692 19.9082 72.0488 19.4349C71.5754 23.7144 64.7181 32.7252 61.6075 36.6208C55.9045 43.7626 49.169 51.0344 46.2631 53.9404Z" fill="#FF5100"/>
</g>
<defs>
<clipPath id="clip0_24_1193">
<rect width="74" height="74" fill="white" transform="translate(0.5 0.916748)"/>
</clipPath>
</defs>
</svg>
